%TF.GenerationSoftware,KiCad,Pcbnew,(6.0.11-0)*%
%TF.CreationDate,2024-07-13T22:40:32+02:00*%
%TF.ProjectId,SAQ_RX,5341515f-5258-42e6-9b69-6361645f7063,rev?*%
%TF.SameCoordinates,Original*%
%TF.FileFunction,Legend,Top*%
%TF.FilePolarity,Positive*%
%FSLAX46Y46*%
G04 Gerber Fmt 4.6, Leading zero omitted, Abs format (unit mm)*
G04 Created by KiCad (PCBNEW (6.0.11-0)) date 2024-07-13 22:40:32*
%MOMM*%
%LPD*%
G01*
G04 APERTURE LIST*
G04 Aperture macros list*
%AMRoundRect*
0 Rectangle with rounded corners*
0 $1 Rounding radius*
0 $2 $3 $4 $5 $6 $7 $8 $9 X,Y pos of 4 corners*
0 Add a 4 corners polygon primitive as box body*
4,1,4,$2,$3,$4,$5,$6,$7,$8,$9,$2,$3,0*
0 Add four circle primitives for the rounded corners*
1,1,$1+$1,$2,$3*
1,1,$1+$1,$4,$5*
1,1,$1+$1,$6,$7*
1,1,$1+$1,$8,$9*
0 Add four rect primitives between the rounded corners*
20,1,$1+$1,$2,$3,$4,$5,0*
20,1,$1+$1,$4,$5,$6,$7,0*
20,1,$1+$1,$6,$7,$8,$9,0*
20,1,$1+$1,$8,$9,$2,$3,0*%
G04 Aperture macros list end*
%ADD10C,0.300000*%
%ADD11C,0.150000*%
%ADD12C,0.010000*%
%ADD13C,0.120000*%
%ADD14RoundRect,0.250000X0.475000X-0.250000X0.475000X0.250000X-0.475000X0.250000X-0.475000X-0.250000X0*%
%ADD15R,2.400000X2.400000*%
%ADD16O,2.400000X2.400000*%
%ADD17C,1.600000*%
%ADD18O,1.600000X1.600000*%
%ADD19RoundRect,0.250000X0.262500X0.450000X-0.262500X0.450000X-0.262500X-0.450000X0.262500X-0.450000X0*%
%ADD20RoundRect,0.250000X-0.262500X-0.450000X0.262500X-0.450000X0.262500X0.450000X-0.262500X0.450000X0*%
%ADD21RoundRect,0.450000X-0.450000X-0.450000X0.450000X-0.450000X0.450000X0.450000X-0.450000X0.450000X0*%
%ADD22C,1.800000*%
%ADD23RoundRect,0.250000X-0.250000X-0.475000X0.250000X-0.475000X0.250000X0.475000X-0.250000X0.475000X0*%
%ADD24RoundRect,0.250000X-0.450000X0.262500X-0.450000X-0.262500X0.450000X-0.262500X0.450000X0.262500X0*%
%ADD25RoundRect,0.250000X-0.475000X0.250000X-0.475000X-0.250000X0.475000X-0.250000X0.475000X0.250000X0*%
%ADD26R,1.800000X1.800000*%
%ADD27RoundRect,0.250000X0.450000X-0.262500X0.450000X0.262500X-0.450000X0.262500X-0.450000X-0.262500X0*%
%ADD28C,1.700000*%
%ADD29R,2.200000X2.800000*%
%ADD30R,2.800000X2.800000*%
%ADD31R,1.500000X1.050000*%
%ADD32O,1.500000X1.050000*%
%ADD33R,1.700000X1.700000*%
%ADD34O,1.700000X1.700000*%
%ADD35RoundRect,0.250000X0.250000X0.475000X-0.250000X0.475000X-0.250000X-0.475000X0.250000X-0.475000X0*%
G04 APERTURE END LIST*
D10*
X160942857Y-80807142D02*
X162085714Y-80807142D01*
X162871428Y-81378571D02*
X163157142Y-81378571D01*
X163300000Y-81307142D01*
X163371428Y-81235714D01*
X163514285Y-81021428D01*
X163585714Y-80735714D01*
X163585714Y-80164285D01*
X163514285Y-80021428D01*
X163442857Y-79950000D01*
X163300000Y-79878571D01*
X163014285Y-79878571D01*
X162871428Y-79950000D01*
X162800000Y-80021428D01*
X162728571Y-80164285D01*
X162728571Y-80521428D01*
X162800000Y-80664285D01*
X162871428Y-80735714D01*
X163014285Y-80807142D01*
X163300000Y-80807142D01*
X163442857Y-80735714D01*
X163514285Y-80664285D01*
X163585714Y-80521428D01*
X164014285Y-79878571D02*
X164514285Y-81378571D01*
X165014285Y-79878571D01*
X165514285Y-80807142D02*
X166657142Y-80807142D01*
X166085714Y-81378571D02*
X166085714Y-80235714D01*
X129450000Y-70478571D02*
X129950000Y-71978571D01*
X130450000Y-70478571D01*
X131664285Y-71978571D02*
X130950000Y-71978571D01*
X130950000Y-70478571D01*
X132664285Y-71192857D02*
X132164285Y-71192857D01*
X132164285Y-71978571D02*
X132164285Y-70478571D01*
X132878571Y-70478571D01*
X134521428Y-71550000D02*
X135235714Y-71550000D01*
X134378571Y-71978571D02*
X134878571Y-70478571D01*
X135378571Y-71978571D01*
X136735714Y-71835714D02*
X136664285Y-71907142D01*
X136450000Y-71978571D01*
X136307142Y-71978571D01*
X136092857Y-71907142D01*
X135950000Y-71764285D01*
X135878571Y-71621428D01*
X135807142Y-71335714D01*
X135807142Y-71121428D01*
X135878571Y-70835714D01*
X135950000Y-70692857D01*
X136092857Y-70550000D01*
X136307142Y-70478571D01*
X136450000Y-70478571D01*
X136664285Y-70550000D01*
X136735714Y-70621428D01*
X137164285Y-70478571D02*
X138021428Y-70478571D01*
X137592857Y-71978571D02*
X137592857Y-70478571D01*
X138521428Y-71978571D02*
X138521428Y-70478571D01*
X139021428Y-70478571D02*
X139521428Y-71978571D01*
X140021428Y-70478571D01*
X140521428Y-71192857D02*
X141021428Y-71192857D01*
X141235714Y-71978571D02*
X140521428Y-71978571D01*
X140521428Y-70478571D01*
X141235714Y-70478571D01*
X142950000Y-71550000D02*
X143664285Y-71550000D01*
X142807142Y-71978571D02*
X143307142Y-70478571D01*
X143807142Y-71978571D01*
X144307142Y-71978571D02*
X144307142Y-70478571D01*
X145164285Y-71978571D01*
X145164285Y-70478571D01*
X145664285Y-70478571D02*
X146521428Y-70478571D01*
X146092857Y-71978571D02*
X146092857Y-70478571D01*
X147021428Y-71192857D02*
X147521428Y-71192857D01*
X147735714Y-71978571D02*
X147021428Y-71978571D01*
X147021428Y-70478571D01*
X147735714Y-70478571D01*
X148378571Y-71978571D02*
X148378571Y-70478571D01*
X149235714Y-71978571D01*
X149235714Y-70478571D01*
X149950000Y-71978571D02*
X149950000Y-70478571D01*
X150807142Y-71978571D01*
X150807142Y-70478571D01*
X151521428Y-71192857D02*
X152021428Y-71192857D01*
X152235714Y-71978571D02*
X151521428Y-71978571D01*
X151521428Y-70478571D01*
X152235714Y-70478571D01*
X154378571Y-72478571D02*
X154378571Y-70335714D01*
X156378571Y-70478571D02*
X156878571Y-71978571D01*
X157378571Y-70478571D01*
X158664285Y-71978571D02*
X157807142Y-71978571D01*
X158235714Y-71978571D02*
X158235714Y-70478571D01*
X158092857Y-70692857D01*
X157950000Y-70835714D01*
X157807142Y-70907142D01*
X159307142Y-71835714D02*
X159378571Y-71907142D01*
X159307142Y-71978571D01*
X159235714Y-71907142D01*
X159307142Y-71835714D01*
X159307142Y-71978571D01*
X160807142Y-71978571D02*
X159950000Y-71978571D01*
X160378571Y-71978571D02*
X160378571Y-70478571D01*
X160235714Y-70692857D01*
X160092857Y-70835714D01*
X159950000Y-70907142D01*
D11*
%TO.C,C2*%
X162057142Y-89716666D02*
X162104761Y-89764285D01*
X162152380Y-89907142D01*
X162152380Y-90002380D01*
X162104761Y-90145238D01*
X162009523Y-90240476D01*
X161914285Y-90288095D01*
X161723809Y-90335714D01*
X161580952Y-90335714D01*
X161390476Y-90288095D01*
X161295238Y-90240476D01*
X161200000Y-90145238D01*
X161152380Y-90002380D01*
X161152380Y-89907142D01*
X161200000Y-89764285D01*
X161247619Y-89716666D01*
X161247619Y-89335714D02*
X161200000Y-89288095D01*
X161152380Y-89192857D01*
X161152380Y-88954761D01*
X161200000Y-88859523D01*
X161247619Y-88811904D01*
X161342857Y-88764285D01*
X161438095Y-88764285D01*
X161580952Y-88811904D01*
X162152380Y-89383333D01*
X162152380Y-88764285D01*
%TO.C,D1*%
X154084380Y-101458095D02*
X153084380Y-101458095D01*
X153084380Y-101220000D01*
X153132000Y-101077142D01*
X153227238Y-100981904D01*
X153322476Y-100934285D01*
X153512952Y-100886666D01*
X153655809Y-100886666D01*
X153846285Y-100934285D01*
X153941523Y-100981904D01*
X154036761Y-101077142D01*
X154084380Y-101220000D01*
X154084380Y-101458095D01*
X154084380Y-99934285D02*
X154084380Y-100505714D01*
X154084380Y-100220000D02*
X153084380Y-100220000D01*
X153227238Y-100315238D01*
X153322476Y-100410476D01*
X153370095Y-100505714D01*
X154866666Y-94458095D02*
X154866666Y-93981904D01*
X155152380Y-94553333D02*
X154152380Y-94220000D01*
X155152380Y-93886666D01*
%TO.C,D2*%
X158402380Y-101204095D02*
X157402380Y-101204095D01*
X157402380Y-100966000D01*
X157450000Y-100823142D01*
X157545238Y-100727904D01*
X157640476Y-100680285D01*
X157830952Y-100632666D01*
X157973809Y-100632666D01*
X158164285Y-100680285D01*
X158259523Y-100727904D01*
X158354761Y-100823142D01*
X158402380Y-100966000D01*
X158402380Y-101204095D01*
X157497619Y-100251714D02*
X157450000Y-100204095D01*
X157402380Y-100108857D01*
X157402380Y-99870761D01*
X157450000Y-99775523D01*
X157497619Y-99727904D01*
X157592857Y-99680285D01*
X157688095Y-99680285D01*
X157830952Y-99727904D01*
X158402380Y-100299333D01*
X158402380Y-99680285D01*
X159316666Y-94458095D02*
X159316666Y-93981904D01*
X159602380Y-94553333D02*
X158602380Y-94220000D01*
X159602380Y-93886666D01*
%TO.C,C5*%
X139807142Y-83672666D02*
X139854761Y-83720285D01*
X139902380Y-83863142D01*
X139902380Y-83958380D01*
X139854761Y-84101238D01*
X139759523Y-84196476D01*
X139664285Y-84244095D01*
X139473809Y-84291714D01*
X139330952Y-84291714D01*
X139140476Y-84244095D01*
X139045238Y-84196476D01*
X138950000Y-84101238D01*
X138902380Y-83958380D01*
X138902380Y-83863142D01*
X138950000Y-83720285D01*
X138997619Y-83672666D01*
X138902380Y-82767904D02*
X138902380Y-83244095D01*
X139378571Y-83291714D01*
X139330952Y-83244095D01*
X139283333Y-83148857D01*
X139283333Y-82910761D01*
X139330952Y-82815523D01*
X139378571Y-82767904D01*
X139473809Y-82720285D01*
X139711904Y-82720285D01*
X139807142Y-82767904D01*
X139854761Y-82815523D01*
X139902380Y-82910761D01*
X139902380Y-83148857D01*
X139854761Y-83244095D01*
X139807142Y-83291714D01*
%TO.C,L1*%
X151800380Y-89750666D02*
X151800380Y-90226857D01*
X150800380Y-90226857D01*
X151800380Y-88893523D02*
X151800380Y-89464952D01*
X151800380Y-89179238D02*
X150800380Y-89179238D01*
X150943238Y-89274476D01*
X151038476Y-89369714D01*
X151086095Y-89464952D01*
%TO.C,R3*%
X141683333Y-99452380D02*
X141350000Y-98976190D01*
X141111904Y-99452380D02*
X141111904Y-98452380D01*
X141492857Y-98452380D01*
X141588095Y-98500000D01*
X141635714Y-98547619D01*
X141683333Y-98642857D01*
X141683333Y-98785714D01*
X141635714Y-98880952D01*
X141588095Y-98928571D01*
X141492857Y-98976190D01*
X141111904Y-98976190D01*
X142016666Y-98452380D02*
X142635714Y-98452380D01*
X142302380Y-98833333D01*
X142445238Y-98833333D01*
X142540476Y-98880952D01*
X142588095Y-98928571D01*
X142635714Y-99023809D01*
X142635714Y-99261904D01*
X142588095Y-99357142D01*
X142540476Y-99404761D01*
X142445238Y-99452380D01*
X142159523Y-99452380D01*
X142064285Y-99404761D01*
X142016666Y-99357142D01*
%TO.C,C6*%
X144013142Y-83686666D02*
X144060761Y-83734285D01*
X144108380Y-83877142D01*
X144108380Y-83972380D01*
X144060761Y-84115238D01*
X143965523Y-84210476D01*
X143870285Y-84258095D01*
X143679809Y-84305714D01*
X143536952Y-84305714D01*
X143346476Y-84258095D01*
X143251238Y-84210476D01*
X143156000Y-84115238D01*
X143108380Y-83972380D01*
X143108380Y-83877142D01*
X143156000Y-83734285D01*
X143203619Y-83686666D01*
X143108380Y-82829523D02*
X143108380Y-83020000D01*
X143156000Y-83115238D01*
X143203619Y-83162857D01*
X143346476Y-83258095D01*
X143536952Y-83305714D01*
X143917904Y-83305714D01*
X144013142Y-83258095D01*
X144060761Y-83210476D01*
X144108380Y-83115238D01*
X144108380Y-82924761D01*
X144060761Y-82829523D01*
X144013142Y-82781904D01*
X143917904Y-82734285D01*
X143679809Y-82734285D01*
X143584571Y-82781904D01*
X143536952Y-82829523D01*
X143489333Y-82924761D01*
X143489333Y-83115238D01*
X143536952Y-83210476D01*
X143584571Y-83258095D01*
X143679809Y-83305714D01*
%TO.C,R4*%
X131752380Y-91266666D02*
X131276190Y-91600000D01*
X131752380Y-91838095D02*
X130752380Y-91838095D01*
X130752380Y-91457142D01*
X130800000Y-91361904D01*
X130847619Y-91314285D01*
X130942857Y-91266666D01*
X131085714Y-91266666D01*
X131180952Y-91314285D01*
X131228571Y-91361904D01*
X131276190Y-91457142D01*
X131276190Y-91838095D01*
X131085714Y-90409523D02*
X131752380Y-90409523D01*
X130704761Y-90647619D02*
X131419047Y-90885714D01*
X131419047Y-90266666D01*
%TO.C,RV1*%
X164502380Y-102045238D02*
X164026190Y-102378571D01*
X164502380Y-102616666D02*
X163502380Y-102616666D01*
X163502380Y-102235714D01*
X163550000Y-102140476D01*
X163597619Y-102092857D01*
X163692857Y-102045238D01*
X163835714Y-102045238D01*
X163930952Y-102092857D01*
X163978571Y-102140476D01*
X164026190Y-102235714D01*
X164026190Y-102616666D01*
X163502380Y-101759523D02*
X164502380Y-101426190D01*
X163502380Y-101092857D01*
X164502380Y-100235714D02*
X164502380Y-100807142D01*
X164502380Y-100521428D02*
X163502380Y-100521428D01*
X163645238Y-100616666D01*
X163740476Y-100711904D01*
X163788095Y-100807142D01*
%TO.C,C3*%
X150233333Y-95957142D02*
X150185714Y-96004761D01*
X150042857Y-96052380D01*
X149947619Y-96052380D01*
X149804761Y-96004761D01*
X149709523Y-95909523D01*
X149661904Y-95814285D01*
X149614285Y-95623809D01*
X149614285Y-95480952D01*
X149661904Y-95290476D01*
X149709523Y-95195238D01*
X149804761Y-95100000D01*
X149947619Y-95052380D01*
X150042857Y-95052380D01*
X150185714Y-95100000D01*
X150233333Y-95147619D01*
X150566666Y-95052380D02*
X151185714Y-95052380D01*
X150852380Y-95433333D01*
X150995238Y-95433333D01*
X151090476Y-95480952D01*
X151138095Y-95528571D01*
X151185714Y-95623809D01*
X151185714Y-95861904D01*
X151138095Y-95957142D01*
X151090476Y-96004761D01*
X150995238Y-96052380D01*
X150709523Y-96052380D01*
X150614285Y-96004761D01*
X150566666Y-95957142D01*
%TO.C,R1*%
X162152380Y-99266666D02*
X161676190Y-99600000D01*
X162152380Y-99838095D02*
X161152380Y-99838095D01*
X161152380Y-99457142D01*
X161200000Y-99361904D01*
X161247619Y-99314285D01*
X161342857Y-99266666D01*
X161485714Y-99266666D01*
X161580952Y-99314285D01*
X161628571Y-99361904D01*
X161676190Y-99457142D01*
X161676190Y-99838095D01*
X162152380Y-98314285D02*
X162152380Y-98885714D01*
X162152380Y-98600000D02*
X161152380Y-98600000D01*
X161295238Y-98695238D01*
X161390476Y-98790476D01*
X161438095Y-98885714D01*
%TO.C,C7*%
X134457142Y-96866666D02*
X134504761Y-96914285D01*
X134552380Y-97057142D01*
X134552380Y-97152380D01*
X134504761Y-97295238D01*
X134409523Y-97390476D01*
X134314285Y-97438095D01*
X134123809Y-97485714D01*
X133980952Y-97485714D01*
X133790476Y-97438095D01*
X133695238Y-97390476D01*
X133600000Y-97295238D01*
X133552380Y-97152380D01*
X133552380Y-97057142D01*
X133600000Y-96914285D01*
X133647619Y-96866666D01*
X133552380Y-96533333D02*
X133552380Y-95866666D01*
X134552380Y-96295238D01*
%TO.C,R2*%
X145452380Y-93716666D02*
X144976190Y-94050000D01*
X145452380Y-94288095D02*
X144452380Y-94288095D01*
X144452380Y-93907142D01*
X144500000Y-93811904D01*
X144547619Y-93764285D01*
X144642857Y-93716666D01*
X144785714Y-93716666D01*
X144880952Y-93764285D01*
X144928571Y-93811904D01*
X144976190Y-93907142D01*
X144976190Y-94288095D01*
X144547619Y-93335714D02*
X144500000Y-93288095D01*
X144452380Y-93192857D01*
X144452380Y-92954761D01*
X144500000Y-92859523D01*
X144547619Y-92811904D01*
X144642857Y-92764285D01*
X144738095Y-92764285D01*
X144880952Y-92811904D01*
X145452380Y-93383333D01*
X145452380Y-92764285D01*
%TO.C,D3*%
X177952380Y-85838095D02*
X176952380Y-85838095D01*
X176952380Y-85600000D01*
X177000000Y-85457142D01*
X177095238Y-85361904D01*
X177190476Y-85314285D01*
X177380952Y-85266666D01*
X177523809Y-85266666D01*
X177714285Y-85314285D01*
X177809523Y-85361904D01*
X177904761Y-85457142D01*
X177952380Y-85600000D01*
X177952380Y-85838095D01*
X176952380Y-84933333D02*
X176952380Y-84314285D01*
X177333333Y-84647619D01*
X177333333Y-84504761D01*
X177380952Y-84409523D01*
X177428571Y-84361904D01*
X177523809Y-84314285D01*
X177761904Y-84314285D01*
X177857142Y-84361904D01*
X177904761Y-84409523D01*
X177952380Y-84504761D01*
X177952380Y-84790476D01*
X177904761Y-84885714D01*
X177857142Y-84933333D01*
%TO.C,R5*%
X141976380Y-83754166D02*
X141500190Y-84087500D01*
X141976380Y-84325595D02*
X140976380Y-84325595D01*
X140976380Y-83944642D01*
X141024000Y-83849404D01*
X141071619Y-83801785D01*
X141166857Y-83754166D01*
X141309714Y-83754166D01*
X141404952Y-83801785D01*
X141452571Y-83849404D01*
X141500190Y-83944642D01*
X141500190Y-84325595D01*
X140976380Y-82849404D02*
X140976380Y-83325595D01*
X141452571Y-83373214D01*
X141404952Y-83325595D01*
X141357333Y-83230357D01*
X141357333Y-82992261D01*
X141404952Y-82897023D01*
X141452571Y-82849404D01*
X141547809Y-82801785D01*
X141785904Y-82801785D01*
X141881142Y-82849404D01*
X141928761Y-82897023D01*
X141976380Y-82992261D01*
X141976380Y-83230357D01*
X141928761Y-83325595D01*
X141881142Y-83373214D01*
%TO.C,J1*%
X161652380Y-75433333D02*
X162366666Y-75433333D01*
X162509523Y-75480952D01*
X162604761Y-75576190D01*
X162652380Y-75719047D01*
X162652380Y-75814285D01*
X162652380Y-74433333D02*
X162652380Y-75004761D01*
X162652380Y-74719047D02*
X161652380Y-74719047D01*
X161795238Y-74814285D01*
X161890476Y-74909523D01*
X161938095Y-75004761D01*
%TO.C,Q1*%
X143797619Y-90395238D02*
X143750000Y-90490476D01*
X143654761Y-90585714D01*
X143511904Y-90728571D01*
X143464285Y-90823809D01*
X143464285Y-90919047D01*
X143702380Y-90871428D02*
X143654761Y-90966666D01*
X143559523Y-91061904D01*
X143369047Y-91109523D01*
X143035714Y-91109523D01*
X142845238Y-91061904D01*
X142750000Y-90966666D01*
X142702380Y-90871428D01*
X142702380Y-90680952D01*
X142750000Y-90585714D01*
X142845238Y-90490476D01*
X143035714Y-90442857D01*
X143369047Y-90442857D01*
X143559523Y-90490476D01*
X143654761Y-90585714D01*
X143702380Y-90680952D01*
X143702380Y-90871428D01*
X143702380Y-89490476D02*
X143702380Y-90061904D01*
X143702380Y-89776190D02*
X142702380Y-89776190D01*
X142845238Y-89871428D01*
X142940476Y-89966666D01*
X142988095Y-90061904D01*
%TO.C,J2*%
X163052380Y-86883333D02*
X163766666Y-86883333D01*
X163909523Y-86930952D01*
X164004761Y-87026190D01*
X164052380Y-87169047D01*
X164052380Y-87264285D01*
X163147619Y-86454761D02*
X163100000Y-86407142D01*
X163052380Y-86311904D01*
X163052380Y-86073809D01*
X163100000Y-85978571D01*
X163147619Y-85930952D01*
X163242857Y-85883333D01*
X163338095Y-85883333D01*
X163480952Y-85930952D01*
X164052380Y-86502380D01*
X164052380Y-85883333D01*
%TO.C,C1*%
X170733333Y-91307142D02*
X170685714Y-91354761D01*
X170542857Y-91402380D01*
X170447619Y-91402380D01*
X170304761Y-91354761D01*
X170209523Y-91259523D01*
X170161904Y-91164285D01*
X170114285Y-90973809D01*
X170114285Y-90830952D01*
X170161904Y-90640476D01*
X170209523Y-90545238D01*
X170304761Y-90450000D01*
X170447619Y-90402380D01*
X170542857Y-90402380D01*
X170685714Y-90450000D01*
X170733333Y-90497619D01*
X171685714Y-91402380D02*
X171114285Y-91402380D01*
X171400000Y-91402380D02*
X171400000Y-90402380D01*
X171304761Y-90545238D01*
X171209523Y-90640476D01*
X171114285Y-90688095D01*
%TO.C,R6*%
X168602380Y-84866666D02*
X168126190Y-85200000D01*
X168602380Y-85438095D02*
X167602380Y-85438095D01*
X167602380Y-85057142D01*
X167650000Y-84961904D01*
X167697619Y-84914285D01*
X167792857Y-84866666D01*
X167935714Y-84866666D01*
X168030952Y-84914285D01*
X168078571Y-84961904D01*
X168126190Y-85057142D01*
X168126190Y-85438095D01*
X167602380Y-84009523D02*
X167602380Y-84200000D01*
X167650000Y-84295238D01*
X167697619Y-84342857D01*
X167840476Y-84438095D01*
X168030952Y-84485714D01*
X168411904Y-84485714D01*
X168507142Y-84438095D01*
X168554761Y-84390476D01*
X168602380Y-84295238D01*
X168602380Y-84104761D01*
X168554761Y-84009523D01*
X168507142Y-83961904D01*
X168411904Y-83914285D01*
X168173809Y-83914285D01*
X168078571Y-83961904D01*
X168030952Y-84009523D01*
X167983333Y-84104761D01*
X167983333Y-84295238D01*
X168030952Y-84390476D01*
X168078571Y-84438095D01*
X168173809Y-84485714D01*
%TO.C,C9*%
X146383333Y-100157142D02*
X146335714Y-100204761D01*
X146192857Y-100252380D01*
X146097619Y-100252380D01*
X145954761Y-100204761D01*
X145859523Y-100109523D01*
X145811904Y-100014285D01*
X145764285Y-99823809D01*
X145764285Y-99680952D01*
X145811904Y-99490476D01*
X145859523Y-99395238D01*
X145954761Y-99300000D01*
X146097619Y-99252380D01*
X146192857Y-99252380D01*
X146335714Y-99300000D01*
X146383333Y-99347619D01*
X146859523Y-100252380D02*
X147050000Y-100252380D01*
X147145238Y-100204761D01*
X147192857Y-100157142D01*
X147288095Y-100014285D01*
X147335714Y-99823809D01*
X147335714Y-99442857D01*
X147288095Y-99347619D01*
X147240476Y-99300000D01*
X147145238Y-99252380D01*
X146954761Y-99252380D01*
X146859523Y-99300000D01*
X146811904Y-99347619D01*
X146764285Y-99442857D01*
X146764285Y-99680952D01*
X146811904Y-99776190D01*
X146859523Y-99823809D01*
X146954761Y-99871428D01*
X147145238Y-99871428D01*
X147240476Y-99823809D01*
X147288095Y-99776190D01*
X147335714Y-99680952D01*
%TO.C,C8*%
X134457142Y-88066666D02*
X134504761Y-88114285D01*
X134552380Y-88257142D01*
X134552380Y-88352380D01*
X134504761Y-88495238D01*
X134409523Y-88590476D01*
X134314285Y-88638095D01*
X134123809Y-88685714D01*
X133980952Y-88685714D01*
X133790476Y-88638095D01*
X133695238Y-88590476D01*
X133600000Y-88495238D01*
X133552380Y-88352380D01*
X133552380Y-88257142D01*
X133600000Y-88114285D01*
X133647619Y-88066666D01*
X133980952Y-87495238D02*
X133933333Y-87590476D01*
X133885714Y-87638095D01*
X133790476Y-87685714D01*
X133742857Y-87685714D01*
X133647619Y-87638095D01*
X133600000Y-87590476D01*
X133552380Y-87495238D01*
X133552380Y-87304761D01*
X133600000Y-87209523D01*
X133647619Y-87161904D01*
X133742857Y-87114285D01*
X133790476Y-87114285D01*
X133885714Y-87161904D01*
X133933333Y-87209523D01*
X133980952Y-87304761D01*
X133980952Y-87495238D01*
X134028571Y-87590476D01*
X134076190Y-87638095D01*
X134171428Y-87685714D01*
X134361904Y-87685714D01*
X134457142Y-87638095D01*
X134504761Y-87590476D01*
X134552380Y-87495238D01*
X134552380Y-87304761D01*
X134504761Y-87209523D01*
X134457142Y-87161904D01*
X134361904Y-87114285D01*
X134171428Y-87114285D01*
X134076190Y-87161904D01*
X134028571Y-87209523D01*
X133980952Y-87304761D01*
%TO.C,C4*%
X136557142Y-96916666D02*
X136604761Y-96964285D01*
X136652380Y-97107142D01*
X136652380Y-97202380D01*
X136604761Y-97345238D01*
X136509523Y-97440476D01*
X136414285Y-97488095D01*
X136223809Y-97535714D01*
X136080952Y-97535714D01*
X135890476Y-97488095D01*
X135795238Y-97440476D01*
X135700000Y-97345238D01*
X135652380Y-97202380D01*
X135652380Y-97107142D01*
X135700000Y-96964285D01*
X135747619Y-96916666D01*
X135985714Y-96059523D02*
X136652380Y-96059523D01*
X135604761Y-96297619D02*
X136319047Y-96535714D01*
X136319047Y-95916666D01*
%TO.C,REF\u002A\u002A*%
G36*
X152621664Y-79895089D02*
G01*
X152684367Y-79931358D01*
X152727961Y-79967358D01*
X152759845Y-80005075D01*
X152781810Y-80051199D01*
X152795649Y-80112421D01*
X152803153Y-80195431D01*
X152806117Y-80306919D01*
X152806461Y-80387062D01*
X152806461Y-80682065D01*
X152640385Y-80756515D01*
X152630615Y-80433402D01*
X152626579Y-80312729D01*
X152622344Y-80225141D01*
X152617097Y-80164650D01*
X152610025Y-80125268D01*
X152600311Y-80101007D01*
X152587144Y-80085880D01*
X152582919Y-80082606D01*
X152518909Y-80057034D01*
X152454208Y-80067153D01*
X152415692Y-80094000D01*
X152400025Y-80113024D01*
X152389180Y-80137988D01*
X152382288Y-80175834D01*
X152378479Y-80233502D01*
X152376883Y-80317935D01*
X152376615Y-80405928D01*
X152376563Y-80516323D01*
X152374672Y-80594463D01*
X152368345Y-80647165D01*
X152354983Y-80681242D01*
X152331985Y-80703511D01*
X152296754Y-80720787D01*
X152249697Y-80738738D01*
X152198303Y-80758278D01*
X152204421Y-80411485D01*
X152206884Y-80286468D01*
X152209767Y-80194082D01*
X152213898Y-80127881D01*
X152220107Y-80081420D01*
X152229226Y-80048256D01*
X152242083Y-80021944D01*
X152257584Y-79998729D01*
X152332371Y-79924569D01*
X152423628Y-79881684D01*
X152522883Y-79871412D01*
X152621664Y-79895089D01*
G37*
D12*
X152621664Y-79895089D02*
X152684367Y-79931358D01*
X152727961Y-79967358D01*
X152759845Y-80005075D01*
X152781810Y-80051199D01*
X152795649Y-80112421D01*
X152803153Y-80195431D01*
X152806117Y-80306919D01*
X152806461Y-80387062D01*
X152806461Y-80682065D01*
X152640385Y-80756515D01*
X152630615Y-80433402D01*
X152626579Y-80312729D01*
X152622344Y-80225141D01*
X152617097Y-80164650D01*
X152610025Y-80125268D01*
X152600311Y-80101007D01*
X152587144Y-80085880D01*
X152582919Y-80082606D01*
X152518909Y-80057034D01*
X152454208Y-80067153D01*
X152415692Y-80094000D01*
X152400025Y-80113024D01*
X152389180Y-80137988D01*
X152382288Y-80175834D01*
X152378479Y-80233502D01*
X152376883Y-80317935D01*
X152376615Y-80405928D01*
X152376563Y-80516323D01*
X152374672Y-80594463D01*
X152368345Y-80647165D01*
X152354983Y-80681242D01*
X152331985Y-80703511D01*
X152296754Y-80720787D01*
X152249697Y-80738738D01*
X152198303Y-80758278D01*
X152204421Y-80411485D01*
X152206884Y-80286468D01*
X152209767Y-80194082D01*
X152213898Y-80127881D01*
X152220107Y-80081420D01*
X152229226Y-80048256D01*
X152242083Y-80021944D01*
X152257584Y-79998729D01*
X152332371Y-79924569D01*
X152423628Y-79881684D01*
X152522883Y-79871412D01*
X152621664Y-79895089D01*
G36*
X155406362Y-80113577D02*
G01*
X155436528Y-80044269D01*
X155483629Y-79990211D01*
X155520312Y-79962505D01*
X155586990Y-79932572D01*
X155664272Y-79918678D01*
X155736110Y-79922397D01*
X155776308Y-79937400D01*
X155792082Y-79941670D01*
X155802550Y-79925750D01*
X155809856Y-79883089D01*
X155815385Y-79818106D01*
X155821437Y-79745732D01*
X155829844Y-79702187D01*
X155845141Y-79677287D01*
X155871864Y-79660845D01*
X155888654Y-79653564D01*
X155952154Y-79626963D01*
X155952081Y-80080289D01*
X155951833Y-80226320D01*
X155950872Y-80338655D01*
X155948794Y-80422678D01*
X155945193Y-80483769D01*
X155939665Y-80527309D01*
X155931804Y-80558679D01*
X155921207Y-80583262D01*
X155913182Y-80597294D01*
X155846728Y-80673388D01*
X155762470Y-80721084D01*
X155669249Y-80738199D01*
X155575900Y-80722546D01*
X155520312Y-80694418D01*
X155461957Y-80645760D01*
X155422186Y-80586333D01*
X155398190Y-80508507D01*
X155387161Y-80404652D01*
X155385599Y-80328462D01*
X155385809Y-80322986D01*
X155522308Y-80322986D01*
X155523141Y-80410355D01*
X155526961Y-80468192D01*
X155535746Y-80506029D01*
X155551474Y-80533398D01*
X155570266Y-80554042D01*
X155633375Y-80593890D01*
X155701137Y-80597295D01*
X155765179Y-80564025D01*
X155770164Y-80559517D01*
X155791439Y-80536067D01*
X155804779Y-80508166D01*
X155812001Y-80466641D01*
X155814923Y-80402316D01*
X155815385Y-80331200D01*
X155814383Y-80241858D01*
X155810238Y-80182258D01*
X155801236Y-80143089D01*
X155785667Y-80115040D01*
X155772902Y-80100144D01*
X155713600Y-80062575D01*
X155645301Y-80058057D01*
X155580110Y-80086753D01*
X155567528Y-80097406D01*
X155546111Y-80121063D01*
X155532744Y-80149251D01*
X155525566Y-80191245D01*
X155522719Y-80256319D01*
X155522308Y-80322986D01*
X155385809Y-80322986D01*
X155390322Y-80205765D01*
X155406362Y-80113577D01*
G37*
X155406362Y-80113577D02*
X155436528Y-80044269D01*
X155483629Y-79990211D01*
X155520312Y-79962505D01*
X155586990Y-79932572D01*
X155664272Y-79918678D01*
X155736110Y-79922397D01*
X155776308Y-79937400D01*
X155792082Y-79941670D01*
X155802550Y-79925750D01*
X155809856Y-79883089D01*
X155815385Y-79818106D01*
X155821437Y-79745732D01*
X155829844Y-79702187D01*
X155845141Y-79677287D01*
X155871864Y-79660845D01*
X155888654Y-79653564D01*
X155952154Y-79626963D01*
X155952081Y-80080289D01*
X155951833Y-80226320D01*
X155950872Y-80338655D01*
X155948794Y-80422678D01*
X155945193Y-80483769D01*
X155939665Y-80527309D01*
X155931804Y-80558679D01*
X155921207Y-80583262D01*
X155913182Y-80597294D01*
X155846728Y-80673388D01*
X155762470Y-80721084D01*
X155669249Y-80738199D01*
X155575900Y-80722546D01*
X155520312Y-80694418D01*
X155461957Y-80645760D01*
X155422186Y-80586333D01*
X155398190Y-80508507D01*
X155387161Y-80404652D01*
X155385599Y-80328462D01*
X155385809Y-80322986D01*
X155522308Y-80322986D01*
X155523141Y-80410355D01*
X155526961Y-80468192D01*
X155535746Y-80506029D01*
X155551474Y-80533398D01*
X155570266Y-80554042D01*
X155633375Y-80593890D01*
X155701137Y-80597295D01*
X155765179Y-80564025D01*
X155770164Y-80559517D01*
X155791439Y-80536067D01*
X155804779Y-80508166D01*
X155812001Y-80466641D01*
X155814923Y-80402316D01*
X155815385Y-80331200D01*
X155814383Y-80241858D01*
X155810238Y-80182258D01*
X155801236Y-80143089D01*
X155785667Y-80115040D01*
X155772902Y-80100144D01*
X155713600Y-80062575D01*
X155645301Y-80058057D01*
X155580110Y-80086753D01*
X155567528Y-80097406D01*
X155546111Y-80121063D01*
X155532744Y-80149251D01*
X155525566Y-80191245D01*
X155522719Y-80256319D01*
X155522308Y-80322986D01*
X155385809Y-80322986D01*
X155390322Y-80205765D01*
X155406362Y-80113577D01*
G36*
X153509846Y-79792120D02*
G01*
X153515572Y-79871980D01*
X153522149Y-79919039D01*
X153531262Y-79939566D01*
X153544598Y-79939829D01*
X153548923Y-79937378D01*
X153606444Y-79919636D01*
X153681268Y-79920672D01*
X153757339Y-79938910D01*
X153804918Y-79962505D01*
X153853702Y-80000198D01*
X153889364Y-80042855D01*
X153913845Y-80097057D01*
X153929087Y-80169384D01*
X153937030Y-80266419D01*
X153939616Y-80394742D01*
X153939662Y-80419358D01*
X153939692Y-80695870D01*
X153878161Y-80717320D01*
X153834459Y-80731912D01*
X153810482Y-80738706D01*
X153809777Y-80738769D01*
X153807415Y-80720345D01*
X153805406Y-80669526D01*
X153803901Y-80592993D01*
X153803053Y-80497430D01*
X153802923Y-80439329D01*
X153802651Y-80324771D01*
X153801252Y-80242667D01*
X153797849Y-80186393D01*
X153791567Y-80149326D01*
X153781529Y-80124844D01*
X153766861Y-80106325D01*
X153757702Y-80097406D01*
X153694789Y-80061466D01*
X153626136Y-80058775D01*
X153563848Y-80089170D01*
X153552329Y-80100144D01*
X153535433Y-80120779D01*
X153523714Y-80145256D01*
X153516233Y-80180647D01*
X153512054Y-80234026D01*
X153510237Y-80312466D01*
X153509846Y-80420617D01*
X153509846Y-80695870D01*
X153448315Y-80717320D01*
X153404613Y-80731912D01*
X153380636Y-80738706D01*
X153379930Y-80738769D01*
X153378126Y-80720069D01*
X153376500Y-80667322D01*
X153375117Y-80585557D01*
X153374042Y-80479805D01*
X153373340Y-80355094D01*
X153373077Y-80216455D01*
X153373077Y-79681806D01*
X153500077Y-79628236D01*
X153509846Y-79792120D01*
G37*
X153509846Y-79792120D02*
X153515572Y-79871980D01*
X153522149Y-79919039D01*
X153531262Y-79939566D01*
X153544598Y-79939829D01*
X153548923Y-79937378D01*
X153606444Y-79919636D01*
X153681268Y-79920672D01*
X153757339Y-79938910D01*
X153804918Y-79962505D01*
X153853702Y-80000198D01*
X153889364Y-80042855D01*
X153913845Y-80097057D01*
X153929087Y-80169384D01*
X153937030Y-80266419D01*
X153939616Y-80394742D01*
X153939662Y-80419358D01*
X153939692Y-80695870D01*
X153878161Y-80717320D01*
X153834459Y-80731912D01*
X153810482Y-80738706D01*
X153809777Y-80738769D01*
X153807415Y-80720345D01*
X153805406Y-80669526D01*
X153803901Y-80592993D01*
X153803053Y-80497430D01*
X153802923Y-80439329D01*
X153802651Y-80324771D01*
X153801252Y-80242667D01*
X153797849Y-80186393D01*
X153791567Y-80149326D01*
X153781529Y-80124844D01*
X153766861Y-80106325D01*
X153757702Y-80097406D01*
X153694789Y-80061466D01*
X153626136Y-80058775D01*
X153563848Y-80089170D01*
X153552329Y-80100144D01*
X153535433Y-80120779D01*
X153523714Y-80145256D01*
X153516233Y-80180647D01*
X153512054Y-80234026D01*
X153510237Y-80312466D01*
X153509846Y-80420617D01*
X153509846Y-80695870D01*
X153448315Y-80717320D01*
X153404613Y-80731912D01*
X153380636Y-80738706D01*
X153379930Y-80738769D01*
X153378126Y-80720069D01*
X153376500Y-80667322D01*
X153375117Y-80585557D01*
X153374042Y-80479805D01*
X153373340Y-80355094D01*
X153373077Y-80216455D01*
X153373077Y-79681806D01*
X153500077Y-79628236D01*
X153509846Y-79792120D01*
G36*
X154403501Y-79926303D02*
G01*
X154480060Y-79954733D01*
X154480936Y-79955279D01*
X154528285Y-79990127D01*
X154563241Y-80030852D01*
X154587825Y-80083925D01*
X154604062Y-80155814D01*
X154613975Y-80252992D01*
X154619586Y-80381928D01*
X154620077Y-80400298D01*
X154627141Y-80677287D01*
X154567695Y-80708028D01*
X154524681Y-80728802D01*
X154498710Y-80738646D01*
X154497509Y-80738769D01*
X154493014Y-80720606D01*
X154489444Y-80671612D01*
X154487248Y-80600031D01*
X154486769Y-80542068D01*
X154486758Y-80448170D01*
X154482466Y-80389203D01*
X154467503Y-80361079D01*
X154435482Y-80359706D01*
X154380014Y-80380998D01*
X154296269Y-80420136D01*
X154234689Y-80452643D01*
X154203017Y-80480845D01*
X154193706Y-80511582D01*
X154193692Y-80513104D01*
X154209057Y-80566054D01*
X154254547Y-80594660D01*
X154324166Y-80598803D01*
X154374313Y-80598084D01*
X154400754Y-80612527D01*
X154417243Y-80647218D01*
X154426733Y-80691416D01*
X154413057Y-80716493D01*
X154407907Y-80720082D01*
X154359425Y-80734496D01*
X154291531Y-80736537D01*
X154221612Y-80726983D01*
X154172068Y-80709522D01*
X154103570Y-80651364D01*
X154064634Y-80570408D01*
X154056923Y-80507160D01*
X154062807Y-80450111D01*
X154084101Y-80403542D01*
X154126265Y-80362181D01*
X154194759Y-80320755D01*
X154295044Y-80273993D01*
X154301154Y-80271350D01*
X154391490Y-80229617D01*
X154447235Y-80195391D01*
X154471129Y-80164635D01*
X154465913Y-80133311D01*
X154434328Y-80097383D01*
X154424883Y-80089116D01*
X154361617Y-80057058D01*
X154296064Y-80058407D01*
X154238972Y-80089838D01*
X154201093Y-80148024D01*
X154197574Y-80159446D01*
X154163300Y-80214837D01*
X154119809Y-80241518D01*
X154056923Y-80267960D01*
X154056923Y-80199548D01*
X154076052Y-80100110D01*
X154132831Y-80008902D01*
X154162378Y-79978389D01*
X154229542Y-79939228D01*
X154314956Y-79921500D01*
X154403501Y-79926303D01*
G37*
X154403501Y-79926303D02*
X154480060Y-79954733D01*
X154480936Y-79955279D01*
X154528285Y-79990127D01*
X154563241Y-80030852D01*
X154587825Y-80083925D01*
X154604062Y-80155814D01*
X154613975Y-80252992D01*
X154619586Y-80381928D01*
X154620077Y-80400298D01*
X154627141Y-80677287D01*
X154567695Y-80708028D01*
X154524681Y-80728802D01*
X154498710Y-80738646D01*
X154497509Y-80738769D01*
X154493014Y-80720606D01*
X154489444Y-80671612D01*
X154487248Y-80600031D01*
X154486769Y-80542068D01*
X154486758Y-80448170D01*
X154482466Y-80389203D01*
X154467503Y-80361079D01*
X154435482Y-80359706D01*
X154380014Y-80380998D01*
X154296269Y-80420136D01*
X154234689Y-80452643D01*
X154203017Y-80480845D01*
X154193706Y-80511582D01*
X154193692Y-80513104D01*
X154209057Y-80566054D01*
X154254547Y-80594660D01*
X154324166Y-80598803D01*
X154374313Y-80598084D01*
X154400754Y-80612527D01*
X154417243Y-80647218D01*
X154426733Y-80691416D01*
X154413057Y-80716493D01*
X154407907Y-80720082D01*
X154359425Y-80734496D01*
X154291531Y-80736537D01*
X154221612Y-80726983D01*
X154172068Y-80709522D01*
X154103570Y-80651364D01*
X154064634Y-80570408D01*
X154056923Y-80507160D01*
X154062807Y-80450111D01*
X154084101Y-80403542D01*
X154126265Y-80362181D01*
X154194759Y-80320755D01*
X154295044Y-80273993D01*
X154301154Y-80271350D01*
X154391490Y-80229617D01*
X154447235Y-80195391D01*
X154471129Y-80164635D01*
X154465913Y-80133311D01*
X154434328Y-80097383D01*
X154424883Y-80089116D01*
X154361617Y-80057058D01*
X154296064Y-80058407D01*
X154238972Y-80089838D01*
X154201093Y-80148024D01*
X154197574Y-80159446D01*
X154163300Y-80214837D01*
X154119809Y-80241518D01*
X154056923Y-80267960D01*
X154056923Y-80199548D01*
X154076052Y-80100110D01*
X154132831Y-80008902D01*
X154162378Y-79978389D01*
X154229542Y-79939228D01*
X154314956Y-79921500D01*
X154403501Y-79926303D01*
G36*
X150706873Y-80194679D02*
G01*
X150710606Y-80130905D01*
X150715907Y-80085582D01*
X150723258Y-80053555D01*
X150733143Y-80029668D01*
X150746046Y-80008764D01*
X150751579Y-80000898D01*
X150824969Y-79926595D01*
X150917760Y-79884467D01*
X151025096Y-79872722D01*
X151118886Y-79884505D01*
X151193539Y-79921727D01*
X151259431Y-79990261D01*
X151277577Y-80015648D01*
X151297345Y-80048866D01*
X151310172Y-80084945D01*
X151317510Y-80133098D01*
X151320813Y-80202536D01*
X151321538Y-80294206D01*
X151318263Y-80419830D01*
X151306877Y-80514154D01*
X151285041Y-80584523D01*
X151250419Y-80638286D01*
X151200670Y-80682788D01*
X151197014Y-80685423D01*
X151147985Y-80712377D01*
X151088945Y-80725712D01*
X151013859Y-80729000D01*
X150891795Y-80729000D01*
X150891744Y-80847497D01*
X150890608Y-80913492D01*
X150883686Y-80952202D01*
X150865598Y-80975419D01*
X150830962Y-80994933D01*
X150822645Y-80998920D01*
X150783720Y-81017603D01*
X150753583Y-81029403D01*
X150731174Y-81030422D01*
X150715433Y-81016761D01*
X150705302Y-80984522D01*
X150699723Y-80929804D01*
X150697635Y-80848711D01*
X150697981Y-80737344D01*
X150699700Y-80591802D01*
X150700237Y-80548269D01*
X150702172Y-80398205D01*
X150703904Y-80300042D01*
X150891692Y-80300042D01*
X150892748Y-80383364D01*
X150897438Y-80437880D01*
X150908051Y-80473837D01*
X150926872Y-80501482D01*
X150939650Y-80514965D01*
X150991890Y-80554417D01*
X151038142Y-80557628D01*
X151085867Y-80525049D01*
X151087077Y-80523846D01*
X151106494Y-80498668D01*
X151118307Y-80464447D01*
X151124265Y-80411748D01*
X151126120Y-80331131D01*
X151126154Y-80313271D01*
X151121670Y-80202175D01*
X151107074Y-80125161D01*
X151080650Y-80078147D01*
X151040683Y-80057050D01*
X151017584Y-80054923D01*
X150962762Y-80064900D01*
X150925158Y-80097752D01*
X150902523Y-80157857D01*
X150892606Y-80249598D01*
X150891692Y-80300042D01*
X150703904Y-80300042D01*
X150704222Y-80282060D01*
X150706873Y-80194679D01*
G37*
X150706873Y-80194679D02*
X150710606Y-80130905D01*
X150715907Y-80085582D01*
X150723258Y-80053555D01*
X150733143Y-80029668D01*
X150746046Y-80008764D01*
X150751579Y-80000898D01*
X150824969Y-79926595D01*
X150917760Y-79884467D01*
X151025096Y-79872722D01*
X151118886Y-79884505D01*
X151193539Y-79921727D01*
X151259431Y-79990261D01*
X151277577Y-80015648D01*
X151297345Y-80048866D01*
X151310172Y-80084945D01*
X151317510Y-80133098D01*
X151320813Y-80202536D01*
X151321538Y-80294206D01*
X151318263Y-80419830D01*
X151306877Y-80514154D01*
X151285041Y-80584523D01*
X151250419Y-80638286D01*
X151200670Y-80682788D01*
X151197014Y-80685423D01*
X151147985Y-80712377D01*
X151088945Y-80725712D01*
X151013859Y-80729000D01*
X150891795Y-80729000D01*
X150891744Y-80847497D01*
X150890608Y-80913492D01*
X150883686Y-80952202D01*
X150865598Y-80975419D01*
X150830962Y-80994933D01*
X150822645Y-80998920D01*
X150783720Y-81017603D01*
X150753583Y-81029403D01*
X150731174Y-81030422D01*
X150715433Y-81016761D01*
X150705302Y-80984522D01*
X150699723Y-80929804D01*
X150697635Y-80848711D01*
X150697981Y-80737344D01*
X150699700Y-80591802D01*
X150700237Y-80548269D01*
X150702172Y-80398205D01*
X150703904Y-80300042D01*
X150891692Y-80300042D01*
X150892748Y-80383364D01*
X150897438Y-80437880D01*
X150908051Y-80473837D01*
X150926872Y-80501482D01*
X150939650Y-80514965D01*
X150991890Y-80554417D01*
X151038142Y-80557628D01*
X151085867Y-80525049D01*
X151087077Y-80523846D01*
X151106494Y-80498668D01*
X151118307Y-80464447D01*
X151124265Y-80411748D01*
X151126120Y-80331131D01*
X151126154Y-80313271D01*
X151121670Y-80202175D01*
X151107074Y-80125161D01*
X151080650Y-80078147D01*
X151040683Y-80057050D01*
X151017584Y-80054923D01*
X150962762Y-80064900D01*
X150925158Y-80097752D01*
X150902523Y-80157857D01*
X150892606Y-80249598D01*
X150891692Y-80300042D01*
X150703904Y-80300042D01*
X150704222Y-80282060D01*
X150706873Y-80194679D01*
G36*
X149957629Y-80137906D02*
G01*
X149964322Y-80089163D01*
X149975960Y-80053288D01*
X149993853Y-80021548D01*
X149997808Y-80015648D01*
X150064267Y-79936104D01*
X150136685Y-79889929D01*
X150224849Y-79871599D01*
X150254787Y-79870703D01*
X150366886Y-79887256D01*
X150458464Y-79935409D01*
X150526049Y-80012905D01*
X150550057Y-80062727D01*
X150568738Y-80137533D01*
X150578301Y-80232052D01*
X150579208Y-80335210D01*
X150571921Y-80435935D01*
X150556903Y-80523153D01*
X150534615Y-80585791D01*
X150527765Y-80596579D01*
X150446632Y-80677105D01*
X150350266Y-80725336D01*
X150245701Y-80739450D01*
X150139968Y-80717629D01*
X150110543Y-80704547D01*
X150053241Y-80664231D01*
X150002950Y-80610775D01*
X149998197Y-80603995D01*
X149978878Y-80571321D01*
X149966108Y-80536394D01*
X149958564Y-80490414D01*
X149954924Y-80424584D01*
X149953865Y-80330105D01*
X149953846Y-80308923D01*
X149953894Y-80302182D01*
X150149231Y-80302182D01*
X150150368Y-80391349D01*
X150154841Y-80450520D01*
X150164246Y-80488741D01*
X150180176Y-80515053D01*
X150188308Y-80523846D01*
X150235058Y-80557261D01*
X150280447Y-80555737D01*
X150326340Y-80526752D01*
X150353712Y-80495809D01*
X150369923Y-80450643D01*
X150379026Y-80379420D01*
X150379651Y-80371114D01*
X150381204Y-80242037D01*
X150364965Y-80146172D01*
X150331152Y-80084107D01*
X150279984Y-80056432D01*
X150261720Y-80054923D01*
X150213760Y-80062513D01*
X150180953Y-80088808D01*
X150160895Y-80139095D01*
X150151178Y-80218664D01*
X150149231Y-80302182D01*
X149953894Y-80302182D01*
X149954574Y-80208249D01*
X149957629Y-80137906D01*
G37*
X149957629Y-80137906D02*
X149964322Y-80089163D01*
X149975960Y-80053288D01*
X149993853Y-80021548D01*
X149997808Y-80015648D01*
X150064267Y-79936104D01*
X150136685Y-79889929D01*
X150224849Y-79871599D01*
X150254787Y-79870703D01*
X150366886Y-79887256D01*
X150458464Y-79935409D01*
X150526049Y-80012905D01*
X150550057Y-80062727D01*
X150568738Y-80137533D01*
X150578301Y-80232052D01*
X150579208Y-80335210D01*
X150571921Y-80435935D01*
X150556903Y-80523153D01*
X150534615Y-80585791D01*
X150527765Y-80596579D01*
X150446632Y-80677105D01*
X150350266Y-80725336D01*
X150245701Y-80739450D01*
X150139968Y-80717629D01*
X150110543Y-80704547D01*
X150053241Y-80664231D01*
X150002950Y-80610775D01*
X149998197Y-80603995D01*
X149978878Y-80571321D01*
X149966108Y-80536394D01*
X149958564Y-80490414D01*
X149954924Y-80424584D01*
X149953865Y-80330105D01*
X149953846Y-80308923D01*
X149953894Y-80302182D01*
X150149231Y-80302182D01*
X150150368Y-80391349D01*
X150154841Y-80450520D01*
X150164246Y-80488741D01*
X150180176Y-80515053D01*
X150188308Y-80523846D01*
X150235058Y-80557261D01*
X150280447Y-80555737D01*
X150326340Y-80526752D01*
X150353712Y-80495809D01*
X150369923Y-80450643D01*
X150379026Y-80379420D01*
X150379651Y-80371114D01*
X150381204Y-80242037D01*
X150364965Y-80146172D01*
X150331152Y-80084107D01*
X150279984Y-80056432D01*
X150261720Y-80054923D01*
X150213760Y-80062513D01*
X150180953Y-80088808D01*
X150160895Y-80139095D01*
X150151178Y-80218664D01*
X150149231Y-80302182D01*
X149953894Y-80302182D01*
X149954574Y-80208249D01*
X149957629Y-80137906D01*
G36*
X154489878Y-73587776D02*
G01*
X154595612Y-73588355D01*
X154672132Y-73589922D01*
X154724372Y-73592972D01*
X154757263Y-73597996D01*
X154775737Y-73605489D01*
X154784727Y-73615944D01*
X154789163Y-73629853D01*
X154789594Y-73631654D01*
X154796333Y-73664145D01*
X154808808Y-73728252D01*
X154825719Y-73817151D01*
X154845771Y-73924019D01*
X154867664Y-74042033D01*
X154868429Y-74046178D01*
X154890359Y-74161831D01*
X154910877Y-74264014D01*
X154928659Y-74346598D01*
X154942381Y-74403456D01*
X154950718Y-74428458D01*
X154951116Y-74428901D01*
X154975677Y-74441110D01*
X155026315Y-74461456D01*
X155092095Y-74485545D01*
X155092461Y-74485674D01*
X155175317Y-74516818D01*
X155273000Y-74556491D01*
X155365077Y-74596381D01*
X155369434Y-74598353D01*
X155519407Y-74666420D01*
X155851498Y-74439639D01*
X155953374Y-74370504D01*
X156045657Y-74308697D01*
X156123003Y-74257733D01*
X156180064Y-74221127D01*
X156211495Y-74202394D01*
X156214479Y-74201004D01*
X156237321Y-74207190D01*
X156279982Y-74237035D01*
X156344128Y-74291947D01*
X156431421Y-74373334D01*
X156520535Y-74459922D01*
X156606441Y-74545247D01*
X156683327Y-74623108D01*
X156746564Y-74688697D01*
X156791523Y-74737205D01*
X156813576Y-74763825D01*
X156814396Y-74765195D01*
X156816834Y-74783463D01*
X156807650Y-74813295D01*
X156784574Y-74858721D01*
X156745337Y-74923770D01*
X156687670Y-75012470D01*
X156610795Y-75126657D01*
X156542570Y-75227162D01*
X156481582Y-75317303D01*
X156431356Y-75391849D01*
X156395416Y-75445565D01*
X156377287Y-75473218D01*
X156376146Y-75475095D01*
X156378359Y-75501590D01*
X156395138Y-75553086D01*
X156423142Y-75619851D01*
X156433122Y-75641172D01*
X156476672Y-75736159D01*
X156523134Y-75843937D01*
X156560877Y-75937192D01*
X156588073Y-76006406D01*
X156609675Y-76059006D01*
X156622158Y-76086497D01*
X156623709Y-76088616D01*
X156646668Y-76092124D01*
X156700786Y-76101738D01*
X156778868Y-76116089D01*
X156873719Y-76133807D01*
X156978143Y-76153525D01*
X157084944Y-76173874D01*
X157186926Y-76193486D01*
X157276894Y-76210991D01*
X157347653Y-76225022D01*
X157392006Y-76234209D01*
X157402885Y-76236807D01*
X157414122Y-76243218D01*
X157422605Y-76257697D01*
X157428714Y-76285133D01*
X157432832Y-76330411D01*
X157435341Y-76398420D01*
X157436621Y-76494047D01*
X157437054Y-76622180D01*
X157437077Y-76674701D01*
X157437077Y-77101845D01*
X157334500Y-77122091D01*
X157277431Y-77133070D01*
X157192269Y-77149095D01*
X157089372Y-77168233D01*
X156979096Y-77188551D01*
X156948615Y-77194132D01*
X156846855Y-77213917D01*
X156758205Y-77233373D01*
X156690108Y-77250697D01*
X156650004Y-77264088D01*
X156643323Y-77268079D01*
X156626919Y-77296342D01*
X156603399Y-77351109D01*
X156577316Y-77421588D01*
X156572142Y-77436769D01*
X156537956Y-77530896D01*
X156495523Y-77637101D01*
X156453997Y-77732473D01*
X156453792Y-77732916D01*
X156384640Y-77882525D01*
X156839512Y-78551617D01*
X156547500Y-78844116D01*
X156459180Y-78931170D01*
X156378625Y-79007909D01*
X156310360Y-79070237D01*
X156258908Y-79114056D01*
X156228794Y-79135270D01*
X156224474Y-79136616D01*
X156199111Y-79126016D01*
X156147358Y-79096547D01*
X156074868Y-79051705D01*
X155987294Y-78994984D01*
X155892612Y-78931462D01*
X155796516Y-78866668D01*
X155710837Y-78810287D01*
X155641016Y-78765788D01*
X155592494Y-78736639D01*
X155570782Y-78726308D01*
X155544293Y-78735050D01*
X155494062Y-78758087D01*
X155430451Y-78790631D01*
X155423708Y-78794249D01*
X155338046Y-78837210D01*
X155279306Y-78858279D01*
X155242772Y-78858503D01*
X155223731Y-78838928D01*
X155223620Y-78838654D01*
X155214102Y-78815472D01*
X155191403Y-78760441D01*
X155157282Y-78677822D01*
X155113500Y-78571872D01*
X155061816Y-78446852D01*
X155003992Y-78307020D01*
X154947991Y-78171637D01*
X154886447Y-78022234D01*
X154829939Y-77883832D01*
X154780161Y-77760673D01*
X154738806Y-77657002D01*
X154707568Y-77577059D01*
X154688141Y-77525088D01*
X154682154Y-77505692D01*
X154697168Y-77483443D01*
X154736439Y-77447982D01*
X154788807Y-77408887D01*
X154937941Y-77285245D01*
X155054511Y-77143522D01*
X155137118Y-76986704D01*
X155184366Y-76817775D01*
X155194857Y-76639722D01*
X155187231Y-76557539D01*
X155145682Y-76387031D01*
X155074123Y-76236459D01*
X154976995Y-76107309D01*
X154858734Y-76001064D01*
X154723780Y-75919210D01*
X154576571Y-75863232D01*
X154421544Y-75834615D01*
X154263139Y-75834844D01*
X154105794Y-75865405D01*
X153953946Y-75927782D01*
X153812035Y-76023460D01*
X153752803Y-76077572D01*
X153639203Y-76216520D01*
X153560106Y-76368361D01*
X153514986Y-76528667D01*
X153503316Y-76693012D01*
X153524569Y-76856971D01*
X153578220Y-77016118D01*
X153663740Y-77166025D01*
X153780605Y-77302267D01*
X153911193Y-77408887D01*
X153965588Y-77449642D01*
X154004014Y-77484718D01*
X154017846Y-77505726D01*
X154010603Y-77528635D01*
X153990005Y-77583365D01*
X153957746Y-77665672D01*
X153915521Y-77771315D01*
X153865023Y-77896050D01*
X153807948Y-78035636D01*
X153751854Y-78171670D01*
X153689967Y-78321201D01*
X153632644Y-78459767D01*
X153581644Y-78583107D01*
X153538727Y-78686964D01*
X153505653Y-78767080D01*
X153484181Y-78819195D01*
X153476225Y-78838654D01*
X153457429Y-78858423D01*
X153421074Y-78858365D01*
X153362479Y-78837441D01*
X153276968Y-78794613D01*
X153276292Y-78794249D01*
X153211907Y-78761012D01*
X153159861Y-78736802D01*
X153130512Y-78726404D01*
X153129217Y-78726308D01*
X153107124Y-78736855D01*
X153058348Y-78766184D01*
X152988331Y-78810827D01*
X152902514Y-78867314D01*
X152807388Y-78931462D01*
X152710540Y-78996411D01*
X152623253Y-79052896D01*
X152551181Y-79097421D01*
X152499977Y-79126490D01*
X152475526Y-79136616D01*
X152453010Y-79123307D01*
X152407742Y-79086112D01*
X152344244Y-79029128D01*
X152267039Y-78956449D01*
X152180651Y-78872171D01*
X152152399Y-78844016D01*
X151860287Y-78551416D01*
X152082631Y-78225104D01*
X152150202Y-78124897D01*
X152209507Y-78034963D01*
X152257217Y-77960510D01*
X152290007Y-77906751D01*
X152304548Y-77878894D01*
X152304974Y-77876912D01*
X152297308Y-77850655D01*
X152276689Y-77797837D01*
X152246685Y-77727310D01*
X152225625Y-77680093D01*
X152186248Y-77589694D01*
X152149165Y-77498366D01*
X152120415Y-77421200D01*
X152112605Y-77397692D01*
X152090417Y-77334916D01*
X152068727Y-77286411D01*
X152056813Y-77268079D01*
X152030523Y-77256859D01*
X151973142Y-77240954D01*
X151892118Y-77222167D01*
X151794895Y-77202299D01*
X151751385Y-77194132D01*
X151640896Y-77173829D01*
X151534916Y-77154170D01*
X151443801Y-77137088D01*
X151377908Y-77124518D01*
X151365500Y-77122091D01*
X151262923Y-77101845D01*
X151262923Y-76674701D01*
X151263153Y-76534246D01*
X151264099Y-76427979D01*
X151266141Y-76351013D01*
X151269662Y-76298460D01*
X151275043Y-76265433D01*
X151282666Y-76247045D01*
X151292912Y-76238408D01*
X151297115Y-76236807D01*
X151322470Y-76231127D01*
X151378484Y-76219795D01*
X151457964Y-76204179D01*
X151553712Y-76185647D01*
X151658533Y-76165569D01*
X151765232Y-76145312D01*
X151866613Y-76126246D01*
X151955479Y-76109739D01*
X152024637Y-76097159D01*
X152066889Y-76089875D01*
X152076290Y-76088616D01*
X152084807Y-76071763D01*
X152103660Y-76026870D01*
X152129324Y-75962430D01*
X152139123Y-75937192D01*
X152178648Y-75839686D01*
X152225192Y-75731959D01*
X152266877Y-75641172D01*
X152297550Y-75571753D01*
X152317956Y-75514710D01*
X152324768Y-75479777D01*
X152323682Y-75475095D01*
X152309285Y-75452991D01*
X152276412Y-75403831D01*
X152228590Y-75332848D01*
X152169348Y-75245278D01*
X152102215Y-75146357D01*
X152088941Y-75126830D01*
X152011046Y-75011140D01*
X151953787Y-74923044D01*
X151914881Y-74858486D01*
X151892044Y-74813411D01*
X151882994Y-74783763D01*
X151885448Y-74765485D01*
X151885511Y-74765369D01*
X151904827Y-74741361D01*
X151947551Y-74694947D01*
X152009051Y-74630937D01*
X152084698Y-74554145D01*
X152169861Y-74469382D01*
X152179465Y-74459922D01*
X152286790Y-74355989D01*
X152369615Y-74279675D01*
X152429605Y-74229571D01*
X152468423Y-74204270D01*
X152485520Y-74201004D01*
X152510473Y-74215250D01*
X152562255Y-74248156D01*
X152635520Y-74296208D01*
X152724920Y-74355890D01*
X152825111Y-74423688D01*
X152848501Y-74439639D01*
X153180593Y-74666420D01*
X153330565Y-74598353D01*
X153421770Y-74558685D01*
X153519669Y-74518791D01*
X153603831Y-74486983D01*
X153607538Y-74485674D01*
X153673369Y-74461576D01*
X153724116Y-74441200D01*
X153748842Y-74428936D01*
X153748884Y-74428901D01*
X153756729Y-74406734D01*
X153770066Y-74352217D01*
X153787570Y-74271480D01*
X153807917Y-74170650D01*
X153829782Y-74055856D01*
X153831571Y-74046178D01*
X153853504Y-73927904D01*
X153873640Y-73820542D01*
X153890680Y-73730917D01*
X153903328Y-73665851D01*
X153910284Y-73632168D01*
X153910406Y-73631654D01*
X153914639Y-73617325D01*
X153922871Y-73606507D01*
X153940033Y-73598706D01*
X153971058Y-73593429D01*
X154020878Y-73590182D01*
X154094424Y-73588472D01*
X154196629Y-73587807D01*
X154332425Y-73587693D01*
X154350000Y-73587692D01*
X154489878Y-73587776D01*
G37*
X154489878Y-73587776D02*
X154595612Y-73588355D01*
X154672132Y-73589922D01*
X154724372Y-73592972D01*
X154757263Y-73597996D01*
X154775737Y-73605489D01*
X154784727Y-73615944D01*
X154789163Y-73629853D01*
X154789594Y-73631654D01*
X154796333Y-73664145D01*
X154808808Y-73728252D01*
X154825719Y-73817151D01*
X154845771Y-73924019D01*
X154867664Y-74042033D01*
X154868429Y-74046178D01*
X154890359Y-74161831D01*
X154910877Y-74264014D01*
X154928659Y-74346598D01*
X154942381Y-74403456D01*
X154950718Y-74428458D01*
X154951116Y-74428901D01*
X154975677Y-74441110D01*
X155026315Y-74461456D01*
X155092095Y-74485545D01*
X155092461Y-74485674D01*
X155175317Y-74516818D01*
X155273000Y-74556491D01*
X155365077Y-74596381D01*
X155369434Y-74598353D01*
X155519407Y-74666420D01*
X155851498Y-74439639D01*
X155953374Y-74370504D01*
X156045657Y-74308697D01*
X156123003Y-74257733D01*
X156180064Y-74221127D01*
X156211495Y-74202394D01*
X156214479Y-74201004D01*
X156237321Y-74207190D01*
X156279982Y-74237035D01*
X156344128Y-74291947D01*
X156431421Y-74373334D01*
X156520535Y-74459922D01*
X156606441Y-74545247D01*
X156683327Y-74623108D01*
X156746564Y-74688697D01*
X156791523Y-74737205D01*
X156813576Y-74763825D01*
X156814396Y-74765195D01*
X156816834Y-74783463D01*
X156807650Y-74813295D01*
X156784574Y-74858721D01*
X156745337Y-74923770D01*
X156687670Y-75012470D01*
X156610795Y-75126657D01*
X156542570Y-75227162D01*
X156481582Y-75317303D01*
X156431356Y-75391849D01*
X156395416Y-75445565D01*
X156377287Y-75473218D01*
X156376146Y-75475095D01*
X156378359Y-75501590D01*
X156395138Y-75553086D01*
X156423142Y-75619851D01*
X156433122Y-75641172D01*
X156476672Y-75736159D01*
X156523134Y-75843937D01*
X156560877Y-75937192D01*
X156588073Y-76006406D01*
X156609675Y-76059006D01*
X156622158Y-76086497D01*
X156623709Y-76088616D01*
X156646668Y-76092124D01*
X156700786Y-76101738D01*
X156778868Y-76116089D01*
X156873719Y-76133807D01*
X156978143Y-76153525D01*
X157084944Y-76173874D01*
X157186926Y-76193486D01*
X157276894Y-76210991D01*
X157347653Y-76225022D01*
X157392006Y-76234209D01*
X157402885Y-76236807D01*
X157414122Y-76243218D01*
X157422605Y-76257697D01*
X157428714Y-76285133D01*
X157432832Y-76330411D01*
X157435341Y-76398420D01*
X157436621Y-76494047D01*
X157437054Y-76622180D01*
X157437077Y-76674701D01*
X157437077Y-77101845D01*
X157334500Y-77122091D01*
X157277431Y-77133070D01*
X157192269Y-77149095D01*
X157089372Y-77168233D01*
X156979096Y-77188551D01*
X156948615Y-77194132D01*
X156846855Y-77213917D01*
X156758205Y-77233373D01*
X156690108Y-77250697D01*
X156650004Y-77264088D01*
X156643323Y-77268079D01*
X156626919Y-77296342D01*
X156603399Y-77351109D01*
X156577316Y-77421588D01*
X156572142Y-77436769D01*
X156537956Y-77530896D01*
X156495523Y-77637101D01*
X156453997Y-77732473D01*
X156453792Y-77732916D01*
X156384640Y-77882525D01*
X156839512Y-78551617D01*
X156547500Y-78844116D01*
X156459180Y-78931170D01*
X156378625Y-79007909D01*
X156310360Y-79070237D01*
X156258908Y-79114056D01*
X156228794Y-79135270D01*
X156224474Y-79136616D01*
X156199111Y-79126016D01*
X156147358Y-79096547D01*
X156074868Y-79051705D01*
X155987294Y-78994984D01*
X155892612Y-78931462D01*
X155796516Y-78866668D01*
X155710837Y-78810287D01*
X155641016Y-78765788D01*
X155592494Y-78736639D01*
X155570782Y-78726308D01*
X155544293Y-78735050D01*
X155494062Y-78758087D01*
X155430451Y-78790631D01*
X155423708Y-78794249D01*
X155338046Y-78837210D01*
X155279306Y-78858279D01*
X155242772Y-78858503D01*
X155223731Y-78838928D01*
X155223620Y-78838654D01*
X155214102Y-78815472D01*
X155191403Y-78760441D01*
X155157282Y-78677822D01*
X155113500Y-78571872D01*
X155061816Y-78446852D01*
X155003992Y-78307020D01*
X154947991Y-78171637D01*
X154886447Y-78022234D01*
X154829939Y-77883832D01*
X154780161Y-77760673D01*
X154738806Y-77657002D01*
X154707568Y-77577059D01*
X154688141Y-77525088D01*
X154682154Y-77505692D01*
X154697168Y-77483443D01*
X154736439Y-77447982D01*
X154788807Y-77408887D01*
X154937941Y-77285245D01*
X155054511Y-77143522D01*
X155137118Y-76986704D01*
X155184366Y-76817775D01*
X155194857Y-76639722D01*
X155187231Y-76557539D01*
X155145682Y-76387031D01*
X155074123Y-76236459D01*
X154976995Y-76107309D01*
X154858734Y-76001064D01*
X154723780Y-75919210D01*
X154576571Y-75863232D01*
X154421544Y-75834615D01*
X154263139Y-75834844D01*
X154105794Y-75865405D01*
X153953946Y-75927782D01*
X153812035Y-76023460D01*
X153752803Y-76077572D01*
X153639203Y-76216520D01*
X153560106Y-76368361D01*
X153514986Y-76528667D01*
X153503316Y-76693012D01*
X153524569Y-76856971D01*
X153578220Y-77016118D01*
X153663740Y-77166025D01*
X153780605Y-77302267D01*
X153911193Y-77408887D01*
X153965588Y-77449642D01*
X154004014Y-77484718D01*
X154017846Y-77505726D01*
X154010603Y-77528635D01*
X153990005Y-77583365D01*
X153957746Y-77665672D01*
X153915521Y-77771315D01*
X153865023Y-77896050D01*
X153807948Y-78035636D01*
X153751854Y-78171670D01*
X153689967Y-78321201D01*
X153632644Y-78459767D01*
X153581644Y-78583107D01*
X153538727Y-78686964D01*
X153505653Y-78767080D01*
X153484181Y-78819195D01*
X153476225Y-78838654D01*
X153457429Y-78858423D01*
X153421074Y-78858365D01*
X153362479Y-78837441D01*
X153276968Y-78794613D01*
X153276292Y-78794249D01*
X153211907Y-78761012D01*
X153159861Y-78736802D01*
X153130512Y-78726404D01*
X153129217Y-78726308D01*
X153107124Y-78736855D01*
X153058348Y-78766184D01*
X152988331Y-78810827D01*
X152902514Y-78867314D01*
X152807388Y-78931462D01*
X152710540Y-78996411D01*
X152623253Y-79052896D01*
X152551181Y-79097421D01*
X152499977Y-79126490D01*
X152475526Y-79136616D01*
X152453010Y-79123307D01*
X152407742Y-79086112D01*
X152344244Y-79029128D01*
X152267039Y-78956449D01*
X152180651Y-78872171D01*
X152152399Y-78844016D01*
X151860287Y-78551416D01*
X152082631Y-78225104D01*
X152150202Y-78124897D01*
X152209507Y-78034963D01*
X152257217Y-77960510D01*
X152290007Y-77906751D01*
X152304548Y-77878894D01*
X152304974Y-77876912D01*
X152297308Y-77850655D01*
X152276689Y-77797837D01*
X152246685Y-77727310D01*
X152225625Y-77680093D01*
X152186248Y-77589694D01*
X152149165Y-77498366D01*
X152120415Y-77421200D01*
X152112605Y-77397692D01*
X152090417Y-77334916D01*
X152068727Y-77286411D01*
X152056813Y-77268079D01*
X152030523Y-77256859D01*
X151973142Y-77240954D01*
X151892118Y-77222167D01*
X151794895Y-77202299D01*
X151751385Y-77194132D01*
X151640896Y-77173829D01*
X151534916Y-77154170D01*
X151443801Y-77137088D01*
X151377908Y-77124518D01*
X151365500Y-77122091D01*
X151262923Y-77101845D01*
X151262923Y-76674701D01*
X151263153Y-76534246D01*
X151264099Y-76427979D01*
X151266141Y-76351013D01*
X151269662Y-76298460D01*
X151275043Y-76265433D01*
X151282666Y-76247045D01*
X151292912Y-76238408D01*
X151297115Y-76236807D01*
X151322470Y-76231127D01*
X151378484Y-76219795D01*
X151457964Y-76204179D01*
X151553712Y-76185647D01*
X151658533Y-76165569D01*
X151765232Y-76145312D01*
X151866613Y-76126246D01*
X151955479Y-76109739D01*
X152024637Y-76097159D01*
X152066889Y-76089875D01*
X152076290Y-76088616D01*
X152084807Y-76071763D01*
X152103660Y-76026870D01*
X152129324Y-75962430D01*
X152139123Y-75937192D01*
X152178648Y-75839686D01*
X152225192Y-75731959D01*
X152266877Y-75641172D01*
X152297550Y-75571753D01*
X152317956Y-75514710D01*
X152324768Y-75479777D01*
X152323682Y-75475095D01*
X152309285Y-75452991D01*
X152276412Y-75403831D01*
X152228590Y-75332848D01*
X152169348Y-75245278D01*
X152102215Y-75146357D01*
X152088941Y-75126830D01*
X152011046Y-75011140D01*
X151953787Y-74923044D01*
X151914881Y-74858486D01*
X151892044Y-74813411D01*
X151882994Y-74783763D01*
X151885448Y-74765485D01*
X151885511Y-74765369D01*
X151904827Y-74741361D01*
X151947551Y-74694947D01*
X152009051Y-74630937D01*
X152084698Y-74554145D01*
X152169861Y-74469382D01*
X152179465Y-74459922D01*
X152286790Y-74355989D01*
X152369615Y-74279675D01*
X152429605Y-74229571D01*
X152468423Y-74204270D01*
X152485520Y-74201004D01*
X152510473Y-74215250D01*
X152562255Y-74248156D01*
X152635520Y-74296208D01*
X152724920Y-74355890D01*
X152825111Y-74423688D01*
X152848501Y-74439639D01*
X153180593Y-74666420D01*
X153330565Y-74598353D01*
X153421770Y-74558685D01*
X153519669Y-74518791D01*
X153603831Y-74486983D01*
X153607538Y-74485674D01*
X153673369Y-74461576D01*
X153724116Y-74441200D01*
X153748842Y-74428936D01*
X153748884Y-74428901D01*
X153756729Y-74406734D01*
X153770066Y-74352217D01*
X153787570Y-74271480D01*
X153807917Y-74170650D01*
X153829782Y-74055856D01*
X153831571Y-74046178D01*
X153853504Y-73927904D01*
X153873640Y-73820542D01*
X153890680Y-73730917D01*
X153903328Y-73665851D01*
X153910284Y-73632168D01*
X153910406Y-73631654D01*
X153914639Y-73617325D01*
X153922871Y-73606507D01*
X153940033Y-73598706D01*
X153971058Y-73593429D01*
X154020878Y-73590182D01*
X154094424Y-73588472D01*
X154196629Y-73587807D01*
X154332425Y-73587693D01*
X154350000Y-73587692D01*
X154489878Y-73587776D01*
G36*
X156745929Y-79936662D02*
G01*
X156748911Y-79988068D01*
X156751247Y-80066192D01*
X156752749Y-80164857D01*
X156753231Y-80268343D01*
X156753231Y-80618533D01*
X156691401Y-80680363D01*
X156648793Y-80718462D01*
X156611390Y-80733895D01*
X156560270Y-80732918D01*
X156539978Y-80730433D01*
X156476554Y-80723200D01*
X156424095Y-80719055D01*
X156411308Y-80718672D01*
X156368199Y-80721176D01*
X156306544Y-80727462D01*
X156282638Y-80730433D01*
X156223922Y-80735028D01*
X156184464Y-80725046D01*
X156145338Y-80694228D01*
X156131215Y-80680363D01*
X156069385Y-80618533D01*
X156069385Y-79963503D01*
X156119150Y-79940829D01*
X156162002Y-79924034D01*
X156187073Y-79918154D01*
X156193501Y-79936736D01*
X156199509Y-79988655D01*
X156204697Y-80068172D01*
X156208664Y-80169546D01*
X156210577Y-80255192D01*
X156215923Y-80592231D01*
X156262560Y-80598825D01*
X156304976Y-80594214D01*
X156325760Y-80579287D01*
X156331570Y-80551377D01*
X156336530Y-80491925D01*
X156340246Y-80408466D01*
X156342324Y-80308532D01*
X156342624Y-80257104D01*
X156342923Y-79961054D01*
X156404454Y-79939604D01*
X156448004Y-79925020D01*
X156471694Y-79918219D01*
X156472377Y-79918154D01*
X156474754Y-79936642D01*
X156477366Y-79987906D01*
X156479995Y-80065649D01*
X156482421Y-80163574D01*
X156484115Y-80255192D01*
X156489461Y-80592231D01*
X156606692Y-80592231D01*
X156612072Y-80284746D01*
X156617451Y-79977261D01*
X156674601Y-79947707D01*
X156716797Y-79927413D01*
X156741770Y-79918204D01*
X156742491Y-79918154D01*
X156745929Y-79936662D01*
G37*
X156745929Y-79936662D02*
X156748911Y-79988068D01*
X156751247Y-80066192D01*
X156752749Y-80164857D01*
X156753231Y-80268343D01*
X156753231Y-80618533D01*
X156691401Y-80680363D01*
X156648793Y-80718462D01*
X156611390Y-80733895D01*
X156560270Y-80732918D01*
X156539978Y-80730433D01*
X156476554Y-80723200D01*
X156424095Y-80719055D01*
X156411308Y-80718672D01*
X156368199Y-80721176D01*
X156306544Y-80727462D01*
X156282638Y-80730433D01*
X156223922Y-80735028D01*
X156184464Y-80725046D01*
X156145338Y-80694228D01*
X156131215Y-80680363D01*
X156069385Y-80618533D01*
X156069385Y-79963503D01*
X156119150Y-79940829D01*
X156162002Y-79924034D01*
X156187073Y-79918154D01*
X156193501Y-79936736D01*
X156199509Y-79988655D01*
X156204697Y-80068172D01*
X156208664Y-80169546D01*
X156210577Y-80255192D01*
X156215923Y-80592231D01*
X156262560Y-80598825D01*
X156304976Y-80594214D01*
X156325760Y-80579287D01*
X156331570Y-80551377D01*
X156336530Y-80491925D01*
X156340246Y-80408466D01*
X156342324Y-80308532D01*
X156342624Y-80257104D01*
X156342923Y-79961054D01*
X156404454Y-79939604D01*
X156448004Y-79925020D01*
X156471694Y-79918219D01*
X156472377Y-79918154D01*
X156474754Y-79936642D01*
X156477366Y-79987906D01*
X156479995Y-80065649D01*
X156482421Y-80163574D01*
X156484115Y-80255192D01*
X156489461Y-80592231D01*
X156606692Y-80592231D01*
X156612072Y-80284746D01*
X156617451Y-79977261D01*
X156674601Y-79947707D01*
X156716797Y-79927413D01*
X156741770Y-79918204D01*
X156742491Y-79918154D01*
X156745929Y-79936662D01*
G36*
X157237333Y-79933528D02*
G01*
X157293590Y-79959117D01*
X157337747Y-79990124D01*
X157370101Y-80024795D01*
X157392438Y-80069520D01*
X157406546Y-80130692D01*
X157414211Y-80214701D01*
X157417220Y-80327940D01*
X157417538Y-80402509D01*
X157417538Y-80693420D01*
X157367773Y-80716095D01*
X157328576Y-80732667D01*
X157309157Y-80738769D01*
X157305442Y-80720610D01*
X157302495Y-80671648D01*
X157300691Y-80600153D01*
X157300308Y-80543385D01*
X157298661Y-80461371D01*
X157294222Y-80396309D01*
X157287740Y-80356467D01*
X157282590Y-80348000D01*
X157247977Y-80356646D01*
X157193640Y-80378823D01*
X157130722Y-80408886D01*
X157070368Y-80441192D01*
X157023721Y-80470098D01*
X157001926Y-80489961D01*
X157001839Y-80490175D01*
X157003714Y-80526935D01*
X157020525Y-80562026D01*
X157050039Y-80590528D01*
X157093116Y-80600061D01*
X157129932Y-80598950D01*
X157182074Y-80598133D01*
X157209444Y-80610349D01*
X157225882Y-80642624D01*
X157227955Y-80648710D01*
X157235081Y-80694739D01*
X157216024Y-80722687D01*
X157166353Y-80736007D01*
X157112697Y-80738470D01*
X157016142Y-80720210D01*
X156966159Y-80694131D01*
X156904429Y-80632868D01*
X156871690Y-80557670D01*
X156868753Y-80478211D01*
X156896424Y-80404167D01*
X156938047Y-80357769D01*
X156979604Y-80331793D01*
X157044922Y-80298907D01*
X157121038Y-80265557D01*
X157133726Y-80260461D01*
X157217333Y-80223565D01*
X157265530Y-80191046D01*
X157281030Y-80158718D01*
X157266550Y-80122394D01*
X157241692Y-80094000D01*
X157182939Y-80059039D01*
X157118293Y-80056417D01*
X157059008Y-80083358D01*
X157016339Y-80137088D01*
X157010739Y-80150950D01*
X156978133Y-80201936D01*
X156930530Y-80239787D01*
X156870461Y-80270850D01*
X156870461Y-80182768D01*
X156873997Y-80128951D01*
X156889156Y-80086534D01*
X156922768Y-80041279D01*
X156955035Y-80006420D01*
X157005209Y-79957062D01*
X157044193Y-79930547D01*
X157086064Y-79919911D01*
X157133460Y-79918154D01*
X157237333Y-79933528D01*
G37*
X157237333Y-79933528D02*
X157293590Y-79959117D01*
X157337747Y-79990124D01*
X157370101Y-80024795D01*
X157392438Y-80069520D01*
X157406546Y-80130692D01*
X157414211Y-80214701D01*
X157417220Y-80327940D01*
X157417538Y-80402509D01*
X157417538Y-80693420D01*
X157367773Y-80716095D01*
X157328576Y-80732667D01*
X157309157Y-80738769D01*
X157305442Y-80720610D01*
X157302495Y-80671648D01*
X157300691Y-80600153D01*
X157300308Y-80543385D01*
X157298661Y-80461371D01*
X157294222Y-80396309D01*
X157287740Y-80356467D01*
X157282590Y-80348000D01*
X157247977Y-80356646D01*
X157193640Y-80378823D01*
X157130722Y-80408886D01*
X157070368Y-80441192D01*
X157023721Y-80470098D01*
X157001926Y-80489961D01*
X157001839Y-80490175D01*
X157003714Y-80526935D01*
X157020525Y-80562026D01*
X157050039Y-80590528D01*
X157093116Y-80600061D01*
X157129932Y-80598950D01*
X157182074Y-80598133D01*
X157209444Y-80610349D01*
X157225882Y-80642624D01*
X157227955Y-80648710D01*
X157235081Y-80694739D01*
X157216024Y-80722687D01*
X157166353Y-80736007D01*
X157112697Y-80738470D01*
X157016142Y-80720210D01*
X156966159Y-80694131D01*
X156904429Y-80632868D01*
X156871690Y-80557670D01*
X156868753Y-80478211D01*
X156896424Y-80404167D01*
X156938047Y-80357769D01*
X156979604Y-80331793D01*
X157044922Y-80298907D01*
X157121038Y-80265557D01*
X157133726Y-80260461D01*
X157217333Y-80223565D01*
X157265530Y-80191046D01*
X157281030Y-80158718D01*
X157266550Y-80122394D01*
X157241692Y-80094000D01*
X157182939Y-80059039D01*
X157118293Y-80056417D01*
X157059008Y-80083358D01*
X157016339Y-80137088D01*
X157010739Y-80150950D01*
X156978133Y-80201936D01*
X156930530Y-80239787D01*
X156870461Y-80270850D01*
X156870461Y-80182768D01*
X156873997Y-80128951D01*
X156889156Y-80086534D01*
X156922768Y-80041279D01*
X156955035Y-80006420D01*
X157005209Y-79957062D01*
X157044193Y-79930547D01*
X157086064Y-79919911D01*
X157133460Y-79918154D01*
X157237333Y-79933528D01*
G36*
X151484778Y-80041055D02*
G01*
X151530421Y-79975215D01*
X151612802Y-79908681D01*
X151703546Y-79875676D01*
X151796185Y-79873573D01*
X151884254Y-79899745D01*
X151961286Y-79951567D01*
X152020816Y-80026412D01*
X152056378Y-80121654D01*
X152063571Y-80191756D01*
X152062754Y-80221009D01*
X152055914Y-80243407D01*
X152037112Y-80263474D01*
X152000408Y-80285733D01*
X151939862Y-80314709D01*
X151849534Y-80354927D01*
X151849077Y-80355129D01*
X151765933Y-80393210D01*
X151697753Y-80427025D01*
X151651505Y-80452933D01*
X151634158Y-80467295D01*
X151634154Y-80467411D01*
X151649443Y-80498685D01*
X151685196Y-80533157D01*
X151726242Y-80557990D01*
X151747037Y-80562923D01*
X151803770Y-80545862D01*
X151852627Y-80503133D01*
X151876465Y-80456155D01*
X151899397Y-80421522D01*
X151944318Y-80382081D01*
X151997123Y-80348009D01*
X152043710Y-80329480D01*
X152053452Y-80328462D01*
X152064418Y-80345215D01*
X152065079Y-80388039D01*
X152057020Y-80445781D01*
X152041827Y-80507289D01*
X152021086Y-80561409D01*
X152020038Y-80563510D01*
X151957621Y-80650660D01*
X151876726Y-80709939D01*
X151784856Y-80739034D01*
X151689513Y-80735634D01*
X151598198Y-80697428D01*
X151594138Y-80694741D01*
X151522306Y-80629642D01*
X151475073Y-80544705D01*
X151448934Y-80433021D01*
X151445426Y-80401643D01*
X151439213Y-80253536D01*
X151446661Y-80184468D01*
X151634154Y-80184468D01*
X151636590Y-80227552D01*
X151649914Y-80240126D01*
X151683132Y-80230719D01*
X151735494Y-80208483D01*
X151794024Y-80180610D01*
X151795479Y-80179872D01*
X151845089Y-80153777D01*
X151865000Y-80136363D01*
X151860090Y-80118107D01*
X151839416Y-80094120D01*
X151786819Y-80059406D01*
X151730177Y-80056856D01*
X151679369Y-80082119D01*
X151644276Y-80130847D01*
X151634154Y-80184468D01*
X151446661Y-80184468D01*
X151451992Y-80135036D01*
X151484778Y-80041055D01*
G37*
X151484778Y-80041055D02*
X151530421Y-79975215D01*
X151612802Y-79908681D01*
X151703546Y-79875676D01*
X151796185Y-79873573D01*
X151884254Y-79899745D01*
X151961286Y-79951567D01*
X152020816Y-80026412D01*
X152056378Y-80121654D01*
X152063571Y-80191756D01*
X152062754Y-80221009D01*
X152055914Y-80243407D01*
X152037112Y-80263474D01*
X152000408Y-80285733D01*
X151939862Y-80314709D01*
X151849534Y-80354927D01*
X151849077Y-80355129D01*
X151765933Y-80393210D01*
X151697753Y-80427025D01*
X151651505Y-80452933D01*
X151634158Y-80467295D01*
X151634154Y-80467411D01*
X151649443Y-80498685D01*
X151685196Y-80533157D01*
X151726242Y-80557990D01*
X151747037Y-80562923D01*
X151803770Y-80545862D01*
X151852627Y-80503133D01*
X151876465Y-80456155D01*
X151899397Y-80421522D01*
X151944318Y-80382081D01*
X151997123Y-80348009D01*
X152043710Y-80329480D01*
X152053452Y-80328462D01*
X152064418Y-80345215D01*
X152065079Y-80388039D01*
X152057020Y-80445781D01*
X152041827Y-80507289D01*
X152021086Y-80561409D01*
X152020038Y-80563510D01*
X151957621Y-80650660D01*
X151876726Y-80709939D01*
X151784856Y-80739034D01*
X151689513Y-80735634D01*
X151598198Y-80697428D01*
X151594138Y-80694741D01*
X151522306Y-80629642D01*
X151475073Y-80544705D01*
X151448934Y-80433021D01*
X151445426Y-80401643D01*
X151439213Y-80253536D01*
X151446661Y-80184468D01*
X151634154Y-80184468D01*
X151636590Y-80227552D01*
X151649914Y-80240126D01*
X151683132Y-80230719D01*
X151735494Y-80208483D01*
X151794024Y-80180610D01*
X151795479Y-80179872D01*
X151845089Y-80153777D01*
X151865000Y-80136363D01*
X151860090Y-80118107D01*
X151839416Y-80094120D01*
X151786819Y-80059406D01*
X151730177Y-80056856D01*
X151679369Y-80082119D01*
X151644276Y-80130847D01*
X151634154Y-80184468D01*
X151446661Y-80184468D01*
X151451992Y-80135036D01*
X151484778Y-80041055D01*
G36*
X155063362Y-79924670D02*
G01*
X155152117Y-79957421D01*
X155224022Y-80015350D01*
X155252144Y-80056128D01*
X155282802Y-80130954D01*
X155282165Y-80185058D01*
X155249987Y-80221446D01*
X155238081Y-80227633D01*
X155186675Y-80246925D01*
X155160422Y-80241982D01*
X155151530Y-80209587D01*
X155151077Y-80191692D01*
X155134797Y-80125859D01*
X155092365Y-80079807D01*
X155033388Y-80057564D01*
X154967475Y-80063161D01*
X154913895Y-80092229D01*
X154895798Y-80108810D01*
X154882971Y-80128925D01*
X154874306Y-80159332D01*
X154868696Y-80206788D01*
X154865035Y-80278050D01*
X154862215Y-80379875D01*
X154861484Y-80412115D01*
X154858820Y-80522410D01*
X154855792Y-80600036D01*
X154851250Y-80651396D01*
X154844046Y-80682890D01*
X154833033Y-80700920D01*
X154817060Y-80711888D01*
X154806834Y-80716733D01*
X154763406Y-80733301D01*
X154737842Y-80738769D01*
X154729395Y-80720507D01*
X154724239Y-80665296D01*
X154722346Y-80572499D01*
X154723689Y-80441478D01*
X154724107Y-80421269D01*
X154727058Y-80301733D01*
X154730548Y-80214449D01*
X154735514Y-80152591D01*
X154742893Y-80109336D01*
X154753624Y-80077860D01*
X154768645Y-80051339D01*
X154776502Y-80039975D01*
X154821553Y-79989692D01*
X154871940Y-79950581D01*
X154878108Y-79947167D01*
X154968458Y-79920212D01*
X155063362Y-79924670D01*
G37*
X155063362Y-79924670D02*
X155152117Y-79957421D01*
X155224022Y-80015350D01*
X155252144Y-80056128D01*
X155282802Y-80130954D01*
X155282165Y-80185058D01*
X155249987Y-80221446D01*
X155238081Y-80227633D01*
X155186675Y-80246925D01*
X155160422Y-80241982D01*
X155151530Y-80209587D01*
X155151077Y-80191692D01*
X155134797Y-80125859D01*
X155092365Y-80079807D01*
X155033388Y-80057564D01*
X154967475Y-80063161D01*
X154913895Y-80092229D01*
X154895798Y-80108810D01*
X154882971Y-80128925D01*
X154874306Y-80159332D01*
X154868696Y-80206788D01*
X154865035Y-80278050D01*
X154862215Y-80379875D01*
X154861484Y-80412115D01*
X154858820Y-80522410D01*
X154855792Y-80600036D01*
X154851250Y-80651396D01*
X154844046Y-80682890D01*
X154833033Y-80700920D01*
X154817060Y-80711888D01*
X154806834Y-80716733D01*
X154763406Y-80733301D01*
X154737842Y-80738769D01*
X154729395Y-80720507D01*
X154724239Y-80665296D01*
X154722346Y-80572499D01*
X154723689Y-80441478D01*
X154724107Y-80421269D01*
X154727058Y-80301733D01*
X154730548Y-80214449D01*
X154735514Y-80152591D01*
X154742893Y-80109336D01*
X154753624Y-80077860D01*
X154768645Y-80051339D01*
X154776502Y-80039975D01*
X154821553Y-79989692D01*
X154871940Y-79950581D01*
X154878108Y-79947167D01*
X154968458Y-79920212D01*
X155063362Y-79924670D01*
G36*
X157920807Y-79936782D02*
G01*
X157944161Y-79946988D01*
X157999902Y-79991134D01*
X158047569Y-80054967D01*
X158077048Y-80123087D01*
X158081846Y-80156670D01*
X158065760Y-80203556D01*
X158030475Y-80228365D01*
X157992644Y-80243387D01*
X157975321Y-80246155D01*
X157966886Y-80226066D01*
X157950230Y-80182351D01*
X157942923Y-80162598D01*
X157901948Y-80094271D01*
X157842622Y-80060191D01*
X157766552Y-80061239D01*
X157760918Y-80062581D01*
X157720305Y-80081836D01*
X157690448Y-80119375D01*
X157670055Y-80179809D01*
X157657836Y-80267751D01*
X157652500Y-80387813D01*
X157652000Y-80451698D01*
X157651752Y-80552403D01*
X157650126Y-80621054D01*
X157645801Y-80664673D01*
X157637454Y-80690282D01*
X157623765Y-80704903D01*
X157603411Y-80715558D01*
X157602234Y-80716095D01*
X157563038Y-80732667D01*
X157543619Y-80738769D01*
X157540635Y-80720319D01*
X157538081Y-80669323D01*
X157536140Y-80592308D01*
X157534997Y-80495805D01*
X157534769Y-80425184D01*
X157535932Y-80288525D01*
X157540479Y-80184851D01*
X157549999Y-80108108D01*
X157566081Y-80052246D01*
X157590313Y-80011212D01*
X157624286Y-79978954D01*
X157657833Y-79956440D01*
X157738499Y-79926476D01*
X157832381Y-79919718D01*
X157920807Y-79936782D01*
G37*
X157920807Y-79936782D02*
X157944161Y-79946988D01*
X157999902Y-79991134D01*
X158047569Y-80054967D01*
X158077048Y-80123087D01*
X158081846Y-80156670D01*
X158065760Y-80203556D01*
X158030475Y-80228365D01*
X157992644Y-80243387D01*
X157975321Y-80246155D01*
X157966886Y-80226066D01*
X157950230Y-80182351D01*
X157942923Y-80162598D01*
X157901948Y-80094271D01*
X157842622Y-80060191D01*
X157766552Y-80061239D01*
X157760918Y-80062581D01*
X157720305Y-80081836D01*
X157690448Y-80119375D01*
X157670055Y-80179809D01*
X157657836Y-80267751D01*
X157652500Y-80387813D01*
X157652000Y-80451698D01*
X157651752Y-80552403D01*
X157650126Y-80621054D01*
X157645801Y-80664673D01*
X157637454Y-80690282D01*
X157623765Y-80704903D01*
X157603411Y-80715558D01*
X157602234Y-80716095D01*
X157563038Y-80732667D01*
X157543619Y-80738769D01*
X157540635Y-80720319D01*
X157538081Y-80669323D01*
X157536140Y-80592308D01*
X157534997Y-80495805D01*
X157534769Y-80425184D01*
X157535932Y-80288525D01*
X157540479Y-80184851D01*
X157549999Y-80108108D01*
X157566081Y-80052246D01*
X157590313Y-80011212D01*
X157624286Y-79978954D01*
X157657833Y-79956440D01*
X157738499Y-79926476D01*
X157832381Y-79919718D01*
X157920807Y-79936782D01*
G36*
X158211032Y-80120710D02*
G01*
X158229460Y-80055167D01*
X158259360Y-80006912D01*
X158303080Y-79968767D01*
X158322141Y-79956440D01*
X158408726Y-79924336D01*
X158503522Y-79922316D01*
X158595224Y-79947838D01*
X158672528Y-79998361D01*
X158709814Y-80043590D01*
X158739353Y-80125663D01*
X158741699Y-80190607D01*
X158736385Y-80277445D01*
X158536115Y-80365103D01*
X158438739Y-80409887D01*
X158375113Y-80445913D01*
X158342029Y-80477117D01*
X158336280Y-80507436D01*
X158354658Y-80540805D01*
X158374923Y-80562923D01*
X158433889Y-80598393D01*
X158498024Y-80600879D01*
X158556926Y-80573235D01*
X158600197Y-80518320D01*
X158607936Y-80498928D01*
X158645006Y-80438364D01*
X158687654Y-80412552D01*
X158746154Y-80390471D01*
X158746154Y-80474184D01*
X158740982Y-80531150D01*
X158720723Y-80579189D01*
X158678262Y-80634346D01*
X158671951Y-80641514D01*
X158624720Y-80690585D01*
X158584121Y-80716920D01*
X158533328Y-80729035D01*
X158491220Y-80733003D01*
X158415902Y-80733991D01*
X158362286Y-80721466D01*
X158328838Y-80702869D01*
X158276268Y-80661975D01*
X158239879Y-80617748D01*
X158216850Y-80562126D01*
X158204359Y-80487047D01*
X158199587Y-80384449D01*
X158199206Y-80332376D01*
X158200501Y-80269948D01*
X158318471Y-80269948D01*
X158319839Y-80303438D01*
X158323249Y-80308923D01*
X158345753Y-80301472D01*
X158394182Y-80281753D01*
X158458908Y-80253718D01*
X158472443Y-80247692D01*
X158554244Y-80206096D01*
X158599312Y-80169538D01*
X158609217Y-80135296D01*
X158585526Y-80100648D01*
X158565960Y-80085339D01*
X158495360Y-80054721D01*
X158429280Y-80059780D01*
X158373959Y-80097151D01*
X158335636Y-80163473D01*
X158323349Y-80216116D01*
X158318471Y-80269948D01*
X158200501Y-80269948D01*
X158201730Y-80210720D01*
X158211032Y-80120710D01*
G37*
X158211032Y-80120710D02*
X158229460Y-80055167D01*
X158259360Y-80006912D01*
X158303080Y-79968767D01*
X158322141Y-79956440D01*
X158408726Y-79924336D01*
X158503522Y-79922316D01*
X158595224Y-79947838D01*
X158672528Y-79998361D01*
X158709814Y-80043590D01*
X158739353Y-80125663D01*
X158741699Y-80190607D01*
X158736385Y-80277445D01*
X158536115Y-80365103D01*
X158438739Y-80409887D01*
X158375113Y-80445913D01*
X158342029Y-80477117D01*
X158336280Y-80507436D01*
X158354658Y-80540805D01*
X158374923Y-80562923D01*
X158433889Y-80598393D01*
X158498024Y-80600879D01*
X158556926Y-80573235D01*
X158600197Y-80518320D01*
X158607936Y-80498928D01*
X158645006Y-80438364D01*
X158687654Y-80412552D01*
X158746154Y-80390471D01*
X158746154Y-80474184D01*
X158740982Y-80531150D01*
X158720723Y-80579189D01*
X158678262Y-80634346D01*
X158671951Y-80641514D01*
X158624720Y-80690585D01*
X158584121Y-80716920D01*
X158533328Y-80729035D01*
X158491220Y-80733003D01*
X158415902Y-80733991D01*
X158362286Y-80721466D01*
X158328838Y-80702869D01*
X158276268Y-80661975D01*
X158239879Y-80617748D01*
X158216850Y-80562126D01*
X158204359Y-80487047D01*
X158199587Y-80384449D01*
X158199206Y-80332376D01*
X158200501Y-80269948D01*
X158318471Y-80269948D01*
X158319839Y-80303438D01*
X158323249Y-80308923D01*
X158345753Y-80301472D01*
X158394182Y-80281753D01*
X158458908Y-80253718D01*
X158472443Y-80247692D01*
X158554244Y-80206096D01*
X158599312Y-80169538D01*
X158609217Y-80135296D01*
X158585526Y-80100648D01*
X158565960Y-80085339D01*
X158495360Y-80054721D01*
X158429280Y-80059780D01*
X158373959Y-80097151D01*
X158335636Y-80163473D01*
X158323349Y-80216116D01*
X158318471Y-80269948D01*
X158200501Y-80269948D01*
X158201730Y-80210720D01*
X158211032Y-80120710D01*
D13*
%TO.C,C2*%
X162385000Y-92711252D02*
X162385000Y-92188748D01*
X160915000Y-92711252D02*
X160915000Y-92188748D01*
%TO.C,D1*%
X153500000Y-95480000D02*
X153500000Y-93820000D01*
X155420000Y-97400000D02*
G75*
G03*
X155420000Y-97400000I-1920000J0D01*
G01*
%TO.C,D2*%
X157950000Y-95480000D02*
X157950000Y-93820000D01*
X159870000Y-97400000D02*
G75*
G03*
X159870000Y-97400000I-1920000J0D01*
G01*
%TO.C,C5*%
X140185000Y-86561252D02*
X140185000Y-86038748D01*
X138715000Y-86561252D02*
X138715000Y-86038748D01*
%TO.C,L1*%
X148300000Y-93900000D02*
X148300000Y-92520000D01*
X150220000Y-87280000D02*
X146380000Y-87280000D01*
X146380000Y-92520000D02*
X150220000Y-92520000D01*
X146380000Y-87280000D02*
X146380000Y-92520000D01*
X150220000Y-92520000D02*
X150220000Y-87280000D01*
X148300000Y-85900000D02*
X148300000Y-87280000D01*
%TO.C,R3*%
X142027064Y-98035000D02*
X141572936Y-98035000D01*
X142027064Y-96565000D02*
X141572936Y-96565000D01*
%TO.C,C6*%
X142865000Y-86561252D02*
X142865000Y-86038748D01*
X144335000Y-86561252D02*
X144335000Y-86038748D01*
%TO.C,R4*%
X134885436Y-90365000D02*
X135339564Y-90365000D01*
X134885436Y-91835000D02*
X135339564Y-91835000D01*
%TO.C,RV1*%
X178520000Y-101370000D02*
X185520000Y-101370000D01*
X185520000Y-100870000D02*
X198520000Y-100870000D01*
X185520000Y-94130000D02*
X185520000Y-101370000D01*
X164980000Y-102620000D02*
X178520000Y-102620000D01*
X178520000Y-92880000D02*
X178520000Y-102620000D01*
X185520000Y-94630000D02*
X198520000Y-94630000D01*
X164980000Y-92880000D02*
X164980000Y-102620000D01*
X178520000Y-94130000D02*
X185520000Y-94130000D01*
X198520000Y-94630000D02*
X198520000Y-100870000D01*
X164980000Y-92880000D02*
X178520000Y-92880000D01*
%TO.C,C3*%
X148988748Y-98135000D02*
X149511252Y-98135000D01*
X148988748Y-96665000D02*
X149511252Y-96665000D01*
%TO.C,R1*%
X162385000Y-96085436D02*
X162385000Y-96539564D01*
X160915000Y-96085436D02*
X160915000Y-96539564D01*
%TO.C,C7*%
X133365000Y-93788748D02*
X133365000Y-94311252D01*
X134835000Y-93788748D02*
X134835000Y-94311252D01*
%TO.C,R2*%
X145735000Y-96174936D02*
X145735000Y-96629064D01*
X144265000Y-96174936D02*
X144265000Y-96629064D01*
%TO.C,D3*%
X175180000Y-87065000D02*
X175499000Y-87065000D01*
X172701000Y-87065000D02*
X173020000Y-87065000D01*
X175180000Y-86688330D02*
G75*
G03*
X175180961Y-83322287I-1080000J1683330D01*
G01*
X173019276Y-82761758D02*
G75*
G03*
X172701251Y-87065000I1080724J-2243242D01*
G01*
X173019039Y-83322287D02*
G75*
G03*
X173020000Y-86688330I1080961J-1682713D01*
G01*
X175498749Y-87065000D02*
G75*
G03*
X175180724Y-82761758I-1398749J2060000D01*
G01*
%TO.C,R5*%
X142259000Y-86514564D02*
X142259000Y-86060436D01*
X140789000Y-86514564D02*
X140789000Y-86060436D01*
%TO.C,J1*%
X178350000Y-78200000D02*
X175150000Y-78200000D01*
X172550000Y-78200000D02*
X163650000Y-78200000D01*
X180850000Y-77700000D02*
X178350000Y-77700000D01*
X163650000Y-72000000D02*
X164850000Y-72000000D01*
X174550000Y-72000000D02*
X174550000Y-70000000D01*
X178350000Y-77700000D02*
X178350000Y-78200000D01*
X177150000Y-72000000D02*
X177150000Y-70000000D01*
X177150000Y-72000000D02*
X178350000Y-72000000D01*
X178350000Y-72500000D02*
X180850000Y-72500000D01*
X168050000Y-72000000D02*
X174550000Y-72000000D01*
X180850000Y-72500000D02*
X180850000Y-77700000D01*
X178350000Y-72000000D02*
X178350000Y-72500000D01*
X163650000Y-78200000D02*
X163650000Y-72000000D01*
%TO.C,Q1*%
X137602000Y-89268000D02*
X137602000Y-92868000D01*
X142052001Y-91068000D02*
G75*
G03*
X137613522Y-89229522I-2600001J0D01*
G01*
X137613522Y-92906478D02*
G75*
G03*
X142052000Y-91068000I1838478J1838478D01*
G01*
%TO.C,J2*%
X163555000Y-82420000D02*
X160955000Y-82420000D01*
X160955000Y-82420000D02*
X160955000Y-85080000D01*
X163555000Y-85080000D02*
X160955000Y-85080000D01*
X163555000Y-82420000D02*
X163555000Y-85080000D01*
X164825000Y-82420000D02*
X166155000Y-82420000D01*
X166155000Y-82420000D02*
X166155000Y-83750000D01*
%TO.C,C1*%
X167938748Y-90265000D02*
X168461252Y-90265000D01*
X167938748Y-91735000D02*
X168461252Y-91735000D01*
%TO.C,R6*%
X169065000Y-84927064D02*
X169065000Y-84472936D01*
X170535000Y-84927064D02*
X170535000Y-84472936D01*
%TO.C,C9*%
X149511252Y-100535000D02*
X148988748Y-100535000D01*
X149511252Y-99065000D02*
X148988748Y-99065000D01*
%TO.C,C8*%
X135265000Y-88161252D02*
X135265000Y-87638748D01*
X136735000Y-88161252D02*
X136735000Y-87638748D01*
%TO.C,C4*%
X135465000Y-93788748D02*
X135465000Y-94311252D01*
X136935000Y-93788748D02*
X136935000Y-94311252D01*
%TD*%
%LPC*%
D14*
%TO.C,C2*%
X161650000Y-93400000D03*
X161650000Y-91500000D03*
%TD*%
D15*
%TO.C,D1*%
X153500000Y-97400000D03*
D16*
X153500000Y-92320000D03*
%TD*%
D15*
%TO.C,D2*%
X157950000Y-97400000D03*
D16*
X157950000Y-92320000D03*
%TD*%
D14*
%TO.C,C5*%
X139450000Y-87250000D03*
X139450000Y-85350000D03*
%TD*%
D17*
%TO.C,L1*%
X148300000Y-94900000D03*
D18*
X148300000Y-84900000D03*
%TD*%
D19*
%TO.C,R3*%
X142712500Y-97300000D03*
X140887500Y-97300000D03*
%TD*%
D14*
%TO.C,C6*%
X143600000Y-87250000D03*
X143600000Y-85350000D03*
%TD*%
D20*
%TO.C,R4*%
X134200000Y-91100000D03*
X136025000Y-91100000D03*
%TD*%
D21*
%TO.C,RV1*%
X173400000Y-100250000D03*
D22*
X173400000Y-97750000D03*
X173400000Y-95250000D03*
X167150000Y-100250000D03*
X167150000Y-95250000D03*
%TD*%
D23*
%TO.C,C3*%
X148300000Y-97400000D03*
X150200000Y-97400000D03*
%TD*%
D24*
%TO.C,R1*%
X161650000Y-95400000D03*
X161650000Y-97225000D03*
%TD*%
D25*
%TO.C,C7*%
X134100000Y-93100000D03*
X134100000Y-95000000D03*
%TD*%
D24*
%TO.C,R2*%
X145000000Y-95489500D03*
X145000000Y-97314500D03*
%TD*%
D26*
%TO.C,D3*%
X174100000Y-86275000D03*
D22*
X174100000Y-83735000D03*
%TD*%
D27*
%TO.C,R5*%
X141524000Y-87200000D03*
X141524000Y-85375000D03*
%TD*%
D28*
%TO.C,J1*%
X174750000Y-75100000D03*
X167750000Y-75100000D03*
D29*
X173850000Y-78800000D03*
X175850000Y-71400000D03*
D30*
X166450000Y-71400000D03*
%TD*%
D31*
%TO.C,Q1*%
X139452000Y-89798000D03*
D32*
X139452000Y-91068000D03*
X139452000Y-92338000D03*
%TD*%
D33*
%TO.C,J2*%
X164825000Y-83750000D03*
D34*
X162285000Y-83750000D03*
%TD*%
D23*
%TO.C,C1*%
X167250000Y-91000000D03*
X169150000Y-91000000D03*
%TD*%
D27*
%TO.C,R6*%
X169800000Y-85612500D03*
X169800000Y-83787500D03*
%TD*%
D35*
%TO.C,C9*%
X150200000Y-99800000D03*
X148300000Y-99800000D03*
%TD*%
D14*
%TO.C,C8*%
X136000000Y-88850000D03*
X136000000Y-86950000D03*
%TD*%
D25*
%TO.C,C4*%
X136200000Y-93100000D03*
X136200000Y-95000000D03*
%TD*%
M02*
