%TF.GenerationSoftware,KiCad,Pcbnew,(6.0.11-0)*%
%TF.CreationDate,2024-07-13T22:40:32+02:00*%
%TF.ProjectId,SAQ_RX,5341515f-5258-42e6-9b69-6361645f7063,rev?*%
%TF.SameCoordinates,Original*%
%TF.FileFunction,Soldermask,Top*%
%TF.FilePolarity,Negative*%
%FSLAX46Y46*%
G04 Gerber Fmt 4.6, Leading zero omitted, Abs format (unit mm)*
G04 Created by KiCad (PCBNEW (6.0.11-0)) date 2024-07-13 22:40:32*
%MOMM*%
%LPD*%
G01*
G04 APERTURE LIST*
G04 Aperture macros list*
%AMRoundRect*
0 Rectangle with rounded corners*
0 $1 Rounding radius*
0 $2 $3 $4 $5 $6 $7 $8 $9 X,Y pos of 4 corners*
0 Add a 4 corners polygon primitive as box body*
4,1,4,$2,$3,$4,$5,$6,$7,$8,$9,$2,$3,0*
0 Add four circle primitives for the rounded corners*
1,1,$1+$1,$2,$3*
1,1,$1+$1,$4,$5*
1,1,$1+$1,$6,$7*
1,1,$1+$1,$8,$9*
0 Add four rect primitives between the rounded corners*
20,1,$1+$1,$2,$3,$4,$5,0*
20,1,$1+$1,$4,$5,$6,$7,0*
20,1,$1+$1,$6,$7,$8,$9,0*
20,1,$1+$1,$8,$9,$2,$3,0*%
G04 Aperture macros list end*
%ADD10RoundRect,0.250000X0.475000X-0.250000X0.475000X0.250000X-0.475000X0.250000X-0.475000X-0.250000X0*%
%ADD11R,2.400000X2.400000*%
%ADD12O,2.400000X2.400000*%
%ADD13C,1.600000*%
%ADD14O,1.600000X1.600000*%
%ADD15RoundRect,0.250000X0.262500X0.450000X-0.262500X0.450000X-0.262500X-0.450000X0.262500X-0.450000X0*%
%ADD16RoundRect,0.250000X-0.262500X-0.450000X0.262500X-0.450000X0.262500X0.450000X-0.262500X0.450000X0*%
%ADD17RoundRect,0.450000X-0.450000X-0.450000X0.450000X-0.450000X0.450000X0.450000X-0.450000X0.450000X0*%
%ADD18C,1.800000*%
%ADD19RoundRect,0.250000X-0.250000X-0.475000X0.250000X-0.475000X0.250000X0.475000X-0.250000X0.475000X0*%
%ADD20RoundRect,0.250000X-0.450000X0.262500X-0.450000X-0.262500X0.450000X-0.262500X0.450000X0.262500X0*%
%ADD21RoundRect,0.250000X-0.475000X0.250000X-0.475000X-0.250000X0.475000X-0.250000X0.475000X0.250000X0*%
%ADD22R,1.800000X1.800000*%
%ADD23RoundRect,0.250000X0.450000X-0.262500X0.450000X0.262500X-0.450000X0.262500X-0.450000X-0.262500X0*%
%ADD24C,1.700000*%
%ADD25R,2.200000X2.800000*%
%ADD26R,2.800000X2.800000*%
%ADD27R,1.500000X1.050000*%
%ADD28O,1.500000X1.050000*%
%ADD29R,1.700000X1.700000*%
%ADD30O,1.700000X1.700000*%
%ADD31RoundRect,0.250000X0.250000X0.475000X-0.250000X0.475000X-0.250000X-0.475000X0.250000X-0.475000X0*%
G04 APERTURE END LIST*
D10*
%TO.C,C2*%
X161650000Y-93400000D03*
X161650000Y-91500000D03*
%TD*%
D11*
%TO.C,D1*%
X153500000Y-97400000D03*
D12*
X153500000Y-92320000D03*
%TD*%
D11*
%TO.C,D2*%
X157950000Y-97400000D03*
D12*
X157950000Y-92320000D03*
%TD*%
D10*
%TO.C,C5*%
X139450000Y-87250000D03*
X139450000Y-85350000D03*
%TD*%
D13*
%TO.C,L1*%
X148300000Y-94900000D03*
D14*
X148300000Y-84900000D03*
%TD*%
D15*
%TO.C,R3*%
X142712500Y-97300000D03*
X140887500Y-97300000D03*
%TD*%
D10*
%TO.C,C6*%
X143600000Y-87250000D03*
X143600000Y-85350000D03*
%TD*%
D16*
%TO.C,R4*%
X134200000Y-91100000D03*
X136025000Y-91100000D03*
%TD*%
D17*
%TO.C,RV1*%
X173400000Y-100250000D03*
D18*
X173400000Y-97750000D03*
X173400000Y-95250000D03*
X167150000Y-100250000D03*
X167150000Y-95250000D03*
%TD*%
D19*
%TO.C,C3*%
X148300000Y-97400000D03*
X150200000Y-97400000D03*
%TD*%
D20*
%TO.C,R1*%
X161650000Y-95400000D03*
X161650000Y-97225000D03*
%TD*%
D21*
%TO.C,C7*%
X134100000Y-93100000D03*
X134100000Y-95000000D03*
%TD*%
D20*
%TO.C,R2*%
X145000000Y-95489500D03*
X145000000Y-97314500D03*
%TD*%
D22*
%TO.C,D3*%
X174100000Y-86275000D03*
D18*
X174100000Y-83735000D03*
%TD*%
D23*
%TO.C,R5*%
X141524000Y-87200000D03*
X141524000Y-85375000D03*
%TD*%
D24*
%TO.C,J1*%
X174750000Y-75100000D03*
X167750000Y-75100000D03*
D25*
X173850000Y-78800000D03*
X175850000Y-71400000D03*
D26*
X166450000Y-71400000D03*
%TD*%
D27*
%TO.C,Q1*%
X139452000Y-89798000D03*
D28*
X139452000Y-91068000D03*
X139452000Y-92338000D03*
%TD*%
D29*
%TO.C,J2*%
X164825000Y-83750000D03*
D30*
X162285000Y-83750000D03*
%TD*%
D19*
%TO.C,C1*%
X167250000Y-91000000D03*
X169150000Y-91000000D03*
%TD*%
D23*
%TO.C,R6*%
X169800000Y-85612500D03*
X169800000Y-83787500D03*
%TD*%
D31*
%TO.C,C9*%
X150200000Y-99800000D03*
X148300000Y-99800000D03*
%TD*%
D10*
%TO.C,C8*%
X136000000Y-88850000D03*
X136000000Y-86950000D03*
%TD*%
D21*
%TO.C,C4*%
X136200000Y-93100000D03*
X136200000Y-95000000D03*
%TD*%
M02*
