%TF.GenerationSoftware,KiCad,Pcbnew,(6.0.11-0)*%
%TF.CreationDate,2024-07-13T22:40:32+02:00*%
%TF.ProjectId,SAQ_RX,5341515f-5258-42e6-9b69-6361645f7063,rev?*%
%TF.SameCoordinates,Original*%
%TF.FileFunction,Copper,L1,Top*%
%TF.FilePolarity,Positive*%
%FSLAX46Y46*%
G04 Gerber Fmt 4.6, Leading zero omitted, Abs format (unit mm)*
G04 Created by KiCad (PCBNEW (6.0.11-0)) date 2024-07-13 22:40:32*
%MOMM*%
%LPD*%
G01*
G04 APERTURE LIST*
G04 Aperture macros list*
%AMRoundRect*
0 Rectangle with rounded corners*
0 $1 Rounding radius*
0 $2 $3 $4 $5 $6 $7 $8 $9 X,Y pos of 4 corners*
0 Add a 4 corners polygon primitive as box body*
4,1,4,$2,$3,$4,$5,$6,$7,$8,$9,$2,$3,0*
0 Add four circle primitives for the rounded corners*
1,1,$1+$1,$2,$3*
1,1,$1+$1,$4,$5*
1,1,$1+$1,$6,$7*
1,1,$1+$1,$8,$9*
0 Add four rect primitives between the rounded corners*
20,1,$1+$1,$2,$3,$4,$5,0*
20,1,$1+$1,$4,$5,$6,$7,0*
20,1,$1+$1,$6,$7,$8,$9,0*
20,1,$1+$1,$8,$9,$2,$3,0*%
G04 Aperture macros list end*
%TA.AperFunction,SMDPad,CuDef*%
%ADD10RoundRect,0.250000X0.475000X-0.250000X0.475000X0.250000X-0.475000X0.250000X-0.475000X-0.250000X0*%
%TD*%
%TA.AperFunction,ComponentPad*%
%ADD11R,2.400000X2.400000*%
%TD*%
%TA.AperFunction,ComponentPad*%
%ADD12O,2.400000X2.400000*%
%TD*%
%TA.AperFunction,ComponentPad*%
%ADD13C,1.600000*%
%TD*%
%TA.AperFunction,ComponentPad*%
%ADD14O,1.600000X1.600000*%
%TD*%
%TA.AperFunction,SMDPad,CuDef*%
%ADD15RoundRect,0.250000X0.262500X0.450000X-0.262500X0.450000X-0.262500X-0.450000X0.262500X-0.450000X0*%
%TD*%
%TA.AperFunction,SMDPad,CuDef*%
%ADD16RoundRect,0.250000X-0.262500X-0.450000X0.262500X-0.450000X0.262500X0.450000X-0.262500X0.450000X0*%
%TD*%
%TA.AperFunction,ComponentPad*%
%ADD17RoundRect,0.450000X-0.450000X-0.450000X0.450000X-0.450000X0.450000X0.450000X-0.450000X0.450000X0*%
%TD*%
%TA.AperFunction,ComponentPad*%
%ADD18C,1.800000*%
%TD*%
%TA.AperFunction,SMDPad,CuDef*%
%ADD19RoundRect,0.250000X-0.250000X-0.475000X0.250000X-0.475000X0.250000X0.475000X-0.250000X0.475000X0*%
%TD*%
%TA.AperFunction,SMDPad,CuDef*%
%ADD20RoundRect,0.250000X-0.450000X0.262500X-0.450000X-0.262500X0.450000X-0.262500X0.450000X0.262500X0*%
%TD*%
%TA.AperFunction,SMDPad,CuDef*%
%ADD21RoundRect,0.250000X-0.475000X0.250000X-0.475000X-0.250000X0.475000X-0.250000X0.475000X0.250000X0*%
%TD*%
%TA.AperFunction,ComponentPad*%
%ADD22R,1.800000X1.800000*%
%TD*%
%TA.AperFunction,SMDPad,CuDef*%
%ADD23RoundRect,0.250000X0.450000X-0.262500X0.450000X0.262500X-0.450000X0.262500X-0.450000X-0.262500X0*%
%TD*%
%TA.AperFunction,SMDPad,CuDef*%
%ADD24R,2.200000X2.800000*%
%TD*%
%TA.AperFunction,SMDPad,CuDef*%
%ADD25R,2.800000X2.800000*%
%TD*%
%TA.AperFunction,ComponentPad*%
%ADD26R,1.500000X1.050000*%
%TD*%
%TA.AperFunction,ComponentPad*%
%ADD27O,1.500000X1.050000*%
%TD*%
%TA.AperFunction,ComponentPad*%
%ADD28R,1.700000X1.700000*%
%TD*%
%TA.AperFunction,ComponentPad*%
%ADD29O,1.700000X1.700000*%
%TD*%
%TA.AperFunction,SMDPad,CuDef*%
%ADD30RoundRect,0.250000X0.250000X0.475000X-0.250000X0.475000X-0.250000X-0.475000X0.250000X-0.475000X0*%
%TD*%
%TA.AperFunction,ViaPad*%
%ADD31C,0.800000*%
%TD*%
%TA.AperFunction,Conductor*%
%ADD32C,0.600000*%
%TD*%
%TA.AperFunction,Conductor*%
%ADD33C,0.400000*%
%TD*%
%TA.AperFunction,Conductor*%
%ADD34C,0.250000*%
%TD*%
G04 APERTURE END LIST*
D10*
%TO.P,C2,1*%
%TO.N,Net-(C2-Pad1)*%
X161650000Y-93400000D03*
%TO.P,C2,2*%
%TO.N,GNDD*%
X161650000Y-91500000D03*
%TD*%
D11*
%TO.P,D1,1,K*%
%TO.N,Net-(C3-Pad2)*%
X153500000Y-97400000D03*
D12*
%TO.P,D1,2,A*%
%TO.N,GNDD*%
X153500000Y-92320000D03*
%TD*%
D11*
%TO.P,D2,1,K*%
%TO.N,Net-(C3-Pad2)*%
X157950000Y-97400000D03*
D12*
%TO.P,D2,2,A*%
%TO.N,GNDD*%
X157950000Y-92320000D03*
%TD*%
D10*
%TO.P,C5,1*%
%TO.N,Net-(C5-Pad1)*%
X139450000Y-87250000D03*
%TO.P,C5,2*%
%TO.N,GNDD*%
X139450000Y-85350000D03*
%TD*%
D13*
%TO.P,L1,1*%
%TO.N,Net-(C3-Pad1)*%
X148300000Y-94900000D03*
D14*
%TO.P,L1,2*%
%TO.N,GNDD*%
X148300000Y-84900000D03*
%TD*%
D15*
%TO.P,R3,1*%
%TO.N,Net-(C3-Pad1)*%
X142712500Y-97300000D03*
%TO.P,R3,2*%
%TO.N,Net-(Q1-Pad3)*%
X140887500Y-97300000D03*
%TD*%
D10*
%TO.P,C6,1*%
%TO.N,Net-(C5-Pad1)*%
X143600000Y-87250000D03*
%TO.P,C6,2*%
%TO.N,GNDD*%
X143600000Y-85350000D03*
%TD*%
D16*
%TO.P,R4,1*%
%TO.N,Net-(C4-Pad1)*%
X134200000Y-91100000D03*
%TO.P,R4,2*%
%TO.N,Net-(C8-Pad1)*%
X136025000Y-91100000D03*
%TD*%
D17*
%TO.P,RV1,1,1*%
%TO.N,Net-(C4-Pad1)*%
X173400000Y-100250000D03*
D18*
%TO.P,RV1,2,2*%
%TO.N,Net-(C2-Pad1)*%
X173400000Y-97750000D03*
%TO.P,RV1,3,3*%
%TO.N,GNDD*%
X173400000Y-95250000D03*
%TO.P,RV1,4,4*%
%TO.N,Net-(C4-Pad1)*%
X167150000Y-100250000D03*
%TO.P,RV1,5,5*%
%TO.N,Net-(C1-Pad1)*%
X167150000Y-95250000D03*
%TD*%
D19*
%TO.P,C3,1*%
%TO.N,Net-(C3-Pad1)*%
X148300000Y-97400000D03*
%TO.P,C3,2*%
%TO.N,Net-(C3-Pad2)*%
X150200000Y-97400000D03*
%TD*%
D20*
%TO.P,R1,1*%
%TO.N,Net-(C2-Pad1)*%
X161650000Y-95400000D03*
%TO.P,R1,2*%
%TO.N,Net-(C3-Pad2)*%
X161650000Y-97225000D03*
%TD*%
D21*
%TO.P,C7,1*%
%TO.N,Net-(C4-Pad1)*%
X134100000Y-93100000D03*
%TO.P,C7,2*%
%TO.N,GNDD*%
X134100000Y-95000000D03*
%TD*%
D20*
%TO.P,R2,1*%
%TO.N,GNDD*%
X145000000Y-95489500D03*
%TO.P,R2,2*%
%TO.N,Net-(C3-Pad1)*%
X145000000Y-97314500D03*
%TD*%
D22*
%TO.P,D3,1,K*%
%TO.N,GNDD*%
X174100000Y-86275000D03*
D18*
%TO.P,D3,2,A*%
%TO.N,Net-(D3-Pad2)*%
X174100000Y-83735000D03*
%TD*%
D23*
%TO.P,R5,1*%
%TO.N,Net-(C5-Pad1)*%
X141524000Y-87200000D03*
%TO.P,R5,2*%
%TO.N,GNDD*%
X141524000Y-85375000D03*
%TD*%
D24*
%TO.P,J1,R*%
%TO.N,Net-(C8-Pad2)*%
X173850000Y-78800000D03*
%TO.P,J1,S*%
%TO.N,GNDD*%
X175850000Y-71400000D03*
D25*
%TO.P,J1,T*%
%TO.N,Net-(C8-Pad2)*%
X166450000Y-71400000D03*
%TD*%
D26*
%TO.P,Q1,1,D*%
%TO.N,Net-(C5-Pad1)*%
X139452000Y-89798000D03*
D27*
%TO.P,Q1,2,S*%
%TO.N,Net-(C8-Pad1)*%
X139452000Y-91068000D03*
%TO.P,Q1,3,G*%
%TO.N,Net-(Q1-Pad3)*%
X139452000Y-92338000D03*
%TD*%
D28*
%TO.P,J2,1,Pin_1*%
%TO.N,Net-(C1-Pad1)*%
X164825000Y-83750000D03*
D29*
%TO.P,J2,2,Pin_2*%
%TO.N,GNDD*%
X162285000Y-83750000D03*
%TD*%
D19*
%TO.P,C1,1*%
%TO.N,Net-(C1-Pad1)*%
X167250000Y-91000000D03*
%TO.P,C1,2*%
%TO.N,GNDD*%
X169150000Y-91000000D03*
%TD*%
D23*
%TO.P,R6,1*%
%TO.N,Net-(C4-Pad1)*%
X169800000Y-85612500D03*
%TO.P,R6,2*%
%TO.N,Net-(D3-Pad2)*%
X169800000Y-83787500D03*
%TD*%
D30*
%TO.P,C9,1*%
%TO.N,Net-(C3-Pad2)*%
X150200000Y-99800000D03*
%TO.P,C9,2*%
%TO.N,GNDD*%
X148300000Y-99800000D03*
%TD*%
D10*
%TO.P,C8,1*%
%TO.N,Net-(C8-Pad1)*%
X136000000Y-88850000D03*
%TO.P,C8,2*%
%TO.N,Net-(C8-Pad2)*%
X136000000Y-86950000D03*
%TD*%
D21*
%TO.P,C4,1*%
%TO.N,Net-(C4-Pad1)*%
X136200000Y-93100000D03*
%TO.P,C4,2*%
%TO.N,GNDD*%
X136200000Y-95000000D03*
%TD*%
D31*
%TO.N,Net-(C4-Pad1)*%
X132700000Y-91100000D03*
%TD*%
D32*
%TO.N,Net-(C2-Pad1)*%
X161650000Y-95400000D02*
X162400000Y-95400000D01*
X164750000Y-97750000D02*
X173400000Y-97750000D01*
X161650000Y-93400000D02*
X161650000Y-95400000D01*
X162400000Y-95400000D02*
X164750000Y-97750000D01*
D33*
%TO.N,Net-(C3-Pad1)*%
X142712500Y-97300000D02*
X144985500Y-97300000D01*
X148300000Y-97400000D02*
X145085500Y-97400000D01*
X148300000Y-94900000D02*
X148300000Y-97400000D01*
X145085500Y-97400000D02*
X145000000Y-97314500D01*
X144985500Y-97300000D02*
X145000000Y-97314500D01*
%TO.N,Net-(C3-Pad2)*%
X157950000Y-97400000D02*
X153500000Y-97400000D01*
X153500000Y-97400000D02*
X150200000Y-97400000D01*
D34*
X161650000Y-97225000D02*
X161475000Y-97400000D01*
D33*
X161475000Y-97400000D02*
X157950000Y-97400000D01*
X150200000Y-97475000D02*
X150200000Y-99825000D01*
X150200000Y-99750000D02*
X150250000Y-99800000D01*
%TO.N,Net-(C5-Pad1)*%
X139450000Y-87250000D02*
X141474000Y-87250000D01*
X141574000Y-87250000D02*
X141524000Y-87200000D01*
X143600000Y-87250000D02*
X141574000Y-87250000D01*
D34*
X139452000Y-87252000D02*
X139450000Y-87250000D01*
D32*
X139452000Y-89798000D02*
X139452000Y-87252000D01*
D33*
X141474000Y-87250000D02*
X141524000Y-87200000D01*
D32*
%TO.N,Net-(C1-Pad1)*%
X167150000Y-91100000D02*
X167250000Y-91000000D01*
X167200000Y-90950000D02*
X167250000Y-91000000D01*
X167150000Y-95250000D02*
X167150000Y-91100000D01*
X164825000Y-83750000D02*
X167200000Y-86125000D01*
X167200000Y-86125000D02*
X167200000Y-90950000D01*
%TO.N,Net-(Q1-Pad3)*%
X139750000Y-97300000D02*
X140837500Y-97300000D01*
X139452000Y-92338000D02*
X139452000Y-97002000D01*
X139452000Y-97002000D02*
X139750000Y-97300000D01*
%TO.N,Net-(C8-Pad2)*%
X173850000Y-78800000D02*
X171100000Y-76050000D01*
X166450000Y-71400000D02*
X146200000Y-71400000D01*
X171100000Y-72800000D02*
X169700000Y-71400000D01*
X146200000Y-71400000D02*
X136000000Y-81600000D01*
X171100000Y-76050000D02*
X171100000Y-72800000D01*
X169700000Y-71400000D02*
X166450000Y-71400000D01*
X136000000Y-81600000D02*
X136000000Y-86950000D01*
%TO.N,Net-(D3-Pad2)*%
X169800000Y-83787500D02*
X174047500Y-83787500D01*
X174047500Y-83787500D02*
X174100000Y-83735000D01*
%TO.N,Net-(C8-Pad1)*%
X139452000Y-91068000D02*
X136544500Y-91068000D01*
X136000000Y-88850000D02*
X136000000Y-91075000D01*
X136000000Y-91075000D02*
X136025000Y-91100000D01*
%TO.N,Net-(C4-Pad1)*%
X176350000Y-90300000D02*
X176350000Y-88950000D01*
X134200000Y-93050000D02*
X134150000Y-93100000D01*
X136300000Y-93100000D02*
X134150000Y-93100000D01*
X134200000Y-91100000D02*
X132700000Y-91100000D01*
X134200000Y-91100000D02*
X134200000Y-93050000D01*
X170500000Y-88350000D02*
X169800000Y-87650000D01*
X175750000Y-88350000D02*
X170500000Y-88350000D01*
X173800000Y-99900000D02*
X176350000Y-97350000D01*
X176350000Y-88950000D02*
X175750000Y-88350000D01*
X169800000Y-87650000D02*
X169800000Y-85612500D01*
X176350000Y-97350000D02*
X176350000Y-90300000D01*
%TD*%
%TA.AperFunction,Conductor*%
%TO.N,GNDD*%
G36*
X178125498Y-103087621D02*
G01*
X178071842Y-103134114D01*
X178019500Y-103145500D01*
X128780500Y-103145500D01*
X128712379Y-103125498D01*
X128665886Y-103071842D01*
X128654500Y-103019500D01*
X128654500Y-68780500D01*
X128674502Y-68712379D01*
X128728158Y-68665886D01*
X128780500Y-68654500D01*
X133889744Y-68654500D01*
X133889744Y-90145500D01*
X133828052Y-90152202D01*
X133692736Y-90202929D01*
X133685557Y-90208309D01*
X133685554Y-90208311D01*
X133645500Y-90238330D01*
X133577096Y-90289596D01*
X133571715Y-90296776D01*
X133495811Y-90398054D01*
X133495809Y-90398057D01*
X133490429Y-90405236D01*
X133475099Y-90446129D01*
X133468501Y-90463729D01*
X133425860Y-90520494D01*
X133359298Y-90545194D01*
X133350519Y-90545500D01*
X133089181Y-90545500D01*
X133025323Y-90525304D01*
X133024464Y-90526907D01*
X133017774Y-90523320D01*
X133011556Y-90518950D01*
X132863963Y-90461406D01*
X132706904Y-90440729D01*
X132549447Y-90458113D01*
X132400681Y-90512553D01*
X132269195Y-90600908D01*
X132264082Y-90606527D01*
X132264081Y-90606528D01*
X132253731Y-90617903D01*
X132162581Y-90718076D01*
X132086992Y-90857293D01*
X132046793Y-91010522D01*
X132045474Y-91094477D01*
X132044424Y-91161319D01*
X132044424Y-91161322D01*
X132044305Y-91168916D01*
X132079671Y-91323332D01*
X132115083Y-91393742D01*
X132147437Y-91458072D01*
X132147439Y-91458075D01*
X132150849Y-91464855D01*
X132155778Y-91470626D01*
X132155780Y-91470629D01*
X132248796Y-91579536D01*
X132248797Y-91579536D01*
X132253731Y-91585314D01*
X132382376Y-91677755D01*
X132529359Y-91736842D01*
X132686193Y-91759162D01*
X132700000Y-91759307D01*
X132857267Y-91740276D01*
X133005454Y-91684280D01*
X133016540Y-91676661D01*
X133087908Y-91654500D01*
X133350519Y-91654500D01*
X133418640Y-91674502D01*
X133465133Y-91728158D01*
X133468501Y-91736271D01*
X133475099Y-91753871D01*
X133490429Y-91794764D01*
X133495809Y-91801943D01*
X133495811Y-91801946D01*
X133571715Y-91903224D01*
X133577096Y-91910404D01*
X133595065Y-91923871D01*
X133637580Y-91980730D01*
X133645500Y-92024697D01*
X133645500Y-92225032D01*
X133625498Y-92293153D01*
X133571842Y-92339646D01*
X133533108Y-92350295D01*
X133515552Y-92352202D01*
X133380236Y-92402929D01*
X133373057Y-92408309D01*
X133373054Y-92408311D01*
X133285023Y-92474287D01*
X133264596Y-92489596D01*
X133259215Y-92496776D01*
X133183311Y-92598054D01*
X133183309Y-92598057D01*
X133177929Y-92605236D01*
X133144296Y-92694954D01*
X133129974Y-92733157D01*
X133129974Y-92733159D01*
X133127202Y-92740552D01*
X133126349Y-92748402D01*
X133126349Y-92748403D01*
X133120869Y-92798847D01*
X133120500Y-92802244D01*
X133120500Y-93397756D01*
X133120869Y-93401153D01*
X133126349Y-93451597D01*
X133126349Y-93451598D01*
X133127202Y-93459448D01*
X133129974Y-93466841D01*
X133129974Y-93466843D01*
X133144296Y-93505046D01*
X133177929Y-93594764D01*
X133183309Y-93601943D01*
X133183311Y-93601946D01*
X133259215Y-93703224D01*
X133264596Y-93710404D01*
X133285023Y-93725713D01*
X133373054Y-93791689D01*
X133373057Y-93791691D01*
X133380236Y-93797071D01*
X133515552Y-93847798D01*
X133577244Y-93854500D01*
X134622756Y-93854500D01*
X134684448Y-93847798D01*
X134819764Y-93797071D01*
X134826943Y-93791691D01*
X134826946Y-93791689D01*
X134928224Y-93715785D01*
X134935404Y-93710404D01*
X134940786Y-93703223D01*
X134947135Y-93696874D01*
X134948481Y-93698220D01*
X134996365Y-93662419D01*
X135040329Y-93654500D01*
X135259671Y-93654500D01*
X135327792Y-93674502D01*
X135352369Y-93697370D01*
X135352865Y-93696874D01*
X135359214Y-93703223D01*
X135364596Y-93710404D01*
X135423403Y-93754477D01*
X135473054Y-93791689D01*
X135473057Y-93791691D01*
X135480236Y-93797071D01*
X135615552Y-93847798D01*
X135677244Y-93854500D01*
X136722756Y-93854500D01*
X136729189Y-93853801D01*
X136776597Y-93848651D01*
X136776598Y-93848651D01*
X136784448Y-93847798D01*
X136919764Y-93797071D01*
X136926943Y-93791691D01*
X136926946Y-93791689D01*
X137028224Y-93715785D01*
X137035404Y-93710404D01*
X137050713Y-93689977D01*
X137116689Y-93601946D01*
X137116691Y-93601943D01*
X137122071Y-93594764D01*
X137155704Y-93505046D01*
X137170026Y-93466843D01*
X137170026Y-93466841D01*
X137172798Y-93459448D01*
X137173651Y-93451598D01*
X137173651Y-93451597D01*
X137179131Y-93401153D01*
X137179131Y-93401152D01*
X137179500Y-93397756D01*
X137179500Y-92802244D01*
X137179131Y-92798848D01*
X137179131Y-92798847D01*
X137173651Y-92748403D01*
X137173651Y-92748402D01*
X137172798Y-92740552D01*
X137170026Y-92733159D01*
X137170026Y-92733157D01*
X137155704Y-92694954D01*
X137122071Y-92605236D01*
X137116691Y-92598057D01*
X137116689Y-92598054D01*
X137050713Y-92510023D01*
X137035404Y-92489596D01*
X137028224Y-92484215D01*
X136926946Y-92408311D01*
X136926943Y-92408309D01*
X136919764Y-92402929D01*
X136784448Y-92352202D01*
X136776598Y-92351349D01*
X136776597Y-92351349D01*
X136729189Y-92346199D01*
X136722756Y-92345500D01*
X135677244Y-92345500D01*
X135615552Y-92352202D01*
X135480236Y-92402929D01*
X135473057Y-92408309D01*
X135473054Y-92408311D01*
X135423403Y-92445523D01*
X135364596Y-92489596D01*
X135359214Y-92496777D01*
X135352865Y-92503126D01*
X135351519Y-92501780D01*
X135303635Y-92537581D01*
X135259671Y-92545500D01*
X135040329Y-92545500D01*
X134972208Y-92525498D01*
X134947631Y-92502630D01*
X134947135Y-92503126D01*
X134940786Y-92496777D01*
X134935404Y-92489596D01*
X134819764Y-92402929D01*
X134817616Y-92402124D01*
X134769844Y-92354244D01*
X134754500Y-92293984D01*
X134754500Y-92024697D01*
X134774502Y-91956576D01*
X134804935Y-91923871D01*
X134815724Y-91915785D01*
X134822904Y-91910404D01*
X134838213Y-91889977D01*
X134904189Y-91801946D01*
X134904191Y-91801943D01*
X134909571Y-91794764D01*
X134948481Y-91690970D01*
X134957526Y-91666843D01*
X134957526Y-91666841D01*
X134960298Y-91659448D01*
X134961151Y-91651598D01*
X134961151Y-91651597D01*
X134966631Y-91601153D01*
X134966631Y-91601152D01*
X134967000Y-91597756D01*
X134967000Y-90602244D01*
X134966631Y-90598848D01*
X134966631Y-90598847D01*
X134961151Y-90548403D01*
X134961151Y-90548402D01*
X134960298Y-90540552D01*
X134957526Y-90533159D01*
X134957526Y-90533157D01*
X134948481Y-90509030D01*
X134909571Y-90405236D01*
X134904191Y-90398057D01*
X134904189Y-90398054D01*
X134838213Y-90310023D01*
X134822904Y-90289596D01*
X134815724Y-90284215D01*
X134714446Y-90208311D01*
X134714443Y-90208309D01*
X134707264Y-90202929D01*
X134571948Y-90152202D01*
X134510256Y-90145500D01*
X133889744Y-90145500D01*
X133889744Y-68654500D01*
X167875067Y-68654500D01*
X167875067Y-69745500D01*
X165024934Y-69745501D01*
X164989182Y-69752612D01*
X164979681Y-69754502D01*
X164950699Y-69760266D01*
X164866516Y-69816516D01*
X164810266Y-69900699D01*
X164795500Y-69974933D01*
X164795500Y-70719500D01*
X164775498Y-70787621D01*
X164721842Y-70834114D01*
X164669500Y-70845500D01*
X146215075Y-70845500D01*
X146209799Y-70845390D01*
X146147326Y-70842772D01*
X146138961Y-70844734D01*
X146104622Y-70852788D01*
X146092949Y-70854951D01*
X146049482Y-70860905D01*
X146041598Y-70864317D01*
X146035506Y-70866953D01*
X146014237Y-70873987D01*
X145999417Y-70877463D01*
X145960963Y-70898603D01*
X145950317Y-70903818D01*
X145917937Y-70917830D01*
X145917933Y-70917832D01*
X145910054Y-70921242D01*
X145903381Y-70926646D01*
X145903379Y-70926647D01*
X145898225Y-70930821D01*
X145879637Y-70943312D01*
X145866285Y-70950652D01*
X145858109Y-70957710D01*
X145833366Y-70982453D01*
X145823565Y-70991279D01*
X145798662Y-71011444D01*
X145798659Y-71011447D01*
X145791987Y-71016850D01*
X145780962Y-71032364D01*
X145767355Y-71048464D01*
X135618574Y-81197244D01*
X135614766Y-81200897D01*
X135568734Y-81243226D01*
X135545620Y-81280505D01*
X135538911Y-81290268D01*
X135529576Y-81302566D01*
X135517562Y-81318393D01*
X135517560Y-81318396D01*
X135512370Y-81325234D01*
X135506763Y-81339396D01*
X135496697Y-81359410D01*
X135488677Y-81372344D01*
X135486281Y-81380591D01*
X135486280Y-81380593D01*
X135480661Y-81399934D01*
X135476436Y-81414476D01*
X135472592Y-81425701D01*
X135459607Y-81458498D01*
X135459605Y-81458505D01*
X135456444Y-81466490D01*
X135455546Y-81475033D01*
X135455546Y-81475034D01*
X135454854Y-81481620D01*
X135450540Y-81503610D01*
X135448134Y-81511890D01*
X135448133Y-81511894D01*
X135446291Y-81518235D01*
X135445808Y-81524819D01*
X135445807Y-81524822D01*
X135445756Y-81525521D01*
X135445500Y-81529007D01*
X135445500Y-81564012D01*
X135444810Y-81577182D01*
X135440564Y-81617581D01*
X135441996Y-81626048D01*
X135441996Y-81626049D01*
X135443736Y-81636336D01*
X135445500Y-81657348D01*
X135445500Y-86103647D01*
X135425498Y-86171768D01*
X135371842Y-86218261D01*
X135363729Y-86221629D01*
X135334326Y-86232652D01*
X135280236Y-86252929D01*
X135273057Y-86258309D01*
X135273054Y-86258311D01*
X135185023Y-86324287D01*
X135164596Y-86339596D01*
X135159215Y-86346776D01*
X135083311Y-86448054D01*
X135083309Y-86448057D01*
X135077929Y-86455236D01*
X135044296Y-86544954D01*
X135029974Y-86583157D01*
X135029974Y-86583159D01*
X135027202Y-86590552D01*
X135026349Y-86598402D01*
X135026349Y-86598403D01*
X135020869Y-86648847D01*
X135020500Y-86652244D01*
X135020500Y-87247756D01*
X135020869Y-87251153D01*
X135026349Y-87301597D01*
X135026349Y-87301598D01*
X135027202Y-87309448D01*
X135029974Y-87316841D01*
X135029974Y-87316843D01*
X135044296Y-87355046D01*
X135077929Y-87444764D01*
X135083309Y-87451943D01*
X135083311Y-87451946D01*
X135159215Y-87553224D01*
X135164596Y-87560404D01*
X135185023Y-87575713D01*
X135273054Y-87641689D01*
X135273057Y-87641691D01*
X135280236Y-87647071D01*
X135371842Y-87681412D01*
X135408157Y-87695026D01*
X135408159Y-87695026D01*
X135415552Y-87697798D01*
X135425498Y-87698879D01*
X135473847Y-87704131D01*
X135473848Y-87704131D01*
X135477244Y-87704500D01*
X136522756Y-87704500D01*
X136539446Y-87702687D01*
X136576597Y-87698651D01*
X136576598Y-87698651D01*
X136584448Y-87697798D01*
X136604936Y-87690118D01*
X136647904Y-87674010D01*
X136719764Y-87647071D01*
X136726943Y-87641691D01*
X136726946Y-87641689D01*
X136828224Y-87565785D01*
X136835404Y-87560404D01*
X136877698Y-87503971D01*
X136916689Y-87451946D01*
X136916691Y-87451943D01*
X136922071Y-87444764D01*
X136955704Y-87355046D01*
X136970026Y-87316843D01*
X136970026Y-87316841D01*
X136972798Y-87309448D01*
X136973651Y-87301598D01*
X136973651Y-87301597D01*
X136979131Y-87251153D01*
X136979131Y-87251152D01*
X136979500Y-87247756D01*
X136979500Y-86652244D01*
X136979131Y-86648848D01*
X136979131Y-86648847D01*
X136973651Y-86598403D01*
X136973651Y-86598402D01*
X136972798Y-86590552D01*
X136970026Y-86583159D01*
X136970026Y-86583157D01*
X136955704Y-86544954D01*
X136922071Y-86455236D01*
X136916691Y-86448057D01*
X136916689Y-86448054D01*
X136877698Y-86396029D01*
X136835404Y-86339596D01*
X136828224Y-86334215D01*
X136726946Y-86258311D01*
X136726943Y-86258309D01*
X136719764Y-86252929D01*
X136711360Y-86249779D01*
X136636271Y-86221629D01*
X136579506Y-86178988D01*
X136554806Y-86112426D01*
X136554500Y-86103647D01*
X136554500Y-81881871D01*
X136574502Y-81813750D01*
X136591405Y-81792776D01*
X141026244Y-77357937D01*
X141026244Y-86433000D01*
X140964552Y-86439702D01*
X140829236Y-86490429D01*
X140822057Y-86495809D01*
X140822054Y-86495811D01*
X140734023Y-86561787D01*
X140713596Y-86577096D01*
X140708215Y-86584276D01*
X140632311Y-86685554D01*
X140632309Y-86685557D01*
X140626929Y-86692736D01*
X140619059Y-86713731D01*
X140576417Y-86770494D01*
X140509856Y-86795194D01*
X140501077Y-86795500D01*
X140465274Y-86795500D01*
X140397153Y-86775498D01*
X140364449Y-86745066D01*
X140285404Y-86639596D01*
X140278224Y-86634215D01*
X140176946Y-86558311D01*
X140176943Y-86558309D01*
X140169764Y-86552929D01*
X140034448Y-86502202D01*
X140026598Y-86501349D01*
X140026597Y-86501349D01*
X140009365Y-86499477D01*
X139972756Y-86495500D01*
X138927244Y-86495500D01*
X138923848Y-86495869D01*
X138923847Y-86495869D01*
X138895132Y-86498989D01*
X138865552Y-86502202D01*
X138730236Y-86552929D01*
X138723057Y-86558309D01*
X138723054Y-86558311D01*
X138683122Y-86588239D01*
X138614596Y-86639596D01*
X138603625Y-86654235D01*
X138533311Y-86748054D01*
X138533309Y-86748057D01*
X138527929Y-86755236D01*
X138494296Y-86844954D01*
X138479974Y-86883157D01*
X138479974Y-86883159D01*
X138477202Y-86890552D01*
X138476349Y-86898402D01*
X138476349Y-86898403D01*
X138470869Y-86948847D01*
X138470500Y-86952244D01*
X138470500Y-87547756D01*
X138470869Y-87551153D01*
X138476349Y-87601597D01*
X138476349Y-87601598D01*
X138477202Y-87609448D01*
X138479974Y-87616841D01*
X138479974Y-87616843D01*
X138494296Y-87655046D01*
X138527929Y-87744764D01*
X138533309Y-87751943D01*
X138533311Y-87751946D01*
X138603625Y-87845765D01*
X138614596Y-87860404D01*
X138683122Y-87911761D01*
X138723054Y-87941689D01*
X138723057Y-87941691D01*
X138730236Y-87947071D01*
X138815728Y-87979120D01*
X138872493Y-88021761D01*
X138897194Y-88088322D01*
X138897500Y-88097102D01*
X138897500Y-88892501D01*
X138877498Y-88960622D01*
X138823842Y-89007115D01*
X138771500Y-89018501D01*
X138676934Y-89018501D01*
X138660222Y-89021825D01*
X138615662Y-89030688D01*
X138602699Y-89033266D01*
X138518516Y-89089516D01*
X138462266Y-89173699D01*
X138447500Y-89247933D01*
X138447500Y-89797911D01*
X138447501Y-90348066D01*
X138450456Y-90362921D01*
X138444128Y-90433631D01*
X138400575Y-90489699D01*
X138326877Y-90513500D01*
X136862485Y-90513500D01*
X136794364Y-90493498D01*
X136747871Y-90439842D01*
X136744504Y-90431732D01*
X136734571Y-90405236D01*
X136729191Y-90398057D01*
X136729189Y-90398054D01*
X136663213Y-90310023D01*
X136647904Y-90289596D01*
X136604935Y-90257393D01*
X136562420Y-90200535D01*
X136554500Y-90156567D01*
X136554500Y-89696353D01*
X136574502Y-89628232D01*
X136628158Y-89581739D01*
X136636271Y-89578371D01*
X136711360Y-89550221D01*
X136719764Y-89547071D01*
X136726943Y-89541691D01*
X136726946Y-89541689D01*
X136828224Y-89465785D01*
X136835404Y-89460404D01*
X136877698Y-89403971D01*
X136916689Y-89351946D01*
X136916691Y-89351943D01*
X136922071Y-89344764D01*
X136955704Y-89255046D01*
X136970026Y-89216843D01*
X136970026Y-89216841D01*
X136972798Y-89209448D01*
X136973651Y-89201598D01*
X136973651Y-89201597D01*
X136979131Y-89151153D01*
X136979131Y-89151152D01*
X136979500Y-89147756D01*
X136979500Y-88552244D01*
X136979131Y-88548848D01*
X136979131Y-88548847D01*
X136973651Y-88498403D01*
X136973651Y-88498402D01*
X136972798Y-88490552D01*
X136970026Y-88483159D01*
X136970026Y-88483157D01*
X136955704Y-88444954D01*
X136922071Y-88355236D01*
X136916691Y-88348057D01*
X136916689Y-88348054D01*
X136877698Y-88296029D01*
X136835404Y-88239596D01*
X136828224Y-88234215D01*
X136726946Y-88158311D01*
X136726943Y-88158309D01*
X136719764Y-88152929D01*
X136647904Y-88125990D01*
X136604936Y-88109883D01*
X136584448Y-88102202D01*
X136576598Y-88101349D01*
X136576597Y-88101349D01*
X136539446Y-88097313D01*
X136522756Y-88095500D01*
X135477244Y-88095500D01*
X135473848Y-88095869D01*
X135473847Y-88095869D01*
X135425498Y-88101122D01*
X135415552Y-88102202D01*
X135408159Y-88104974D01*
X135408157Y-88104974D01*
X135371842Y-88118588D01*
X135280236Y-88152929D01*
X135273057Y-88158309D01*
X135273054Y-88158311D01*
X135185023Y-88224287D01*
X135164596Y-88239596D01*
X135159215Y-88246776D01*
X135083311Y-88348054D01*
X135083309Y-88348057D01*
X135077929Y-88355236D01*
X135044296Y-88444954D01*
X135029974Y-88483157D01*
X135029974Y-88483159D01*
X135027202Y-88490552D01*
X135026349Y-88498402D01*
X135026349Y-88498403D01*
X135020869Y-88548847D01*
X135020500Y-88552244D01*
X135020500Y-89147756D01*
X135020869Y-89151153D01*
X135026349Y-89201597D01*
X135026349Y-89201598D01*
X135027202Y-89209448D01*
X135029974Y-89216841D01*
X135029974Y-89216843D01*
X135044296Y-89255046D01*
X135077929Y-89344764D01*
X135083309Y-89351943D01*
X135083311Y-89351946D01*
X135159215Y-89453224D01*
X135164596Y-89460404D01*
X135185023Y-89475713D01*
X135273054Y-89541689D01*
X135273057Y-89541691D01*
X135280236Y-89547071D01*
X135334326Y-89567348D01*
X135363729Y-89578371D01*
X135420494Y-89621012D01*
X135445194Y-89687574D01*
X135445500Y-89696353D01*
X135445500Y-90195801D01*
X135425498Y-90263922D01*
X135408942Y-90284465D01*
X135402096Y-90289596D01*
X135396715Y-90296776D01*
X135320811Y-90398054D01*
X135320809Y-90398057D01*
X135315429Y-90405236D01*
X135288640Y-90476697D01*
X135267474Y-90533157D01*
X135267474Y-90533159D01*
X135264702Y-90540552D01*
X135263849Y-90548402D01*
X135263849Y-90548403D01*
X135259671Y-90586862D01*
X135258000Y-90602244D01*
X135258000Y-91597756D01*
X135259671Y-91613138D01*
X135263849Y-91651597D01*
X135263849Y-91651598D01*
X135264702Y-91659448D01*
X135267474Y-91666841D01*
X135267474Y-91666843D01*
X135288640Y-91723303D01*
X135315429Y-91794764D01*
X135320809Y-91801943D01*
X135320811Y-91801946D01*
X135396715Y-91903224D01*
X135402096Y-91910404D01*
X135445194Y-91942704D01*
X135510554Y-91991689D01*
X135510557Y-91991691D01*
X135517736Y-91997071D01*
X135653052Y-92047798D01*
X135714744Y-92054500D01*
X136335256Y-92054500D01*
X136396948Y-92047798D01*
X136532264Y-91997071D01*
X136539443Y-91991691D01*
X136539446Y-91991689D01*
X136640724Y-91915785D01*
X136640725Y-91915784D01*
X136647904Y-91910404D01*
X136663213Y-91889977D01*
X136729189Y-91801946D01*
X136729191Y-91801943D01*
X136734571Y-91794764D01*
X136768495Y-91704271D01*
X136811136Y-91647506D01*
X136877698Y-91622806D01*
X136886477Y-91622500D01*
X138535504Y-91622500D01*
X138603625Y-91642502D01*
X138650118Y-91696158D01*
X138660222Y-91766432D01*
X138630728Y-91831012D01*
X138624288Y-91837906D01*
X138620659Y-91841509D01*
X138620656Y-91841513D01*
X138615662Y-91846472D01*
X138611888Y-91852418D01*
X138611887Y-91852420D01*
X138605169Y-91863006D01*
X138521957Y-91994128D01*
X138519592Y-92000771D01*
X138519592Y-92000770D01*
X138465656Y-92152239D01*
X138465655Y-92152244D01*
X138463294Y-92158874D01*
X138462461Y-92165862D01*
X138462460Y-92165865D01*
X138450456Y-92266534D01*
X138442587Y-92332524D01*
X138443323Y-92339527D01*
X138443323Y-92339528D01*
X138448708Y-92390761D01*
X138460867Y-92506445D01*
X138463136Y-92513111D01*
X138463137Y-92513114D01*
X138514955Y-92665328D01*
X138514956Y-92665331D01*
X138517225Y-92671995D01*
X138608859Y-92820945D01*
X138683122Y-92896779D01*
X138726288Y-92940859D01*
X138726289Y-92940860D01*
X138731216Y-92945891D01*
X138839757Y-93015841D01*
X138886180Y-93069555D01*
X138897500Y-93121751D01*
X138897500Y-96986925D01*
X138897390Y-96992201D01*
X138894772Y-97054674D01*
X138904788Y-97097376D01*
X138906951Y-97109051D01*
X138909102Y-97124754D01*
X138912905Y-97152518D01*
X138918953Y-97166493D01*
X138925987Y-97187763D01*
X138927502Y-97194222D01*
X138929463Y-97202583D01*
X138950603Y-97241037D01*
X138955818Y-97251683D01*
X138969830Y-97284063D01*
X138969832Y-97284067D01*
X138973242Y-97291946D01*
X138982821Y-97303775D01*
X138995312Y-97322363D01*
X139002652Y-97335715D01*
X139007426Y-97341245D01*
X139008198Y-97342140D01*
X139008204Y-97342147D01*
X139009710Y-97343891D01*
X139034453Y-97368634D01*
X139043279Y-97378435D01*
X139063444Y-97403338D01*
X139063447Y-97403341D01*
X139068850Y-97410013D01*
X139084364Y-97421038D01*
X139100464Y-97434645D01*
X139347232Y-97681413D01*
X139350885Y-97685221D01*
X139387416Y-97724948D01*
X139387417Y-97724949D01*
X139393226Y-97731266D01*
X139430506Y-97754381D01*
X139440288Y-97761104D01*
X139468395Y-97782438D01*
X139475235Y-97787630D01*
X139489396Y-97793237D01*
X139509402Y-97803300D01*
X139515037Y-97806794D01*
X139515046Y-97806798D01*
X139522344Y-97811323D01*
X139564480Y-97823565D01*
X139575707Y-97827409D01*
X139616490Y-97843556D01*
X139631633Y-97845148D01*
X139653606Y-97849459D01*
X139661896Y-97851867D01*
X139668235Y-97853709D01*
X139679007Y-97854500D01*
X139714005Y-97854500D01*
X139727176Y-97855190D01*
X139759037Y-97858539D01*
X139767581Y-97859437D01*
X139786346Y-97856263D01*
X139807348Y-97854500D01*
X140038019Y-97854500D01*
X140106140Y-97874502D01*
X140152633Y-97928158D01*
X140156001Y-97936271D01*
X140169247Y-97971604D01*
X140177929Y-97994764D01*
X140183309Y-98001943D01*
X140183311Y-98001946D01*
X140259215Y-98103224D01*
X140259216Y-98103225D01*
X140264596Y-98110404D01*
X140290212Y-98129602D01*
X140373054Y-98191689D01*
X140373057Y-98191691D01*
X140380236Y-98197071D01*
X140515552Y-98247798D01*
X140561830Y-98252826D01*
X140573847Y-98254131D01*
X140573848Y-98254131D01*
X140577244Y-98254500D01*
X141197756Y-98254500D01*
X141259448Y-98247798D01*
X141394764Y-98197071D01*
X141401943Y-98191691D01*
X141401946Y-98191689D01*
X141503224Y-98115785D01*
X141510404Y-98110404D01*
X141525713Y-98089977D01*
X141591689Y-98001946D01*
X141591691Y-98001943D01*
X141597071Y-97994764D01*
X141630704Y-97905046D01*
X141645026Y-97866843D01*
X141645026Y-97866841D01*
X141647798Y-97859448D01*
X141648651Y-97851598D01*
X141648651Y-97851597D01*
X141654131Y-97801153D01*
X141654131Y-97801152D01*
X141654500Y-97797756D01*
X141654500Y-96802244D01*
X141654131Y-96798848D01*
X141654131Y-96798847D01*
X141648651Y-96748403D01*
X141648651Y-96748402D01*
X141647798Y-96740552D01*
X141645026Y-96733159D01*
X141645026Y-96733157D01*
X141630704Y-96694954D01*
X141597071Y-96605236D01*
X141591691Y-96598057D01*
X141591689Y-96598054D01*
X141525713Y-96510023D01*
X141510404Y-96489596D01*
X141503224Y-96484215D01*
X141401946Y-96408311D01*
X141401943Y-96408309D01*
X141394764Y-96402929D01*
X141259448Y-96352202D01*
X141197756Y-96345500D01*
X140577244Y-96345500D01*
X140573848Y-96345869D01*
X140573847Y-96345869D01*
X140561830Y-96347175D01*
X140515552Y-96352202D01*
X140380236Y-96402929D01*
X140373057Y-96408309D01*
X140373054Y-96408311D01*
X140290212Y-96470398D01*
X140264596Y-96489596D01*
X140233326Y-96531320D01*
X140176468Y-96573835D01*
X140105649Y-96578861D01*
X140043356Y-96544801D01*
X140009365Y-96482471D01*
X140006500Y-96455755D01*
X140006500Y-93121169D01*
X140026502Y-93053048D01*
X140065730Y-93014315D01*
X140158274Y-92956487D01*
X140164248Y-92952754D01*
X140169764Y-92947277D01*
X140277850Y-92839943D01*
X140288338Y-92829528D01*
X140295141Y-92818809D01*
X140375168Y-92692705D01*
X140382043Y-92681872D01*
X140397153Y-92639438D01*
X140438344Y-92523761D01*
X140438345Y-92523756D01*
X140440706Y-92517126D01*
X140441539Y-92510138D01*
X140441540Y-92510135D01*
X140456500Y-92384677D01*
X140461413Y-92343476D01*
X140460677Y-92336473D01*
X140460677Y-92336472D01*
X140456500Y-92296732D01*
X140443133Y-92169555D01*
X140440864Y-92162889D01*
X140440863Y-92162886D01*
X140389045Y-92010672D01*
X140389044Y-92010669D01*
X140386775Y-92004005D01*
X140295141Y-91855055D01*
X140278224Y-91837780D01*
X140232610Y-91791201D01*
X140199239Y-91728536D01*
X140205045Y-91657777D01*
X140233849Y-91613638D01*
X140288338Y-91559528D01*
X140295141Y-91548809D01*
X140375168Y-91422705D01*
X140382043Y-91411872D01*
X140397153Y-91369438D01*
X140438344Y-91253761D01*
X140438345Y-91253756D01*
X140440706Y-91247126D01*
X140441539Y-91240138D01*
X140441540Y-91240135D01*
X140456500Y-91114677D01*
X140461413Y-91073476D01*
X140460677Y-91066473D01*
X140460677Y-91066472D01*
X140456500Y-91026732D01*
X140443133Y-90899555D01*
X140440864Y-90892889D01*
X140440863Y-90892886D01*
X140389045Y-90740672D01*
X140389044Y-90740669D01*
X140386775Y-90734005D01*
X140353141Y-90679334D01*
X140350462Y-90674979D01*
X140331803Y-90606478D01*
X140353141Y-90538764D01*
X140368684Y-90519861D01*
X140375168Y-90513377D01*
X140385484Y-90506484D01*
X140441734Y-90422301D01*
X140456500Y-90348067D01*
X140456500Y-89798089D01*
X140456499Y-89247934D01*
X140449388Y-89212182D01*
X140444156Y-89185874D01*
X140444155Y-89185872D01*
X140441734Y-89173699D01*
X140434839Y-89163379D01*
X140434838Y-89163378D01*
X140421307Y-89143128D01*
X140385484Y-89089516D01*
X140301301Y-89033266D01*
X140227067Y-89018500D01*
X140132500Y-89018500D01*
X140064379Y-88998498D01*
X140017886Y-88944842D01*
X140006500Y-88892500D01*
X140006500Y-88095603D01*
X140026502Y-88027482D01*
X140080158Y-87980989D01*
X140088271Y-87977621D01*
X140126664Y-87963228D01*
X140169764Y-87947071D01*
X140176943Y-87941691D01*
X140176946Y-87941689D01*
X140278224Y-87865785D01*
X140285404Y-87860404D01*
X140364449Y-87754935D01*
X140421307Y-87712420D01*
X140465274Y-87704500D01*
X140561830Y-87704500D01*
X140629951Y-87724502D01*
X140662656Y-87754935D01*
X140708215Y-87815724D01*
X140713596Y-87822904D01*
X140734023Y-87838213D01*
X140822054Y-87904189D01*
X140822057Y-87904191D01*
X140829236Y-87909571D01*
X140964552Y-87960298D01*
X141026244Y-87967000D01*
X142021756Y-87967000D01*
X142083448Y-87960298D01*
X142218764Y-87909571D01*
X142225943Y-87904191D01*
X142225946Y-87904189D01*
X142327224Y-87828285D01*
X142334404Y-87822904D01*
X142385344Y-87754935D01*
X142442203Y-87712420D01*
X142486170Y-87704500D01*
X142584726Y-87704500D01*
X142652847Y-87724502D01*
X142685552Y-87754935D01*
X142759215Y-87853224D01*
X142764596Y-87860404D01*
X142785023Y-87875713D01*
X142873054Y-87941689D01*
X142873057Y-87941691D01*
X142880236Y-87947071D01*
X143015552Y-87997798D01*
X143077244Y-88004500D01*
X144122756Y-88004500D01*
X144184448Y-87997798D01*
X144319764Y-87947071D01*
X144326943Y-87941691D01*
X144326946Y-87941689D01*
X144428224Y-87865785D01*
X144435404Y-87860404D01*
X144498847Y-87775752D01*
X144516689Y-87751946D01*
X144516691Y-87751943D01*
X144522071Y-87744764D01*
X144555704Y-87655046D01*
X144570026Y-87616843D01*
X144570026Y-87616841D01*
X144572798Y-87609448D01*
X144573651Y-87601598D01*
X144573651Y-87601597D01*
X144579131Y-87551153D01*
X144579131Y-87551152D01*
X144579500Y-87547756D01*
X144579500Y-86952244D01*
X144579131Y-86948848D01*
X144579131Y-86948847D01*
X144573651Y-86898403D01*
X144573651Y-86898402D01*
X144572798Y-86890552D01*
X144570026Y-86883159D01*
X144570026Y-86883157D01*
X144555704Y-86844954D01*
X144522071Y-86755236D01*
X144516691Y-86748057D01*
X144516689Y-86748054D01*
X144498847Y-86724248D01*
X144435404Y-86639596D01*
X144428224Y-86634215D01*
X144326946Y-86558311D01*
X144326943Y-86558309D01*
X144319764Y-86552929D01*
X144184448Y-86502202D01*
X144122756Y-86495500D01*
X143077244Y-86495500D01*
X143015552Y-86502202D01*
X142880236Y-86552929D01*
X142873057Y-86558309D01*
X142873054Y-86558311D01*
X142785023Y-86624287D01*
X142764596Y-86639596D01*
X142759215Y-86646776D01*
X142685552Y-86745065D01*
X142628693Y-86787580D01*
X142584726Y-86795500D01*
X142546923Y-86795500D01*
X142478802Y-86775498D01*
X142432309Y-86721842D01*
X142428943Y-86713735D01*
X142421071Y-86692736D01*
X142415691Y-86685557D01*
X142415689Y-86685554D01*
X142398847Y-86663082D01*
X142334404Y-86577096D01*
X142327224Y-86571715D01*
X142225946Y-86495811D01*
X142225943Y-86495809D01*
X142218764Y-86490429D01*
X142083448Y-86439702D01*
X142021756Y-86433000D01*
X141026244Y-86433000D01*
X141026244Y-77357937D01*
X146392776Y-71991405D01*
X146455088Y-71957379D01*
X146481871Y-71954500D01*
X148314794Y-71954500D01*
X148314794Y-93840501D01*
X148108722Y-93857806D01*
X147909934Y-93914807D01*
X147904452Y-93917625D01*
X147904448Y-93917626D01*
X147731491Y-94006514D01*
X147731487Y-94006517D01*
X147726005Y-94009334D01*
X147563939Y-94137786D01*
X147429909Y-94295271D01*
X147329020Y-94475789D01*
X147265116Y-94672466D01*
X147240630Y-94877809D01*
X147241102Y-94883944D01*
X147241102Y-94883946D01*
X147256023Y-95077856D01*
X147256024Y-95077860D01*
X147256496Y-95083998D01*
X147312108Y-95283178D01*
X147314888Y-95288682D01*
X147314889Y-95288684D01*
X147402569Y-95462262D01*
X147402570Y-95462264D01*
X147405348Y-95467763D01*
X147532666Y-95630722D01*
X147537330Y-95634748D01*
X147537333Y-95634751D01*
X147684543Y-95761819D01*
X147684545Y-95761820D01*
X147689211Y-95765848D01*
X147781738Y-95818411D01*
X147831087Y-95869449D01*
X147845500Y-95927966D01*
X147845500Y-96384726D01*
X147825498Y-96452847D01*
X147795066Y-96485551D01*
X147689596Y-96564596D01*
X147684215Y-96571776D01*
X147608311Y-96673054D01*
X147608309Y-96673057D01*
X147602929Y-96680236D01*
X147569296Y-96769954D01*
X147554974Y-96808157D01*
X147554974Y-96808159D01*
X147552202Y-96815552D01*
X147551349Y-96823402D01*
X147551349Y-96823403D01*
X147550867Y-96827842D01*
X147550295Y-96833107D01*
X147523054Y-96898669D01*
X147464691Y-96939096D01*
X147425032Y-96945500D01*
X146036231Y-96945500D01*
X145968110Y-96925498D01*
X145921617Y-96871842D01*
X145918249Y-96863729D01*
X145897071Y-96807236D01*
X145891691Y-96800057D01*
X145891689Y-96800054D01*
X145834738Y-96724065D01*
X145810404Y-96691596D01*
X145803224Y-96686215D01*
X145701946Y-96610311D01*
X145701943Y-96610309D01*
X145694764Y-96604929D01*
X145559448Y-96554202D01*
X145497756Y-96547500D01*
X144502244Y-96547500D01*
X144440552Y-96554202D01*
X144305236Y-96604929D01*
X144298057Y-96610309D01*
X144298054Y-96610311D01*
X144210023Y-96676287D01*
X144189596Y-96691596D01*
X144112049Y-96795067D01*
X144055192Y-96837580D01*
X144011225Y-96845500D01*
X143596291Y-96845500D01*
X143528170Y-96825498D01*
X143481677Y-96771842D01*
X143473709Y-96748647D01*
X143473651Y-96748402D01*
X143472798Y-96740552D01*
X143470026Y-96733159D01*
X143470026Y-96733157D01*
X143455704Y-96694954D01*
X143422071Y-96605236D01*
X143416691Y-96598057D01*
X143416689Y-96598054D01*
X143350713Y-96510023D01*
X143335404Y-96489596D01*
X143328224Y-96484215D01*
X143226946Y-96408311D01*
X143226943Y-96408309D01*
X143219764Y-96402929D01*
X143084448Y-96352202D01*
X143022756Y-96345500D01*
X142402244Y-96345500D01*
X142340552Y-96352202D01*
X142205236Y-96402929D01*
X142198057Y-96408309D01*
X142198054Y-96408311D01*
X142110023Y-96474287D01*
X142089596Y-96489596D01*
X142084215Y-96496776D01*
X142008311Y-96598054D01*
X142008309Y-96598057D01*
X142002929Y-96605236D01*
X141969296Y-96694954D01*
X141954974Y-96733157D01*
X141954974Y-96733159D01*
X141952202Y-96740552D01*
X141951349Y-96748402D01*
X141951349Y-96748403D01*
X141945869Y-96798847D01*
X141945500Y-96802244D01*
X141945500Y-97797756D01*
X141945869Y-97801153D01*
X141951349Y-97851597D01*
X141951349Y-97851598D01*
X141952202Y-97859448D01*
X141954974Y-97866841D01*
X141954974Y-97866843D01*
X141969296Y-97905046D01*
X142002929Y-97994764D01*
X142008309Y-98001943D01*
X142008311Y-98001946D01*
X142084215Y-98103224D01*
X142089596Y-98110404D01*
X142110023Y-98125713D01*
X142198054Y-98191689D01*
X142198057Y-98191691D01*
X142205236Y-98197071D01*
X142340552Y-98247798D01*
X142402244Y-98254500D01*
X143022756Y-98254500D01*
X143084448Y-98247798D01*
X143219764Y-98197071D01*
X143226943Y-98191691D01*
X143226946Y-98191689D01*
X143328224Y-98115785D01*
X143335404Y-98110404D01*
X143350713Y-98089977D01*
X143416689Y-98001946D01*
X143416691Y-98001943D01*
X143422071Y-97994764D01*
X143455704Y-97905046D01*
X143470026Y-97866843D01*
X143470026Y-97866841D01*
X143472798Y-97859448D01*
X143473651Y-97851598D01*
X143473709Y-97851353D01*
X143508927Y-97789707D01*
X143571882Y-97756887D01*
X143596291Y-97754500D01*
X143992889Y-97754500D01*
X144061010Y-97774502D01*
X144101494Y-97817937D01*
X144102929Y-97821764D01*
X144189596Y-97937404D01*
X144210023Y-97952713D01*
X144298054Y-98018689D01*
X144298057Y-98018691D01*
X144305236Y-98024071D01*
X144440552Y-98074798D01*
X144502244Y-98081500D01*
X145497756Y-98081500D01*
X145559448Y-98074798D01*
X145694764Y-98024071D01*
X145701943Y-98018691D01*
X145701946Y-98018689D01*
X145803224Y-97942785D01*
X145810404Y-97937404D01*
X145834738Y-97904935D01*
X145891597Y-97862420D01*
X145935564Y-97854500D01*
X147425032Y-97854500D01*
X147493153Y-97874502D01*
X147539646Y-97928158D01*
X147550295Y-97966892D01*
X147550867Y-97972158D01*
X147551349Y-97976597D01*
X147551349Y-97976598D01*
X147552202Y-97984448D01*
X147554974Y-97991841D01*
X147554974Y-97991843D01*
X147569296Y-98030046D01*
X147602929Y-98119764D01*
X147608309Y-98126943D01*
X147608311Y-98126946D01*
X147684215Y-98228224D01*
X147689596Y-98235404D01*
X147726005Y-98262691D01*
X147798054Y-98316689D01*
X147798057Y-98316691D01*
X147805236Y-98322071D01*
X147940552Y-98372798D01*
X148002244Y-98379500D01*
X148597756Y-98379500D01*
X148659448Y-98372798D01*
X148794764Y-98322071D01*
X148801943Y-98316691D01*
X148801946Y-98316689D01*
X148903224Y-98240785D01*
X148910404Y-98235404D01*
X148925713Y-98214977D01*
X148991689Y-98126946D01*
X148991691Y-98126943D01*
X148997071Y-98119764D01*
X149041857Y-98000296D01*
X149045026Y-97991843D01*
X149045026Y-97991841D01*
X149047798Y-97984448D01*
X149048651Y-97976598D01*
X149048651Y-97976597D01*
X149054131Y-97926153D01*
X149054131Y-97926152D01*
X149054500Y-97922756D01*
X149054500Y-96877244D01*
X149054131Y-96873848D01*
X149054131Y-96873847D01*
X149048651Y-96823403D01*
X149048651Y-96823402D01*
X149047798Y-96815552D01*
X149045026Y-96808159D01*
X149045026Y-96808157D01*
X149041857Y-96799704D01*
X148997071Y-96680236D01*
X148991691Y-96673057D01*
X148991689Y-96673054D01*
X148925713Y-96585023D01*
X148910404Y-96564596D01*
X148898640Y-96555780D01*
X148804935Y-96485552D01*
X148762420Y-96428693D01*
X148754500Y-96384726D01*
X148754500Y-95928392D01*
X148774502Y-95860271D01*
X148821347Y-95817141D01*
X148880933Y-95785459D01*
X148880936Y-95785457D01*
X148886375Y-95782565D01*
X148891145Y-95778674D01*
X148891149Y-95778672D01*
X149041857Y-95655758D01*
X149041860Y-95655755D01*
X149046632Y-95651863D01*
X149052338Y-95644966D01*
X149174522Y-95497271D01*
X149174525Y-95497266D01*
X149178450Y-95492522D01*
X149181380Y-95487103D01*
X149181382Y-95487100D01*
X149273878Y-95316032D01*
X149273880Y-95316027D01*
X149276808Y-95310612D01*
X149337960Y-95113063D01*
X149338604Y-95106938D01*
X149338604Y-95106937D01*
X149358932Y-94913526D01*
X149358932Y-94913524D01*
X149359576Y-94907397D01*
X149348094Y-94781229D01*
X149341393Y-94707591D01*
X149341393Y-94707590D01*
X149340834Y-94701450D01*
X149282446Y-94503066D01*
X149279589Y-94497601D01*
X149189492Y-94325261D01*
X149189489Y-94325257D01*
X149186637Y-94319801D01*
X149057057Y-94158635D01*
X148898640Y-94025708D01*
X148717422Y-93926082D01*
X148520304Y-93863553D01*
X148314794Y-93840501D01*
X148314794Y-71954500D01*
X154725067Y-71954500D01*
X154725067Y-95945500D01*
X152274934Y-95945501D01*
X152200699Y-95960266D01*
X152116516Y-96016516D01*
X152060266Y-96100699D01*
X152045500Y-96174933D01*
X152045500Y-96819500D01*
X152025498Y-96887621D01*
X151971842Y-96934114D01*
X151919500Y-96945500D01*
X151074968Y-96945500D01*
X151006847Y-96925498D01*
X150960354Y-96871842D01*
X150949705Y-96833108D01*
X150949133Y-96827842D01*
X150948651Y-96823403D01*
X150948651Y-96823402D01*
X150947798Y-96815552D01*
X150945026Y-96808159D01*
X150945026Y-96808157D01*
X150930704Y-96769954D01*
X150897071Y-96680236D01*
X150891691Y-96673057D01*
X150891689Y-96673054D01*
X150825713Y-96585023D01*
X150810404Y-96564596D01*
X150803224Y-96559215D01*
X150701946Y-96483311D01*
X150701943Y-96483309D01*
X150694764Y-96477929D01*
X150559448Y-96427202D01*
X150497756Y-96420500D01*
X149902244Y-96420500D01*
X149840552Y-96427202D01*
X149705236Y-96477929D01*
X149698057Y-96483309D01*
X149698054Y-96483311D01*
X149610023Y-96549287D01*
X149589596Y-96564596D01*
X149584215Y-96571776D01*
X149508311Y-96673054D01*
X149508309Y-96673057D01*
X149502929Y-96680236D01*
X149469296Y-96769954D01*
X149454974Y-96808157D01*
X149454974Y-96808159D01*
X149452202Y-96815552D01*
X149451349Y-96823402D01*
X149451349Y-96823403D01*
X149445869Y-96873847D01*
X149445500Y-96877244D01*
X149445500Y-97922756D01*
X149445869Y-97926153D01*
X149451349Y-97976597D01*
X149451349Y-97976598D01*
X149452202Y-97984448D01*
X149454974Y-97991841D01*
X149454974Y-97991843D01*
X149469296Y-98030046D01*
X149502929Y-98119764D01*
X149508309Y-98126943D01*
X149508311Y-98126946D01*
X149584215Y-98228224D01*
X149589596Y-98235404D01*
X149695065Y-98314449D01*
X149737580Y-98371307D01*
X149745500Y-98415274D01*
X149745500Y-98784726D01*
X149725498Y-98852847D01*
X149695066Y-98885551D01*
X149589596Y-98964596D01*
X149584215Y-98971776D01*
X149508311Y-99073054D01*
X149508309Y-99073057D01*
X149502929Y-99080236D01*
X149469296Y-99169954D01*
X149454974Y-99208157D01*
X149454974Y-99208159D01*
X149452202Y-99215552D01*
X149451349Y-99223402D01*
X149451349Y-99223403D01*
X149445869Y-99273847D01*
X149445500Y-99277244D01*
X149445500Y-100322756D01*
X149445869Y-100326153D01*
X149451349Y-100376597D01*
X149451349Y-100376598D01*
X149452202Y-100384448D01*
X149454974Y-100391841D01*
X149454974Y-100391843D01*
X149469296Y-100430046D01*
X149502929Y-100519764D01*
X149508309Y-100526943D01*
X149508311Y-100526946D01*
X149584215Y-100628224D01*
X149589596Y-100635404D01*
X149610023Y-100650713D01*
X149698054Y-100716689D01*
X149698057Y-100716691D01*
X149705236Y-100722071D01*
X149840552Y-100772798D01*
X149902244Y-100779500D01*
X150497756Y-100779500D01*
X150559448Y-100772798D01*
X150694764Y-100722071D01*
X150701943Y-100716691D01*
X150701946Y-100716689D01*
X150803224Y-100640785D01*
X150810404Y-100635404D01*
X150825713Y-100614977D01*
X150891689Y-100526946D01*
X150891691Y-100526943D01*
X150897071Y-100519764D01*
X150930704Y-100430046D01*
X150945026Y-100391843D01*
X150945026Y-100391841D01*
X150947798Y-100384448D01*
X150948651Y-100376598D01*
X150948651Y-100376597D01*
X150954131Y-100326153D01*
X150954131Y-100326152D01*
X150954500Y-100322756D01*
X150954500Y-99277244D01*
X150954131Y-99273848D01*
X150954131Y-99273847D01*
X150948651Y-99223403D01*
X150948651Y-99223402D01*
X150947798Y-99215552D01*
X150945026Y-99208159D01*
X150945026Y-99208157D01*
X150930704Y-99169954D01*
X150897071Y-99080236D01*
X150891691Y-99073057D01*
X150891689Y-99073054D01*
X150825713Y-98985023D01*
X150810404Y-98964596D01*
X150803224Y-98959215D01*
X150704935Y-98885552D01*
X150662420Y-98828693D01*
X150654500Y-98784726D01*
X150654500Y-98415274D01*
X150674502Y-98347153D01*
X150704935Y-98314448D01*
X150803224Y-98240785D01*
X150810404Y-98235404D01*
X150825713Y-98214977D01*
X150891689Y-98126946D01*
X150891691Y-98126943D01*
X150897071Y-98119764D01*
X150930704Y-98030046D01*
X150945026Y-97991843D01*
X150945026Y-97991841D01*
X150947798Y-97984448D01*
X150948651Y-97976598D01*
X150948651Y-97976597D01*
X150949133Y-97972158D01*
X150949705Y-97966893D01*
X150976946Y-97901331D01*
X151035309Y-97860904D01*
X151074968Y-97854500D01*
X151919501Y-97854500D01*
X151987622Y-97874502D01*
X152034115Y-97928158D01*
X152045501Y-97980500D01*
X152045501Y-98625066D01*
X152052612Y-98660818D01*
X152057844Y-98687126D01*
X152057845Y-98687128D01*
X152060266Y-98699301D01*
X152067161Y-98709621D01*
X152067162Y-98709622D01*
X152109623Y-98773168D01*
X152116516Y-98783484D01*
X152200699Y-98839734D01*
X152274933Y-98854500D01*
X154725066Y-98854499D01*
X154799301Y-98839734D01*
X154883484Y-98783484D01*
X154939734Y-98699301D01*
X154954500Y-98625067D01*
X154954500Y-97980500D01*
X154974502Y-97912379D01*
X155028158Y-97865886D01*
X155080500Y-97854500D01*
X156369501Y-97854500D01*
X156437622Y-97874502D01*
X156484115Y-97928158D01*
X156495501Y-97980500D01*
X156495501Y-98625066D01*
X156502612Y-98660818D01*
X156507844Y-98687126D01*
X156507845Y-98687128D01*
X156510266Y-98699301D01*
X156517161Y-98709621D01*
X156517162Y-98709622D01*
X156559623Y-98773168D01*
X156566516Y-98783484D01*
X156650699Y-98839734D01*
X156724933Y-98854500D01*
X159175066Y-98854499D01*
X159249301Y-98839734D01*
X159333484Y-98783484D01*
X159389734Y-98699301D01*
X159404500Y-98625067D01*
X159404500Y-97980500D01*
X159424502Y-97912379D01*
X159478158Y-97865886D01*
X159530500Y-97854500D01*
X160806422Y-97854500D01*
X160874543Y-97874502D01*
X160881987Y-97879674D01*
X160948054Y-97929189D01*
X160948057Y-97929191D01*
X160955236Y-97934571D01*
X161090552Y-97985298D01*
X161152244Y-97992000D01*
X162147756Y-97992000D01*
X162209448Y-97985298D01*
X162344764Y-97934571D01*
X162351943Y-97929191D01*
X162351946Y-97929189D01*
X162453224Y-97853285D01*
X162460404Y-97847904D01*
X162478224Y-97824127D01*
X162541689Y-97739446D01*
X162541691Y-97739443D01*
X162547071Y-97732264D01*
X162585520Y-97629700D01*
X162595026Y-97604343D01*
X162595026Y-97604341D01*
X162597798Y-97596948D01*
X162598651Y-97589098D01*
X162598651Y-97589097D01*
X162604131Y-97538653D01*
X162604131Y-97538652D01*
X162604500Y-97535256D01*
X162604500Y-96914744D01*
X162604131Y-96911348D01*
X162604131Y-96911347D01*
X162598651Y-96860903D01*
X162598651Y-96860902D01*
X162597798Y-96853052D01*
X162595026Y-96845659D01*
X162595026Y-96845657D01*
X162585520Y-96820300D01*
X162547071Y-96717736D01*
X162541691Y-96710557D01*
X162541689Y-96710554D01*
X162478224Y-96625873D01*
X162460404Y-96602096D01*
X162453224Y-96596715D01*
X162351946Y-96520811D01*
X162351943Y-96520809D01*
X162344764Y-96515429D01*
X162209448Y-96464702D01*
X162147756Y-96458000D01*
X161152244Y-96458000D01*
X161090552Y-96464702D01*
X160955236Y-96515429D01*
X160948057Y-96520809D01*
X160948054Y-96520811D01*
X160930236Y-96534165D01*
X160839596Y-96602096D01*
X160834215Y-96609276D01*
X160758311Y-96710554D01*
X160758309Y-96710557D01*
X160752929Y-96717736D01*
X160703069Y-96850739D01*
X160703068Y-96850741D01*
X160702202Y-96853052D01*
X160701828Y-96852912D01*
X160669044Y-96910295D01*
X160606087Y-96943114D01*
X160581681Y-96945500D01*
X159530499Y-96945500D01*
X159462378Y-96925498D01*
X159415885Y-96871842D01*
X159404499Y-96819500D01*
X159404499Y-96174934D01*
X159397388Y-96139182D01*
X159392156Y-96112874D01*
X159392155Y-96112872D01*
X159389734Y-96100699D01*
X159382839Y-96090379D01*
X159382838Y-96090378D01*
X159342484Y-96029985D01*
X159333484Y-96016516D01*
X159249301Y-95960266D01*
X159175067Y-95945500D01*
X156724934Y-95945501D01*
X156650699Y-95960266D01*
X156566516Y-96016516D01*
X156510266Y-96100699D01*
X156495500Y-96174933D01*
X156495500Y-96819500D01*
X156475498Y-96887621D01*
X156421842Y-96934114D01*
X156369500Y-96945500D01*
X155080499Y-96945500D01*
X155012378Y-96925498D01*
X154965885Y-96871842D01*
X154954499Y-96819500D01*
X154954499Y-96174934D01*
X154947388Y-96139182D01*
X154942156Y-96112874D01*
X154942155Y-96112872D01*
X154939734Y-96100699D01*
X154932839Y-96090379D01*
X154932838Y-96090378D01*
X154892484Y-96029985D01*
X154883484Y-96016516D01*
X154799301Y-95960266D01*
X154725067Y-95945500D01*
X154725067Y-71954500D01*
X164669501Y-71954500D01*
X164737622Y-71974502D01*
X164784115Y-72028158D01*
X164795501Y-72080500D01*
X164795501Y-72825066D01*
X164802612Y-72860818D01*
X164807844Y-72887126D01*
X164807845Y-72887128D01*
X164810266Y-72899301D01*
X164817161Y-72909621D01*
X164817162Y-72909622D01*
X164859623Y-72973168D01*
X164866516Y-72983484D01*
X164950699Y-73039734D01*
X165024933Y-73054500D01*
X165700067Y-73054500D01*
X165700067Y-82645500D01*
X163949934Y-82645501D01*
X163875699Y-82660266D01*
X163791516Y-82716516D01*
X163735266Y-82800699D01*
X163720500Y-82874933D01*
X163720500Y-83749858D01*
X163720501Y-84625066D01*
X163727612Y-84660818D01*
X163732844Y-84687126D01*
X163732845Y-84687128D01*
X163735266Y-84699301D01*
X163742161Y-84709621D01*
X163742162Y-84709622D01*
X163784623Y-84773168D01*
X163791516Y-84783484D01*
X163875699Y-84839734D01*
X163949933Y-84854500D01*
X165093128Y-84854499D01*
X165161249Y-84874501D01*
X165182223Y-84891404D01*
X166608595Y-86317776D01*
X166642621Y-86380088D01*
X166645500Y-86406871D01*
X166645500Y-90114743D01*
X166625498Y-90182864D01*
X166620326Y-90190308D01*
X166558311Y-90273054D01*
X166558309Y-90273057D01*
X166552929Y-90280236D01*
X166519296Y-90369954D01*
X166504974Y-90408157D01*
X166504974Y-90408159D01*
X166502202Y-90415552D01*
X166501349Y-90423402D01*
X166501349Y-90423403D01*
X166495869Y-90473847D01*
X166495500Y-90477244D01*
X166495500Y-91522756D01*
X166495869Y-91526153D01*
X166501349Y-91576597D01*
X166501349Y-91576598D01*
X166502202Y-91584448D01*
X166504974Y-91591841D01*
X166504974Y-91591843D01*
X166542220Y-91691197D01*
X166552929Y-91719764D01*
X166570326Y-91742977D01*
X166595174Y-91809483D01*
X166595500Y-91818542D01*
X166595500Y-94162822D01*
X166575498Y-94230943D01*
X166542221Y-94265718D01*
X166397000Y-94368350D01*
X166248941Y-94520337D01*
X166245736Y-94525133D01*
X166245734Y-94525136D01*
X166150820Y-94667186D01*
X166131059Y-94696760D01*
X166128781Y-94702063D01*
X166128779Y-94702066D01*
X166093617Y-94783908D01*
X166047301Y-94891711D01*
X166030095Y-94967750D01*
X166001748Y-95093025D01*
X166001747Y-95093030D01*
X166000473Y-95098662D01*
X166000246Y-95104433D01*
X166000246Y-95104435D01*
X165997674Y-95169911D01*
X165992143Y-95310681D01*
X166007367Y-95415674D01*
X166021761Y-95514953D01*
X166021762Y-95514958D01*
X166022590Y-95520667D01*
X166024445Y-95526131D01*
X166024446Y-95526136D01*
X166056051Y-95619240D01*
X166090793Y-95721589D01*
X166134269Y-95799221D01*
X166191643Y-95901670D01*
X166191646Y-95901674D01*
X166194470Y-95906717D01*
X166330148Y-96069852D01*
X166493283Y-96205530D01*
X166498326Y-96208354D01*
X166498330Y-96208357D01*
X166673368Y-96306383D01*
X166673370Y-96306384D01*
X166678411Y-96309207D01*
X166780760Y-96343949D01*
X166873864Y-96375554D01*
X166873869Y-96375555D01*
X166879333Y-96377410D01*
X166963021Y-96389545D01*
X167012160Y-96396669D01*
X167089319Y-96407857D01*
X167150000Y-96409446D01*
X167361292Y-96390031D01*
X167388774Y-96382281D01*
X167559949Y-96334004D01*
X167559951Y-96334003D01*
X167565508Y-96332436D01*
X167576149Y-96327189D01*
X167750628Y-96241145D01*
X167755809Y-96238590D01*
X167925821Y-96111636D01*
X167929737Y-96107400D01*
X168065931Y-95960066D01*
X168065933Y-95960063D01*
X168069850Y-95955826D01*
X168183074Y-95776377D01*
X168261700Y-95579300D01*
X168262825Y-95573643D01*
X168262827Y-95573637D01*
X168301967Y-95376863D01*
X168301967Y-95376859D01*
X168303094Y-95371195D01*
X168303170Y-95365420D01*
X168303170Y-95365416D01*
X168304566Y-95258804D01*
X168305872Y-95159031D01*
X168304893Y-95153334D01*
X168304893Y-95153333D01*
X168270918Y-94955610D01*
X168269939Y-94949913D01*
X168196499Y-94750846D01*
X168193547Y-94745885D01*
X168193547Y-94745884D01*
X168090968Y-94573463D01*
X168090966Y-94573460D01*
X168088012Y-94568495D01*
X168084206Y-94564155D01*
X168084203Y-94564151D01*
X167997798Y-94465626D01*
X167948110Y-94408968D01*
X167943575Y-94405393D01*
X167943574Y-94405392D01*
X167853224Y-94334166D01*
X167781480Y-94277607D01*
X167776371Y-94274919D01*
X167776366Y-94274916D01*
X167771828Y-94272528D01*
X167720857Y-94223107D01*
X167704500Y-94161022D01*
X167704500Y-92015274D01*
X167724502Y-91947153D01*
X167754935Y-91914448D01*
X167756868Y-91913000D01*
X167860404Y-91835404D01*
X167921197Y-91754288D01*
X167941689Y-91726946D01*
X167941691Y-91726943D01*
X167947071Y-91719764D01*
X167980704Y-91630046D01*
X167995026Y-91591843D01*
X167995026Y-91591841D01*
X167997798Y-91584448D01*
X167998651Y-91576598D01*
X167998651Y-91576597D01*
X168004131Y-91526153D01*
X168004131Y-91526152D01*
X168004500Y-91522756D01*
X168004500Y-90477244D01*
X168004131Y-90473848D01*
X168004131Y-90473847D01*
X167998651Y-90423403D01*
X167998651Y-90423402D01*
X167997798Y-90415552D01*
X167995026Y-90408159D01*
X167995026Y-90408157D01*
X167980704Y-90369954D01*
X167947071Y-90280236D01*
X167941691Y-90273057D01*
X167941689Y-90273054D01*
X167921197Y-90245712D01*
X167860404Y-90164596D01*
X167804935Y-90123025D01*
X167762420Y-90066167D01*
X167754500Y-90022199D01*
X167754500Y-86140074D01*
X167754610Y-86134798D01*
X167757228Y-86072326D01*
X167755266Y-86063961D01*
X167747212Y-86029622D01*
X167745049Y-86017949D01*
X167742898Y-86002246D01*
X167739095Y-85974482D01*
X167733593Y-85961767D01*
X167733047Y-85960506D01*
X167726013Y-85939237D01*
X167722537Y-85924417D01*
X167701397Y-85885963D01*
X167696182Y-85875317D01*
X167682170Y-85842937D01*
X167682168Y-85842933D01*
X167678758Y-85835054D01*
X167673354Y-85828381D01*
X167673353Y-85828379D01*
X167669179Y-85823225D01*
X167656688Y-85804637D01*
X167649348Y-85791285D01*
X167645028Y-85786281D01*
X167643802Y-85784860D01*
X167643796Y-85784853D01*
X167642290Y-85783109D01*
X167617547Y-85758366D01*
X167608721Y-85748565D01*
X167588556Y-85723662D01*
X167588553Y-85723659D01*
X167583150Y-85716987D01*
X167567636Y-85705962D01*
X167551536Y-85692355D01*
X165966405Y-84107224D01*
X165932379Y-84044912D01*
X165929500Y-84018129D01*
X165929499Y-83001662D01*
X165929499Y-82874934D01*
X165922388Y-82839182D01*
X165917156Y-82812874D01*
X165917155Y-82812872D01*
X165914734Y-82800699D01*
X165907839Y-82790379D01*
X165907838Y-82790378D01*
X165867484Y-82729985D01*
X165858484Y-82716516D01*
X165774301Y-82660266D01*
X165700067Y-82645500D01*
X165700067Y-73054500D01*
X167804200Y-73054499D01*
X167804200Y-73991801D01*
X167593667Y-74001545D01*
X167388774Y-74050924D01*
X167383316Y-74053406D01*
X167383312Y-74053407D01*
X167293794Y-74094109D01*
X167196916Y-74138157D01*
X167025014Y-74260096D01*
X166879272Y-74412340D01*
X166876021Y-74417375D01*
X166768200Y-74584360D01*
X166768199Y-74584363D01*
X166764948Y-74589397D01*
X166686166Y-74784878D01*
X166662183Y-74907688D01*
X166646639Y-74987283D01*
X166646639Y-74987286D01*
X166645771Y-74991729D01*
X166645500Y-74997270D01*
X166645500Y-75152659D01*
X166660493Y-75309806D01*
X166678411Y-75370883D01*
X166718132Y-75506278D01*
X166719823Y-75512042D01*
X166762969Y-75595815D01*
X166813578Y-75694079D01*
X166813580Y-75694082D01*
X166816324Y-75699410D01*
X166876021Y-75775408D01*
X166942808Y-75860432D01*
X166942812Y-75860436D01*
X166946514Y-75865149D01*
X166963021Y-75879473D01*
X167101165Y-75999350D01*
X167101170Y-75999354D01*
X167105696Y-76003281D01*
X167288126Y-76108819D01*
X167487222Y-76177957D01*
X167598811Y-76194137D01*
X167689860Y-76207338D01*
X167689863Y-76207338D01*
X167695800Y-76208199D01*
X167906333Y-76198455D01*
X167925821Y-76193759D01*
X168105393Y-76150482D01*
X168105395Y-76150481D01*
X168111226Y-76149076D01*
X168162378Y-76125819D01*
X168297629Y-76064323D01*
X168303084Y-76061843D01*
X168474986Y-75939904D01*
X168620728Y-75787660D01*
X168686422Y-75685918D01*
X168731800Y-75615640D01*
X168731801Y-75615637D01*
X168735052Y-75610603D01*
X168813834Y-75415122D01*
X168845500Y-75252970D01*
X168853361Y-75212717D01*
X168853361Y-75212714D01*
X168854229Y-75208271D01*
X168854500Y-75202730D01*
X168854500Y-75047341D01*
X168839507Y-74890194D01*
X168780177Y-74687958D01*
X168777427Y-74682619D01*
X168686422Y-74505921D01*
X168686420Y-74505918D01*
X168683676Y-74500590D01*
X168679972Y-74495875D01*
X168557192Y-74339568D01*
X168557188Y-74339564D01*
X168553486Y-74334851D01*
X168548956Y-74330920D01*
X168548955Y-74330919D01*
X168398835Y-74200650D01*
X168398830Y-74200646D01*
X168394304Y-74196719D01*
X168211874Y-74091181D01*
X168012778Y-74022043D01*
X168006845Y-74021183D01*
X168006842Y-74021182D01*
X167865785Y-74000730D01*
X167804200Y-73991801D01*
X167804200Y-73054499D01*
X167875066Y-73054499D01*
X167925821Y-73044404D01*
X167937126Y-73042156D01*
X167937128Y-73042155D01*
X167949301Y-73039734D01*
X168012778Y-72997320D01*
X168023168Y-72990377D01*
X168033484Y-72983484D01*
X168089734Y-72899301D01*
X168104500Y-72825067D01*
X168104500Y-72080500D01*
X168124502Y-72012379D01*
X168178158Y-71965886D01*
X168230500Y-71954500D01*
X169418129Y-71954500D01*
X169486250Y-71974502D01*
X169507224Y-71991405D01*
X170508595Y-72992776D01*
X170542621Y-73055088D01*
X170545500Y-73081871D01*
X170545500Y-76034925D01*
X170545390Y-76040201D01*
X170542772Y-76102674D01*
X170552788Y-76145376D01*
X170554951Y-76157051D01*
X170557347Y-76174543D01*
X170560905Y-76200518D01*
X170566953Y-76214493D01*
X170573987Y-76235763D01*
X170575502Y-76242222D01*
X170577463Y-76250583D01*
X170598603Y-76289037D01*
X170603818Y-76299683D01*
X170617830Y-76332063D01*
X170617832Y-76332067D01*
X170621242Y-76339946D01*
X170630821Y-76351775D01*
X170643312Y-76370363D01*
X170650652Y-76383715D01*
X170655426Y-76389245D01*
X170656198Y-76390140D01*
X170656204Y-76390147D01*
X170657710Y-76391891D01*
X170682453Y-76416634D01*
X170691279Y-76426435D01*
X170711444Y-76451338D01*
X170711447Y-76451341D01*
X170716850Y-76458013D01*
X170732364Y-76469038D01*
X170748464Y-76482645D01*
X172458595Y-78192777D01*
X172492621Y-78255089D01*
X172495500Y-78281872D01*
X172495501Y-80013527D01*
X172495501Y-80225066D01*
X172502968Y-80262608D01*
X172507844Y-80287126D01*
X172507845Y-80287128D01*
X172510266Y-80299301D01*
X172517161Y-80309621D01*
X172517162Y-80309622D01*
X172559623Y-80373168D01*
X172566516Y-80383484D01*
X172650699Y-80439734D01*
X172724933Y-80454500D01*
X174130351Y-80454499D01*
X174130351Y-82575951D01*
X173918623Y-82589829D01*
X173712969Y-82642058D01*
X173520277Y-82730890D01*
X173347000Y-82853350D01*
X173198941Y-83005337D01*
X173195736Y-83010133D01*
X173195734Y-83010136D01*
X173084238Y-83177002D01*
X173029761Y-83222530D01*
X172979473Y-83233000D01*
X170724697Y-83233000D01*
X170656576Y-83212998D01*
X170623871Y-83182565D01*
X170610404Y-83164596D01*
X170603224Y-83159215D01*
X170501946Y-83083311D01*
X170501943Y-83083309D01*
X170494764Y-83077929D01*
X170359448Y-83027202D01*
X170297756Y-83020500D01*
X169302244Y-83020500D01*
X169240552Y-83027202D01*
X169105236Y-83077929D01*
X169098057Y-83083309D01*
X169098054Y-83083311D01*
X169010023Y-83149287D01*
X168989596Y-83164596D01*
X168984215Y-83171776D01*
X168908311Y-83273054D01*
X168908309Y-83273057D01*
X168902929Y-83280236D01*
X168869296Y-83369954D01*
X168854974Y-83408157D01*
X168854974Y-83408159D01*
X168852202Y-83415552D01*
X168851349Y-83423402D01*
X168851349Y-83423403D01*
X168845869Y-83473847D01*
X168845500Y-83477244D01*
X168845500Y-84097756D01*
X168845869Y-84101153D01*
X168851349Y-84151597D01*
X168851349Y-84151598D01*
X168852202Y-84159448D01*
X168854974Y-84166841D01*
X168854974Y-84166843D01*
X168869296Y-84205046D01*
X168902929Y-84294764D01*
X168908309Y-84301943D01*
X168908311Y-84301946D01*
X168984215Y-84403224D01*
X168989596Y-84410404D01*
X169010023Y-84425713D01*
X169098054Y-84491689D01*
X169098057Y-84491691D01*
X169105236Y-84497071D01*
X169240552Y-84547798D01*
X169302244Y-84554500D01*
X169302244Y-84845500D01*
X169240552Y-84852202D01*
X169105236Y-84902929D01*
X169098057Y-84908309D01*
X169098054Y-84908311D01*
X169010023Y-84974287D01*
X168989596Y-84989596D01*
X168984215Y-84996776D01*
X168908311Y-85098054D01*
X168908309Y-85098057D01*
X168902929Y-85105236D01*
X168869296Y-85194954D01*
X168854974Y-85233157D01*
X168854974Y-85233159D01*
X168852202Y-85240552D01*
X168851349Y-85248402D01*
X168851349Y-85248403D01*
X168845869Y-85298847D01*
X168845500Y-85302244D01*
X168845500Y-85922756D01*
X168845869Y-85926153D01*
X168851349Y-85976597D01*
X168851349Y-85976598D01*
X168852202Y-85984448D01*
X168854974Y-85991841D01*
X168854974Y-85991843D01*
X168869296Y-86030046D01*
X168902929Y-86119764D01*
X168908309Y-86126943D01*
X168908311Y-86126946D01*
X168984215Y-86228224D01*
X168989596Y-86235404D01*
X169010023Y-86250713D01*
X169098054Y-86316689D01*
X169098057Y-86316691D01*
X169105236Y-86322071D01*
X169163729Y-86343999D01*
X169220494Y-86386640D01*
X169245194Y-86453202D01*
X169245500Y-86461981D01*
X169245500Y-87634925D01*
X169245390Y-87640201D01*
X169242772Y-87702674D01*
X169252788Y-87745376D01*
X169254951Y-87757051D01*
X169257102Y-87772754D01*
X169260905Y-87800518D01*
X169266953Y-87814493D01*
X169273987Y-87835763D01*
X169275502Y-87842222D01*
X169277463Y-87850583D01*
X169298603Y-87889037D01*
X169303818Y-87899683D01*
X169317830Y-87932063D01*
X169317832Y-87932067D01*
X169321242Y-87939946D01*
X169330821Y-87951775D01*
X169343312Y-87970363D01*
X169350652Y-87983715D01*
X169355426Y-87989245D01*
X169356198Y-87990140D01*
X169356204Y-87990147D01*
X169357710Y-87991891D01*
X169382453Y-88016634D01*
X169391279Y-88026435D01*
X169411444Y-88051338D01*
X169411447Y-88051341D01*
X169416850Y-88058013D01*
X169432355Y-88069032D01*
X169448461Y-88082642D01*
X169770993Y-88405175D01*
X170097255Y-88731437D01*
X170100907Y-88735245D01*
X170137411Y-88774942D01*
X170143226Y-88781266D01*
X170180505Y-88804380D01*
X170190275Y-88811094D01*
X170218396Y-88832440D01*
X170218398Y-88832441D01*
X170225234Y-88837630D01*
X170239394Y-88843236D01*
X170259403Y-88853299D01*
X170272344Y-88861323D01*
X170314476Y-88873564D01*
X170325705Y-88877409D01*
X170358502Y-88890394D01*
X170358510Y-88890396D01*
X170366489Y-88893555D01*
X170381619Y-88895145D01*
X170403608Y-88899459D01*
X170411893Y-88901866D01*
X170418235Y-88903709D01*
X170429007Y-88904500D01*
X170464013Y-88904500D01*
X170477184Y-88905190D01*
X170517580Y-88909436D01*
X170536335Y-88906264D01*
X170557347Y-88904500D01*
X175468129Y-88904500D01*
X175536250Y-88924502D01*
X175557224Y-88941405D01*
X175758595Y-89142776D01*
X175792621Y-89205088D01*
X175795500Y-89231871D01*
X175795500Y-97068129D01*
X175775498Y-97136250D01*
X175758595Y-97157224D01*
X174724754Y-98191065D01*
X174662442Y-98225091D01*
X174591627Y-98220026D01*
X174534791Y-98177479D01*
X174509980Y-98110959D01*
X174512080Y-98077390D01*
X174520918Y-98032957D01*
X174551967Y-97876863D01*
X174551967Y-97876859D01*
X174553094Y-97871195D01*
X174553170Y-97865420D01*
X174553170Y-97865416D01*
X174554566Y-97758804D01*
X174555872Y-97659031D01*
X174554893Y-97653334D01*
X174554893Y-97653333D01*
X174520918Y-97455610D01*
X174519939Y-97449913D01*
X174446499Y-97250846D01*
X174443547Y-97245885D01*
X174443547Y-97245884D01*
X174340968Y-97073463D01*
X174340966Y-97073460D01*
X174338012Y-97068495D01*
X174334206Y-97064155D01*
X174334203Y-97064151D01*
X174282930Y-97005686D01*
X174198110Y-96908968D01*
X174193575Y-96905393D01*
X174193574Y-96905392D01*
X174039319Y-96783787D01*
X174031480Y-96777607D01*
X173843701Y-96678812D01*
X173641062Y-96615891D01*
X173430351Y-96590951D01*
X173218623Y-96604829D01*
X173012969Y-96657058D01*
X172820277Y-96745890D01*
X172647000Y-96868350D01*
X172642973Y-96872484D01*
X172510266Y-97008712D01*
X172498941Y-97020337D01*
X172495736Y-97025133D01*
X172495734Y-97025136D01*
X172458595Y-97080719D01*
X172419317Y-97139503D01*
X172364842Y-97185029D01*
X172314553Y-97195500D01*
X165031871Y-97195500D01*
X164963750Y-97175498D01*
X164942776Y-97158595D01*
X162802768Y-95018587D01*
X162799115Y-95014779D01*
X162756774Y-94968734D01*
X162749479Y-94964211D01*
X162749478Y-94964210D01*
X162719494Y-94945619D01*
X162709712Y-94938896D01*
X162674765Y-94912370D01*
X162666781Y-94909209D01*
X162660604Y-94906763D01*
X162640598Y-94896700D01*
X162634963Y-94893206D01*
X162634954Y-94893202D01*
X162627656Y-94888677D01*
X162619409Y-94886281D01*
X162585520Y-94876435D01*
X162574291Y-94872590D01*
X162547213Y-94861869D01*
X162492772Y-94820283D01*
X162465787Y-94784278D01*
X162465785Y-94784276D01*
X162460404Y-94777096D01*
X162453224Y-94771715D01*
X162351946Y-94695811D01*
X162351943Y-94695809D01*
X162344764Y-94690429D01*
X162303871Y-94675099D01*
X162286271Y-94668501D01*
X162229506Y-94625860D01*
X162204806Y-94559298D01*
X162204500Y-94550519D01*
X162204500Y-94246353D01*
X162224502Y-94178232D01*
X162278158Y-94131739D01*
X162286271Y-94128371D01*
X162344764Y-94106443D01*
X162369764Y-94097071D01*
X162376943Y-94091691D01*
X162376946Y-94091689D01*
X162478224Y-94015785D01*
X162485404Y-94010404D01*
X162547071Y-93928122D01*
X162566689Y-93901946D01*
X162566691Y-93901943D01*
X162572071Y-93894764D01*
X162605704Y-93805046D01*
X162620026Y-93766843D01*
X162620026Y-93766841D01*
X162622798Y-93759448D01*
X162623651Y-93751598D01*
X162623651Y-93751597D01*
X162629131Y-93701153D01*
X162629131Y-93701152D01*
X162629500Y-93697756D01*
X162629500Y-93102244D01*
X162629131Y-93098848D01*
X162629131Y-93098847D01*
X162623651Y-93048403D01*
X162623651Y-93048402D01*
X162622798Y-93040552D01*
X162620026Y-93033159D01*
X162620026Y-93033157D01*
X162605704Y-92994954D01*
X162572071Y-92905236D01*
X162566691Y-92898057D01*
X162566689Y-92898054D01*
X162547071Y-92871878D01*
X162485404Y-92789596D01*
X162478224Y-92784215D01*
X162376946Y-92708311D01*
X162376943Y-92708309D01*
X162369764Y-92702929D01*
X162234448Y-92652202D01*
X162226598Y-92651349D01*
X162226597Y-92651349D01*
X162201597Y-92648633D01*
X162172756Y-92645500D01*
X161127244Y-92645500D01*
X161123848Y-92645869D01*
X161123847Y-92645869D01*
X161075498Y-92651122D01*
X161065552Y-92652202D01*
X160930236Y-92702929D01*
X160923057Y-92708309D01*
X160923054Y-92708311D01*
X160839596Y-92770860D01*
X160814596Y-92789596D01*
X160809215Y-92796776D01*
X160733311Y-92898054D01*
X160733309Y-92898057D01*
X160727929Y-92905236D01*
X160694296Y-92994954D01*
X160679974Y-93033157D01*
X160679974Y-93033159D01*
X160677202Y-93040552D01*
X160676349Y-93048402D01*
X160676349Y-93048403D01*
X160670869Y-93098847D01*
X160670500Y-93102244D01*
X160670500Y-93697756D01*
X160670869Y-93701153D01*
X160676349Y-93751597D01*
X160676349Y-93751598D01*
X160677202Y-93759448D01*
X160679974Y-93766841D01*
X160679974Y-93766843D01*
X160694296Y-93805046D01*
X160727929Y-93894764D01*
X160733309Y-93901943D01*
X160733311Y-93901946D01*
X160809215Y-94003224D01*
X160814596Y-94010404D01*
X160839596Y-94029140D01*
X160923054Y-94091689D01*
X160923057Y-94091691D01*
X160930236Y-94097071D01*
X161013729Y-94128371D01*
X161070494Y-94171012D01*
X161095194Y-94237574D01*
X161095500Y-94246353D01*
X161095500Y-94550519D01*
X161075498Y-94618640D01*
X161021842Y-94665133D01*
X161013729Y-94668501D01*
X160955236Y-94690429D01*
X160948057Y-94695809D01*
X160948054Y-94695811D01*
X160930236Y-94709165D01*
X160839596Y-94777096D01*
X160834215Y-94784276D01*
X160758311Y-94885554D01*
X160758309Y-94885557D01*
X160752929Y-94892736D01*
X160724779Y-94967827D01*
X160704974Y-95020657D01*
X160704974Y-95020659D01*
X160702202Y-95028052D01*
X160701349Y-95035902D01*
X160701349Y-95035903D01*
X160695869Y-95086347D01*
X160695500Y-95089744D01*
X160695500Y-95710256D01*
X160695869Y-95713653D01*
X160701349Y-95764097D01*
X160701349Y-95764098D01*
X160702202Y-95771948D01*
X160704974Y-95779341D01*
X160704974Y-95779343D01*
X160724779Y-95832173D01*
X160752929Y-95907264D01*
X160758309Y-95914443D01*
X160758311Y-95914446D01*
X160834215Y-96015724D01*
X160839596Y-96022904D01*
X160930236Y-96090835D01*
X160948054Y-96104189D01*
X160948057Y-96104191D01*
X160955236Y-96109571D01*
X161090552Y-96160298D01*
X161152244Y-96167000D01*
X162147756Y-96167000D01*
X162209448Y-96160298D01*
X162254714Y-96143329D01*
X162325521Y-96138148D01*
X162388036Y-96172217D01*
X164347232Y-98131413D01*
X164350885Y-98135221D01*
X164387416Y-98174948D01*
X164387417Y-98174949D01*
X164393226Y-98181266D01*
X164430506Y-98204381D01*
X164440288Y-98211104D01*
X164468395Y-98232438D01*
X164475235Y-98237630D01*
X164489396Y-98243237D01*
X164509402Y-98253300D01*
X164515037Y-98256794D01*
X164515046Y-98256798D01*
X164522344Y-98261323D01*
X164564480Y-98273565D01*
X164575707Y-98277409D01*
X164616490Y-98293556D01*
X164631633Y-98295148D01*
X164653606Y-98299459D01*
X164661896Y-98301867D01*
X164668235Y-98303709D01*
X164679007Y-98304500D01*
X164714005Y-98304500D01*
X164727176Y-98305190D01*
X164759037Y-98308539D01*
X164767581Y-98309437D01*
X164786346Y-98306263D01*
X164807348Y-98304500D01*
X167180351Y-98304500D01*
X167180351Y-99090951D01*
X166968623Y-99104829D01*
X166762969Y-99157058D01*
X166570277Y-99245890D01*
X166397000Y-99368350D01*
X166248941Y-99520337D01*
X166245736Y-99525133D01*
X166245734Y-99525136D01*
X166150820Y-99667186D01*
X166131059Y-99696760D01*
X166128781Y-99702063D01*
X166128779Y-99702066D01*
X166093617Y-99783908D01*
X166047301Y-99891711D01*
X166030095Y-99967750D01*
X166001748Y-100093025D01*
X166001747Y-100093030D01*
X166000473Y-100098662D01*
X166000246Y-100104433D01*
X166000246Y-100104435D01*
X165997674Y-100169911D01*
X165992143Y-100310681D01*
X166007367Y-100415674D01*
X166021761Y-100514953D01*
X166021762Y-100514958D01*
X166022590Y-100520667D01*
X166024445Y-100526131D01*
X166024446Y-100526136D01*
X166056051Y-100619240D01*
X166090793Y-100721589D01*
X166134269Y-100799221D01*
X166191643Y-100901670D01*
X166191646Y-100901674D01*
X166194470Y-100906717D01*
X166330148Y-101069852D01*
X166493283Y-101205530D01*
X166498326Y-101208354D01*
X166498330Y-101208357D01*
X166673368Y-101306383D01*
X166673370Y-101306384D01*
X166678411Y-101309207D01*
X166780760Y-101343949D01*
X166873864Y-101375554D01*
X166873869Y-101375555D01*
X166879333Y-101377410D01*
X166963021Y-101389545D01*
X167012160Y-101396669D01*
X167089319Y-101407857D01*
X167150000Y-101409446D01*
X167361292Y-101390031D01*
X167388774Y-101382281D01*
X167559949Y-101334004D01*
X167559951Y-101334003D01*
X167565508Y-101332436D01*
X167576149Y-101327189D01*
X167750628Y-101241145D01*
X167755809Y-101238590D01*
X167925821Y-101111636D01*
X167929737Y-101107400D01*
X168065931Y-100960066D01*
X168065933Y-100960063D01*
X168069850Y-100955826D01*
X168183074Y-100776377D01*
X168261700Y-100579300D01*
X168262825Y-100573643D01*
X168262827Y-100573637D01*
X168301967Y-100376863D01*
X168301967Y-100376859D01*
X168303094Y-100371195D01*
X168303170Y-100365420D01*
X168303170Y-100365416D01*
X168304566Y-100258804D01*
X168305872Y-100159031D01*
X168304893Y-100153334D01*
X168304893Y-100153333D01*
X168270918Y-99955610D01*
X168269939Y-99949913D01*
X168196499Y-99750846D01*
X168193547Y-99745885D01*
X168193547Y-99745884D01*
X168090968Y-99573463D01*
X168090966Y-99573460D01*
X168088012Y-99568495D01*
X168084206Y-99564155D01*
X168084203Y-99564151D01*
X167997798Y-99465626D01*
X167948110Y-99408968D01*
X167943575Y-99405393D01*
X167943574Y-99405392D01*
X167853224Y-99334166D01*
X167781480Y-99277607D01*
X167593701Y-99178812D01*
X167391062Y-99115891D01*
X167180351Y-99090951D01*
X167180351Y-98304500D01*
X172313376Y-98304500D01*
X172381497Y-98324502D01*
X172423311Y-98368935D01*
X172441648Y-98401679D01*
X172441651Y-98401684D01*
X172444470Y-98406717D01*
X172458595Y-98423701D01*
X172576457Y-98565414D01*
X172580148Y-98569852D01*
X172743283Y-98705530D01*
X172748326Y-98708354D01*
X172748330Y-98708357D01*
X172923368Y-98806383D01*
X172923370Y-98806384D01*
X172928411Y-98809207D01*
X173049136Y-98850187D01*
X173107212Y-98891024D01*
X173133991Y-98956776D01*
X173120970Y-99026569D01*
X173072284Y-99078242D01*
X173008635Y-99095500D01*
X172893694Y-99095500D01*
X172820672Y-99102210D01*
X172814288Y-99104211D01*
X172814286Y-99104211D01*
X172724933Y-99132213D01*
X172657959Y-99153201D01*
X172512106Y-99241533D01*
X172391533Y-99362106D01*
X172303201Y-99507959D01*
X172300930Y-99515206D01*
X172300929Y-99515208D01*
X172254211Y-99664286D01*
X172254211Y-99664288D01*
X172252210Y-99670672D01*
X172245500Y-99743694D01*
X172245500Y-100756306D01*
X172252210Y-100829328D01*
X172254211Y-100835712D01*
X172254211Y-100835714D01*
X172300929Y-100984792D01*
X172300930Y-100984794D01*
X172303201Y-100992041D01*
X172391533Y-101137894D01*
X172512106Y-101258467D01*
X172657959Y-101346799D01*
X172724933Y-101367788D01*
X172814286Y-101395789D01*
X172814288Y-101395789D01*
X172820672Y-101397790D01*
X172893694Y-101404500D01*
X173906306Y-101404500D01*
X173979328Y-101397790D01*
X173985714Y-101395789D01*
X174134792Y-101349071D01*
X174134794Y-101349070D01*
X174142041Y-101346799D01*
X174287894Y-101258467D01*
X174408467Y-101137894D01*
X174481558Y-101017207D01*
X174492865Y-100998537D01*
X174492865Y-100998536D01*
X174496799Y-100992041D01*
X174499070Y-100984794D01*
X174499071Y-100984792D01*
X174545789Y-100835714D01*
X174545789Y-100835712D01*
X174547790Y-100829328D01*
X174554500Y-100756306D01*
X174554500Y-99981872D01*
X174574502Y-99913751D01*
X174591405Y-99892777D01*
X176731414Y-97752767D01*
X176735222Y-97749114D01*
X176774948Y-97712584D01*
X176774949Y-97712583D01*
X176781266Y-97706774D01*
X176790647Y-97691645D01*
X176804381Y-97669494D01*
X176811104Y-97659712D01*
X176832438Y-97631605D01*
X176832438Y-97631606D01*
X176837630Y-97624765D01*
X176841475Y-97615053D01*
X176843237Y-97610604D01*
X176853300Y-97590598D01*
X176856794Y-97584963D01*
X176856798Y-97584954D01*
X176861323Y-97577656D01*
X176873565Y-97535521D01*
X176877407Y-97524298D01*
X176893556Y-97483510D01*
X176895049Y-97469308D01*
X176895148Y-97468367D01*
X176899459Y-97446394D01*
X176903709Y-97431765D01*
X176904500Y-97420993D01*
X176904500Y-97385995D01*
X176905190Y-97372824D01*
X176906264Y-97362607D01*
X176907228Y-97353435D01*
X176908539Y-97340963D01*
X176909437Y-97332419D01*
X176906263Y-97313654D01*
X176904500Y-97292652D01*
X176904500Y-88965074D01*
X176904610Y-88959798D01*
X176907228Y-88897326D01*
X176905266Y-88888961D01*
X176897212Y-88854622D01*
X176895049Y-88842949D01*
X176893556Y-88832050D01*
X176889095Y-88799482D01*
X176883593Y-88786767D01*
X176883047Y-88785506D01*
X176876013Y-88764237D01*
X176872537Y-88749417D01*
X176851397Y-88710963D01*
X176846182Y-88700317D01*
X176832170Y-88667937D01*
X176832168Y-88667933D01*
X176828758Y-88660054D01*
X176823354Y-88653381D01*
X176823353Y-88653379D01*
X176819179Y-88648225D01*
X176806688Y-88629637D01*
X176799348Y-88616285D01*
X176795028Y-88611281D01*
X176793802Y-88609860D01*
X176793796Y-88609853D01*
X176792290Y-88608109D01*
X176767547Y-88583366D01*
X176758721Y-88573565D01*
X176738556Y-88548662D01*
X176738553Y-88548659D01*
X176733150Y-88541987D01*
X176717636Y-88530962D01*
X176701536Y-88517355D01*
X176152768Y-87968587D01*
X176149115Y-87964779D01*
X176106774Y-87918734D01*
X176099479Y-87914211D01*
X176099478Y-87914210D01*
X176069494Y-87895619D01*
X176059712Y-87888896D01*
X176024765Y-87862370D01*
X176016781Y-87859209D01*
X176010604Y-87856763D01*
X175990598Y-87846700D01*
X175984963Y-87843206D01*
X175984954Y-87843202D01*
X175977656Y-87838677D01*
X175969409Y-87836281D01*
X175935520Y-87826435D01*
X175924298Y-87822593D01*
X175883510Y-87806444D01*
X175874965Y-87805546D01*
X175868367Y-87804852D01*
X175846395Y-87800541D01*
X175831765Y-87796291D01*
X175820993Y-87795500D01*
X175785995Y-87795500D01*
X175772825Y-87794810D01*
X175732419Y-87790563D01*
X175713654Y-87793737D01*
X175692652Y-87795500D01*
X170781871Y-87795500D01*
X170713750Y-87775498D01*
X170692776Y-87758595D01*
X170391405Y-87457224D01*
X170357379Y-87394912D01*
X170354500Y-87368129D01*
X170354500Y-86461981D01*
X170374502Y-86393860D01*
X170428158Y-86347367D01*
X170436271Y-86343999D01*
X170486360Y-86325221D01*
X170494764Y-86322071D01*
X170501943Y-86316691D01*
X170501946Y-86316689D01*
X170603224Y-86240785D01*
X170610404Y-86235404D01*
X170643318Y-86191487D01*
X170691689Y-86126946D01*
X170691691Y-86126943D01*
X170697071Y-86119764D01*
X170740981Y-86002633D01*
X170745026Y-85991843D01*
X170745026Y-85991841D01*
X170747798Y-85984448D01*
X170748651Y-85976598D01*
X170748651Y-85976597D01*
X170754131Y-85926153D01*
X170754131Y-85926152D01*
X170754500Y-85922756D01*
X170754500Y-85302244D01*
X170754131Y-85298848D01*
X170754131Y-85298847D01*
X170748651Y-85248403D01*
X170748651Y-85248402D01*
X170747798Y-85240552D01*
X170745026Y-85233159D01*
X170745026Y-85233157D01*
X170740981Y-85222367D01*
X170697071Y-85105236D01*
X170691691Y-85098057D01*
X170691689Y-85098054D01*
X170643318Y-85033513D01*
X170610404Y-84989596D01*
X170603224Y-84984215D01*
X170501946Y-84908311D01*
X170501943Y-84908309D01*
X170494764Y-84902929D01*
X170359448Y-84852202D01*
X170297756Y-84845500D01*
X169302244Y-84845500D01*
X169302244Y-84554500D01*
X170297756Y-84554500D01*
X170359448Y-84547798D01*
X170494764Y-84497071D01*
X170501943Y-84491691D01*
X170501946Y-84491689D01*
X170603224Y-84415785D01*
X170610404Y-84410404D01*
X170623871Y-84392435D01*
X170680730Y-84349920D01*
X170724697Y-84342000D01*
X173044650Y-84342000D01*
X173112771Y-84362002D01*
X173143905Y-84392187D01*
X173144470Y-84391717D01*
X173218623Y-84480876D01*
X173280148Y-84554852D01*
X173443283Y-84690530D01*
X173448326Y-84693354D01*
X173448330Y-84693357D01*
X173623368Y-84791383D01*
X173623370Y-84791384D01*
X173628411Y-84794207D01*
X173730760Y-84828949D01*
X173823864Y-84860554D01*
X173823869Y-84860555D01*
X173829333Y-84862410D01*
X173843701Y-84864494D01*
X173979328Y-84884159D01*
X174039319Y-84892857D01*
X174100000Y-84894446D01*
X174311292Y-84875031D01*
X174319850Y-84872618D01*
X174509949Y-84819004D01*
X174509951Y-84819003D01*
X174515508Y-84817436D01*
X174520918Y-84814769D01*
X174700628Y-84726145D01*
X174705809Y-84723590D01*
X174875821Y-84596636D01*
X174900344Y-84570107D01*
X175015931Y-84445066D01*
X175015933Y-84445063D01*
X175019850Y-84440826D01*
X175133074Y-84261377D01*
X175211700Y-84064300D01*
X175212825Y-84058643D01*
X175212827Y-84058637D01*
X175251967Y-83861863D01*
X175251967Y-83861859D01*
X175253094Y-83856195D01*
X175253170Y-83850420D01*
X175253170Y-83850416D01*
X175254566Y-83743804D01*
X175255872Y-83644031D01*
X175254893Y-83638334D01*
X175254893Y-83638333D01*
X175251967Y-83621305D01*
X175219939Y-83434913D01*
X175146499Y-83235846D01*
X175143547Y-83230885D01*
X175143547Y-83230884D01*
X175040968Y-83058463D01*
X175040966Y-83058460D01*
X175038012Y-83053495D01*
X175034206Y-83049155D01*
X175034203Y-83049151D01*
X174981135Y-82988639D01*
X174898110Y-82893968D01*
X174731480Y-82762607D01*
X174543701Y-82663812D01*
X174341062Y-82600891D01*
X174130351Y-82575951D01*
X174130351Y-80454499D01*
X174975066Y-80454499D01*
X175049301Y-80439734D01*
X175133484Y-80383484D01*
X175189734Y-80299301D01*
X175204500Y-80225067D01*
X175204500Y-78800231D01*
X175204499Y-77374934D01*
X175197388Y-77339182D01*
X175192156Y-77312874D01*
X175192155Y-77312872D01*
X175189734Y-77300699D01*
X175182839Y-77290379D01*
X175182838Y-77290378D01*
X175148497Y-77238984D01*
X175133484Y-77216516D01*
X175049301Y-77160266D01*
X174975067Y-77145500D01*
X173979328Y-77145501D01*
X173031872Y-77145501D01*
X172963751Y-77125499D01*
X172942777Y-77108596D01*
X171691405Y-75857224D01*
X171657379Y-75794912D01*
X171654500Y-75768129D01*
X171654500Y-72815075D01*
X171654610Y-72809799D01*
X171657228Y-72747326D01*
X171655266Y-72738961D01*
X171647212Y-72704622D01*
X171645049Y-72692948D01*
X171639095Y-72649482D01*
X171633593Y-72636767D01*
X171633047Y-72635506D01*
X171626013Y-72614237D01*
X171622537Y-72599417D01*
X171601397Y-72560963D01*
X171596182Y-72550317D01*
X171582170Y-72517937D01*
X171582168Y-72517933D01*
X171578758Y-72510054D01*
X171573354Y-72503381D01*
X171573353Y-72503379D01*
X171569179Y-72498225D01*
X171556688Y-72479637D01*
X171549348Y-72466285D01*
X171545028Y-72461281D01*
X171543802Y-72459860D01*
X171543796Y-72459853D01*
X171542290Y-72458109D01*
X171517547Y-72433366D01*
X171508721Y-72423565D01*
X171488556Y-72398662D01*
X171488553Y-72398659D01*
X171483150Y-72391987D01*
X171467636Y-72380962D01*
X171451536Y-72367355D01*
X170102768Y-71018587D01*
X170099115Y-71014779D01*
X170056774Y-70968734D01*
X170049479Y-70964211D01*
X170049478Y-70964210D01*
X170019494Y-70945619D01*
X170009712Y-70938896D01*
X169974765Y-70912370D01*
X169966781Y-70909209D01*
X169960604Y-70906763D01*
X169940598Y-70896700D01*
X169934963Y-70893206D01*
X169934954Y-70893202D01*
X169927656Y-70888677D01*
X169919409Y-70886281D01*
X169885520Y-70876435D01*
X169874298Y-70872593D01*
X169833510Y-70856444D01*
X169824965Y-70855546D01*
X169818367Y-70854852D01*
X169796395Y-70850541D01*
X169781765Y-70846291D01*
X169770993Y-70845500D01*
X169735995Y-70845500D01*
X169722825Y-70844810D01*
X169682419Y-70840563D01*
X169663654Y-70843737D01*
X169642652Y-70845500D01*
X168230499Y-70845500D01*
X168162378Y-70825498D01*
X168115885Y-70771842D01*
X168104499Y-70719500D01*
X168104499Y-69974934D01*
X168097388Y-69939182D01*
X168092156Y-69912874D01*
X168092155Y-69912872D01*
X168089734Y-69900699D01*
X168082839Y-69890379D01*
X168082838Y-69890378D01*
X168042484Y-69829985D01*
X168033484Y-69816516D01*
X167949301Y-69760266D01*
X167875067Y-69745500D01*
X167875067Y-68654500D01*
X174804200Y-68654500D01*
X174804200Y-73991801D01*
X174593667Y-74001545D01*
X174388774Y-74050924D01*
X174383316Y-74053406D01*
X174383312Y-74053407D01*
X174311292Y-74086153D01*
X174196916Y-74138157D01*
X174025014Y-74260096D01*
X173879272Y-74412340D01*
X173876021Y-74417375D01*
X173768200Y-74584360D01*
X173768199Y-74584363D01*
X173764948Y-74589397D01*
X173686166Y-74784878D01*
X173662183Y-74907688D01*
X173646639Y-74987283D01*
X173646639Y-74987286D01*
X173645771Y-74991729D01*
X173645500Y-74997270D01*
X173645500Y-75152659D01*
X173660493Y-75309806D01*
X173719823Y-75512042D01*
X173762706Y-75595304D01*
X173813578Y-75694079D01*
X173813580Y-75694082D01*
X173816324Y-75699410D01*
X173876021Y-75775408D01*
X173942808Y-75860432D01*
X173942812Y-75860436D01*
X173946514Y-75865149D01*
X173979328Y-75893624D01*
X174101165Y-75999350D01*
X174101170Y-75999354D01*
X174105696Y-76003281D01*
X174288126Y-76108819D01*
X174487222Y-76177957D01*
X174509949Y-76181253D01*
X174689860Y-76207338D01*
X174689863Y-76207338D01*
X174695800Y-76208199D01*
X174906333Y-76198455D01*
X174968880Y-76183382D01*
X175105393Y-76150482D01*
X175105395Y-76150481D01*
X175111226Y-76149076D01*
X175123168Y-76143647D01*
X175297629Y-76064323D01*
X175303084Y-76061843D01*
X175474986Y-75939904D01*
X175620728Y-75787660D01*
X175713665Y-75643726D01*
X175731800Y-75615640D01*
X175731801Y-75615637D01*
X175735052Y-75610603D01*
X175813834Y-75415122D01*
X175846394Y-75248392D01*
X175853361Y-75212717D01*
X175853361Y-75212714D01*
X175854229Y-75208271D01*
X175854500Y-75202730D01*
X175854500Y-75047341D01*
X175839507Y-74890194D01*
X175837817Y-74884434D01*
X175837817Y-74884433D01*
X175814983Y-74806600D01*
X175780177Y-74687958D01*
X175758595Y-74646054D01*
X175686422Y-74505921D01*
X175686420Y-74505918D01*
X175683676Y-74500590D01*
X175679972Y-74495875D01*
X175557192Y-74339568D01*
X175557188Y-74339564D01*
X175553486Y-74334851D01*
X175548956Y-74330920D01*
X175548955Y-74330919D01*
X175398835Y-74200650D01*
X175398830Y-74200646D01*
X175394304Y-74196719D01*
X175211874Y-74091181D01*
X175012778Y-74022043D01*
X175006845Y-74021183D01*
X175006842Y-74021182D01*
X174912160Y-74007454D01*
X174804200Y-73991801D01*
X174804200Y-68654500D01*
X178019500Y-68654500D01*
X178087621Y-68674502D01*
X178134114Y-68728158D01*
X178145500Y-68780500D01*
X178145500Y-103019500D01*
X178125498Y-103087621D01*
G37*
%TD.AperFunction*%
%TD*%
M02*
